<mxfile host="app.diagrams.net" modified="2022-12-30T15:30:46.856Z" agent="5.0 (Windows NT 10.0; Win64; x64) AppleWebKit/537.36 (KHTML, like Gecko) Chrome/108.0.0.0 Safari/537.36 Edg/108.0.1462.54" version="20.6.0" etag="b7LNLJ1USBozAZQ1I2M7" type="github">
  <diagram id="QATPFeq_9cO4p-Up1sGM" name="Page-1">
    <mxGraphModel dx="3460" dy="1903" grid="1" gridSize="10" guides="1" tooltips="1" connect="1" arrows="1" fold="1" page="1" pageScale="1" pageWidth="3400" pageHeight="2900" math="0" shadow="0">
      <root>
        <mxCell id="0" />
        <mxCell id="1" parent="0" />
        <mxCell id="vxT1wsiQC9Di06yWpwA8-234" value="" style="shape=folder;fontStyle=1;spacingTop=10;tabWidth=80;tabHeight=30;tabPosition=left;html=1;" vertex="1" parent="1">
          <mxGeometry x="1310" y="1735" width="200" height="150" as="geometry" />
        </mxCell>
        <mxCell id="vxT1wsiQC9Di06yWpwA8-228" value="" style="shape=folder;fontStyle=1;spacingTop=10;tabWidth=80;tabHeight=30;tabPosition=left;html=1;" vertex="1" parent="1">
          <mxGeometry x="1860" y="1375" width="440" height="360" as="geometry" />
        </mxCell>
        <mxCell id="vxT1wsiQC9Di06yWpwA8-174" value="&lt;span style=&quot;color: rgba(0, 0, 0, 0); font-family: monospace; font-size: 0px; font-weight: 400; text-align: start;&quot;&gt;%3CmxGraphModel%3E%3Croot%3E%3CmxCell%20id%3D%220%22%2F%3E%3CmxCell%20id%3D%221%22%20parent%3D%220%22%2F%3E%3CmxCell%20id%3D%222%22%20value%3D%22AdminController%22%20style%3D%22swimlane%3BfontStyle%3D1%3Balign%3Dcenter%3BverticalAlign%3Dtop%3BchildLayout%3DstackLayout%3Bhorizontal%3D1%3BstartSize%3D26%3BhorizontalStack%3D0%3BresizeParent%3D1%3BresizeParentMax%3D0%3BresizeLast%3D0%3Bcollapsible%3D1%3BmarginBottom%3D0%3BfillColor%3D%23d5e8d4%3BstrokeColor%3D%2382b366%3BfontSize%3D12%3BstrokeWidth%3D3%3B%22%20vertex%3D%221%22%20parent%3D%221%22%3E%3CmxGeometry%20x%3D%22-1440%22%20y%3D%221135%22%20width%3D%22350%22%20height%3D%22270%22%20as%3D%22geometry%22%2F%3E%3C%2FmxCell%3E%3CmxCell%20id%3D%223%22%20value%3D%22-%20admin%3A%20Admin%26%2310%3B%22%20style%3D%22text%3BstrokeColor%3Dnone%3BfillColor%3Dnone%3Balign%3Dleft%3BverticalAlign%3Dtop%3BspacingLeft%3D4%3BspacingRight%3D4%3Boverflow%3Dhidden%3Brotatable%3D0%3Bpoints%3D%5B%5B0%2C0.5%5D%2C%5B1%2C0.5%5D%5D%3BportConstraint%3Deastwest%3BfontSize%3D12%3BstrokeWidth%3D3%3B%22%20vertex%3D%221%22%20parent%3D%222%22%3E%3CmxGeometry%20y%3D%2226%22%20width%3D%22350%22%20height%3D%2224%22%20as%3D%22geometry%22%2F%3E%3C%2FmxCell%3E%3CmxCell%20id%3D%224%22%20value%3D%22%26lt%3Bdiv%20style%3D%26quot%3Bfont-size%3A%2012px%3B%26quot%3B%26gt%3B%26lt%3Bu%20style%3D%26quot%3Bfont-size%3A%2012px%3B%20background-color%3A%20initial%3B%26quot%3B%26gt%3B-%20adminController%3A%20AdminController%26lt%3B%2Fu%26gt%3B%26lt%3B%2Fdiv%26gt%3B%22%20style%3D%22text%3Bhtml%3D1%3Balign%3Dleft%3BverticalAlign%3Dmiddle%3Bresizable%3D0%3Bpoints%3D%5B%5D%3Bautosize%3D1%3BstrokeColor%3Dnone%3BfillColor%3Dnone%3BfontSize%3D12%3BstrokeWidth%3D3%3B%22%20vertex%3D%221%22%20parent%3D%222%22%3E%3CmxGeometry%20y%3D%2250%22%20width%3D%22350%22%20height%3D%2230%22%20as%3D%22geometry%22%2F%3E%3C%2FmxCell%3E%3CmxCell%20id%3D%225%22%20value%3D%22%22%20style%3D%22line%3BstrokeWidth%3D3%3BfillColor%3Dnone%3Balign%3Dleft%3BverticalAlign%3Dmiddle%3BspacingTop%3D-1%3BspacingLeft%3D3%3BspacingRight%3D3%3Brotatable%3D0%3BlabelPosition%3Dright%3Bpoints%3D%5B%5D%3BportConstraint%3Deastwest%3BstrokeColor%3Dinherit%3BfontSize%3D12%3B%22%20vertex%3D%221%22%20parent%3D%222%22%3E%3CmxGeometry%20y%3D%2280%22%20width%3D%22350%22%20height%3D%228%22%20as%3D%22geometry%22%2F%3E%3C%2FmxCell%3E%3CmxCell%20id%3D%226%22%20value%3D%22%26lt%3Bspan%20style%3D%26quot%3Bcolor%3A%20rgb(0%2C%200%2C%200)%3B%20font-family%3A%20Helvetica%3B%20font-size%3A%2012px%3B%20font-variant-ligatures%3A%20normal%3B%20font-variant-caps%3A%20normal%3B%20font-weight%3A%20400%3B%20letter-spacing%3A%20normal%3B%20orphans%3A%202%3B%20text-align%3A%20left%3B%20text-indent%3A%200px%3B%20text-transform%3A%20none%3B%20widows%3A%202%3B%20word-spacing%3A%200px%3B%20-webkit-text-stroke-width%3A%200px%3B%20background-color%3A%20rgb(255%2C%20255%2C%20255)%3B%20text-decoration-thickness%3A%20initial%3B%20text-decoration-style%3A%20initial%3B%20text-decoration-color%3A%20initial%3B%20float%3A%20none%3B%20font-style%3A%20normal%3B%20display%3A%20inline%20!important%3B%26quot%3B%26gt%3B%26lt%3Bu%20style%3D%26quot%3Bfont-size%3A%2012px%3B%26quot%3B%26gt%3B%2B%20getInstance()%3A%20AdminController%26lt%3B%2Fu%26gt%3B%26lt%3B%2Fspan%26gt%3B%22%20style%3D%22text%3BwhiteSpace%3Dwrap%3Bhtml%3D1%3BfontSize%3D12%3BstrokeWidth%3D3%3B%22%20vertex%3D%221%22%20parent%3D%222%22%3E%3CmxGeometry%20y%3D%2288%22%20width%3D%22350%22%20height%3D%2222%22%20as%3D%22geometry%22%2F%3E%3C%2FmxCell%3E%3CmxCell%20id%3D%227%22%20value%3D%22-%20AdminController()%26%2310%3B%2B%20setAdmin(Admin%20admin)%3A%20void%26%2310%3B%2B%20addSpecificDiscount(Discount%20discount%2C%20Service%20service)%3Avoid%26%2310%3B%2B%20addOverallDiscount(Discount%20discount)%3A%20void%C2%A0%26%2310%3B%2B%20checkNotifications()%3A%20void%26%2310%3B%2B%20showPendingRefund()%3A%20Vector%26lt%3BRefund%26gt%3B%26%2310%3B-%20notifyOthers()%3A%20void%26%2310%3B%2B%20acceptRefund(Refund%20refund)%3A%20void%26%2310%3B%2B%20rejectRefund(Refund%20refund)%3A%20void%26%2310%3B%2B%20update(Refund%20refund)%3A%20void%22%20style%3D%22text%3BstrokeColor%3Dnone%3BfillColor%3Dnone%3Balign%3Dleft%3BverticalAlign%3Dtop%3BspacingLeft%3D4%3BspacingRight%3D4%3Boverflow%3Dhidden%3Brotatable%3D0%3Bpoints%3D%5B%5B0%2C0.5%5D%2C%5B1%2C0.5%5D%5D%3BportConstraint%3Deastwest%3BfontSize%3D12%3BstrokeWidth%3D3%3B%22%20vertex%3D%221%22%20parent%3D%222%22%3E%3CmxGeometry%20y%3D%22110%22%20width%3D%22350%22%20height%3D%22160%22%20as%3D%22geometry%22%2F%3E%3C%2FmxCell%3E%3CmxCell%20id%3D%228%22%20value%3D%22CustomerController%22%20style%3D%22swimlane%3BfontStyle%3D1%3Balign%3Dcenter%3BverticalAlign%3Dtop%3BchildLayout%3DstackLayout%3Bhorizontal%3D1%3BstartSize%3D26%3BhorizontalStack%3D0%3BresizeParent%3D1%3BresizeParentMax%3D0%3BresizeLast%3D0%3Bcollapsible%3D1%3BmarginBottom%3D0%3BstrokeColor%3D%2382b366%3BfillColor%3D%23d5e8d4%3Brounded%3D0%3BfontSize%3D12%3BstrokeWidth%3D3%3B%22%20vertex%3D%221%22%20parent%3D%221%22%3E%3CmxGeometry%20x%3D%22-830%22%20y%3D%221135%22%20width%3D%22410%22%20height%3D%22490%22%20as%3D%22geometry%22%3E%3CmxRectangle%20x%3D%22505%22%20y%3D%221140%22%20width%3D%22150%22%20height%3D%2230%22%20as%3D%22alternateBounds%22%2F%3E%3C%2FmxGeometry%3E%3C%2FmxCell%3E%3CmxCell%20id%3D%229%22%20value%3D%22-%20customer%20%3A%20Customer%22%20style%3D%22text%3BstrokeColor%3Dnone%3BfillColor%3Dnone%3Balign%3Dleft%3BverticalAlign%3Dtop%3BspacingLeft%3D4%3BspacingRight%3D4%3Boverflow%3Dhidden%3Brotatable%3D0%3Bpoints%3D%5B%5B0%2C0.5%5D%2C%5B1%2C0.5%5D%5D%3BportConstraint%3Deastwest%3BfontColor%3D%2346495D%3Brounded%3D0%3BfontSize%3D12%3BstrokeWidth%3D3%3B%22%20vertex%3D%221%22%20parent%3D%228%22%3E%3CmxGeometry%20y%3D%2226%22%20width%3D%22410%22%20height%3D%2224%22%20as%3D%22geometry%22%2F%3E%3C%2FmxCell%3E%3CmxCell%20id%3D%2210%22%20value%3D%22%26lt%3Bdiv%20style%3D%26quot%3Bfont-size%3A%2012px%3B%26quot%3B%26gt%3B%26lt%3Bu%20style%3D%26quot%3Bcolor%3A%20rgb(70%2C%2073%2C%2093)%3B%20font-size%3A%2012px%3B%20background-color%3A%20initial%3B%26quot%3B%26gt%3B%26amp%3Bnbsp%3B-customerController%20%3A%20CustomerController%26lt%3B%2Fu%26gt%3B%26lt%3B%2Fdiv%26gt%3B%22%20style%3D%22text%3Bhtml%3D1%3Balign%3Dleft%3BverticalAlign%3Dmiddle%3Bresizable%3D0%3Bpoints%3D%5B%5D%3Bautosize%3D1%3BstrokeColor%3Dnone%3BfillColor%3Dnone%3BfontSize%3D12%3BstrokeWidth%3D3%3B%22%20vertex%3D%221%22%20parent%3D%228%22%3E%3CmxGeometry%20y%3D%2250%22%20width%3D%22410%22%20height%3D%2230%22%20as%3D%22geometry%22%2F%3E%3C%2FmxCell%3E%3CmxCell%20id%3D%2211%22%20value%3D%22%22%20style%3D%22line%3BstrokeWidth%3D3%3BfillColor%3Dnone%3Balign%3Dleft%3BverticalAlign%3Dmiddle%3BspacingTop%3D-1%3BspacingLeft%3D3%3BspacingRight%3D3%3Brotatable%3D0%3BlabelPosition%3Dright%3Bpoints%3D%5B%5D%3BportConstraint%3Deastwest%3BfontColor%3D%2346495D%3Brounded%3D0%3BstrokeColor%3D%23788AA3%3BfontSize%3D12%3B%22%20vertex%3D%221%22%20parent%3D%228%22%3E%3CmxGeometry%20y%3D%2280%22%20width%3D%22410%22%20height%3D%228%22%20as%3D%22geometry%22%2F%3E%3C%2FmxCell%3E%3CmxCell%20id%3D%2212%22%20value%3D%22-%C2%A0CustomerController()%26%2310%3B%2B%20setCustomer(Customer%20customer)%3Avoid%26%2310%3B%2B%20addCard(CreditCard%20card)%3Avoid%26%2310%3B%2B%20showCards()%3Avoid%26%2310%3B%2B%20getCard(int%20index)%3ACreditCard%26%2310%3B%2B%20getWallet()%3A%20Wallet%26%2310%3B%2B%20chargeWallet(CreditCard%20card%2C%20double%20cost%2C%20String%20password)%3Avoid%26%2310%3B%2B%20showServices()%3A%20Vector%26lt%3BServices%26gt%3B%26%2310%3B%2B%20searchServices(String%20sub)%3A%20Vector%26lt%3BServices%26gt%3B%26%2310%3B%2B%20chooseService(Vector%26lt%3BService%26gt%3B%20Services%2C%20int%20index)%3A%20Service%26%2310%3B%2B%C2%A0%20showCustomers(Vector%26lt%3BCustomer%26gt%3Bcustomers)%3A%20void%26%2310%3B%2B%20setFormDataField(String%20key%2C%20String%20value)%26%2310%3B%2B%20getFields()%3A%20HashMap%26lt%3BString%2C%20String%5B%5D%26gt%3B%26%2310%3B%2BchargeWallet(CreditCard%20card%2C%20double%20cost%2C%20String%20password)%20%3A%20void%C2%A0%26%2310%3B%2BgetWallet()%3AWallet%26%2310%3B%2BshowAllDiscounts()%3Avoid%26%2310%3B%2B%C2%A0addTransaction(Transaction%20transaction)%3Avoid%26%2310%3B%2BaddRefund(Transaction%20transaction)%20%3A%20void%26%2310%3B%2BcheckNotifications()%3A%20void%26%2310%3B%2Brefund(Refund%20refund)%3A%20void%26%2310%3B%2BnotifyAdmins(Refund%20refund)%3Avoid%26%2310%3B%2BshowRefunds()%3Avoid%26%2310%3B%2B%C2%A0showRefundableTransactions()%3AVector%26lt%3BTransaction%26gt%3B%26%2310%3B%2BshowAllTransactions()%3Avoid%26%2310%3B%2Bupdate()%3Avoid%26%2310%3B%2B%20getDiscountData()%3A%20DiscountData%26%2310%3B%26%2310%3B%22%20style%3D%22text%3BstrokeColor%3Dnone%3BfillColor%3Dnone%3Balign%3Dleft%3BverticalAlign%3Dtop%3BspacingLeft%3D4%3BspacingRight%3D4%3Boverflow%3Dhidden%3Brotatable%3D0%3Bpoints%3D%5B%5B0%2C0.5%5D%2C%5B1%2C0.5%5D%5D%3BportConstraint%3Deastwest%3BfontColor%3D%2346495D%3Brounded%3D0%3BfontSize%3D12%3BstrokeWidth%3D3%3B%22%20vertex%3D%221%22%20parent%3D%228%22%3E%3CmxGeometry%20y%3D%2288%22%20width%3D%22410%22%20height%3D%22372%22%20as%3D%22geometry%22%2F%3E%3C%2FmxCell%3E%3CmxCell%20id%3D%2213%22%20value%3D%22%26lt%3Bspan%20style%3D%26quot%3Bcolor%3A%20rgb(70%2C%2073%2C%2093)%3B%20font-family%3A%20Helvetica%3B%20font-size%3A%2012px%3B%20font-style%3A%20normal%3B%20font-variant-ligatures%3A%20normal%3B%20font-variant-caps%3A%20normal%3B%20font-weight%3A%20400%3B%20letter-spacing%3A%20normal%3B%20orphans%3A%202%3B%20text-align%3A%20left%3B%20text-indent%3A%200px%3B%20text-transform%3A%20none%3B%20widows%3A%202%3B%20word-spacing%3A%200px%3B%20-webkit-text-stroke-width%3A%200px%3B%20background-color%3A%20rgb(255%2C%20255%2C%20255)%3B%20text-decoration-thickness%3A%20initial%3B%20text-decoration-style%3A%20initial%3B%20text-decoration-color%3A%20initial%3B%20float%3A%20none%3B%20display%3A%20inline%20!important%3B%26quot%3B%26gt%3B%26lt%3Bu%20style%3D%26quot%3Bfont-size%3A%2012px%3B%26quot%3B%26gt%3B%26amp%3Bnbsp%3B%2B%20getInstance()%3ACustomerController%26lt%3B%2Fu%26gt%3B%26lt%3B%2Fspan%26gt%3B%22%20style%3D%22text%3BwhiteSpace%3Dwrap%3Bhtml%3D1%3BfontSize%3D12%3BstrokeWidth%3D3%3B%22%20vertex%3D%221%22%20parent%3D%228%22%3E%3CmxGeometry%20y%3D%22460%22%20width%3D%22410%22%20height%3D%2230%22%20as%3D%22geometry%22%2F%3E%3C%2FmxCell%3E%3CmxCell%20id%3D%2214%22%20value%3D%22UserController%22%20style%3D%22swimlane%3BfontStyle%3D1%3Balign%3Dcenter%3BverticalAlign%3Dtop%3BchildLayout%3DstackLayout%3Bhorizontal%3D1%3BstartSize%3D26%3BhorizontalStack%3D0%3BresizeParent%3D1%3BresizeParentMax%3D0%3BresizeLast%3D0%3Bcollapsible%3D1%3BmarginBottom%3D0%3BfillColor%3D%23d5e8d4%3BstrokeColor%3D%2382b366%3BfontSize%3D12%3BstrokeWidth%3D3%3B%22%20vertex%3D%221%22%20parent%3D%221%22%3E%3CmxGeometry%20x%3D%22-1090%22%20y%3D%22770%22%20width%3D%22250%22%20height%3D%22330%22%20as%3D%22geometry%22%2F%3E%3C%2FmxCell%3E%3CmxCell%20id%3D%2215%22%20value%3D%22-%20userController%3A%20UserController%26%2310%3B-%20user%3A%20User%26%2310%3B%22%20style%3D%22text%3BstrokeColor%3Dnone%3BfillColor%3Dnone%3Balign%3Dleft%3BverticalAlign%3Dtop%3BspacingLeft%3D4%3BspacingRight%3D4%3Boverflow%3Dhidden%3Brotatable%3D0%3Bpoints%3D%5B%5B0%2C0.5%5D%2C%5B1%2C0.5%5D%5D%3BportConstraint%3Deastwest%3BfontSize%3D12%3BstrokeWidth%3D3%3B%22%20vertex%3D%221%22%20parent%3D%2214%22%3E%3CmxGeometry%20y%3D%2226%22%20width%3D%22250%22%20height%3D%2234%22%20as%3D%22geometry%22%2F%3E%3C%2FmxCell%3E%3CmxCell%20id%3D%2216%22%20value%3D%22%22%20style%3D%22line%3BstrokeWidth%3D3%3BfillColor%3Dnone%3Balign%3Dleft%3BverticalAlign%3Dmiddle%3BspacingTop%3D-1%3BspacingLeft%3D3%3BspacingRight%3D3%3Brotatable%3D0%3BlabelPosition%3Dright%3Bpoints%3D%5B%5D%3BportConstraint%3Deastwest%3BstrokeColor%3Dinherit%3BfontSize%3D12%3B%22%20vertex%3D%221%22%20parent%3D%2214%22%3E%3CmxGeometry%20y%3D%2260%22%20width%3D%22250%22%20height%3D%228%22%20as%3D%22geometry%22%2F%3E%3C%2FmxCell%3E%3CmxCell%20id%3D%2217%22%20value%3D%22-%20UserController()%26%2310%3B%2B%C2%A0addUser(User%20user)%20%3A%20void%26%2310%3B%2B%C2%A0checkExistEmail(User%20user)%20%3A%20boolean%26%2310%3B%2BcheckExistUsername(User%20user)%20%3A%20boolean%26%2310%3B%2BcheckPassword(User%20user)%20%3A%20User%26%2310%3B%2BsignIn(User%20user)%20%3A%20User%26%2310%3B%2B%C2%A0signUp(User%20user)%20%3A%20void%26%2310%3B%2BsignOut()%20%3A%20User%26%2310%3B%2B%20getUsername()%3A%20String%26%2310%3B%2BsetUser(User%20user)%3Avoid%26%2310%3B%2B%20isSigned()%3A%20boolean%26%2310%3B%2B%20getUser()%3A%20User%26%2310%3B%2B%20isAdmin()%3A%20boolean%26%2310%3B%2B%20isCustomer()%3A%20boolean%26%2310%3B%2B%20getCustomers()%3A%20Vector%26lt%3BCustomer%26gt%3B%26%2310%3B%22%20style%3D%22text%3BstrokeColor%3Dnone%3BfillColor%3Dnone%3Balign%3Dleft%3BverticalAlign%3Dtop%3BspacingLeft%3D4%3BspacingRight%3D4%3Boverflow%3Dhidden%3Brotatable%3D0%3Bpoints%3D%5B%5B0%2C0.5%5D%2C%5B1%2C0.5%5D%5D%3BportConstraint%3Deastwest%3BfontSize%3D12%3BstrokeWidth%3D3%3B%22%20vertex%3D%221%22%20parent%3D%2214%22%3E%3CmxGeometry%20y%3D%2268%22%20width%3D%22250%22%20height%3D%22222%22%20as%3D%22geometry%22%2F%3E%3C%2FmxCell%3E%3CmxCell%20id%3D%2218%22%20value%3D%22%26lt%3Bspan%20style%3D%26quot%3Bcolor%3A%20rgb(0%2C%200%2C%200)%3B%20font-family%3A%20Helvetica%3B%20font-size%3A%2012px%3B%20font-variant-ligatures%3A%20normal%3B%20font-variant-caps%3A%20normal%3B%20font-weight%3A%20400%3B%20letter-spacing%3A%20normal%3B%20orphans%3A%202%3B%20text-align%3A%20left%3B%20text-indent%3A%200px%3B%20text-transform%3A%20none%3B%20widows%3A%202%3B%20word-spacing%3A%200px%3B%20-webkit-text-stroke-width%3A%200px%3B%20background-color%3A%20rgb(255%2C%20255%2C%20255)%3B%20text-decoration-thickness%3A%20initial%3B%20text-decoration-style%3A%20initial%3B%20text-decoration-color%3A%20initial%3B%20float%3A%20none%3B%20display%3A%20inline%20!important%3B%26quot%3B%26gt%3B%26lt%3Bu%20style%3D%26quot%3Bfont-size%3A%2012px%3B%26quot%3B%26gt%3B%2B%20getInstance()%3A%20UserController%26lt%3B%2Fu%26gt%3B%26lt%3B%2Fspan%26gt%3B%22%20style%3D%22text%3BwhiteSpace%3Dwrap%3Bhtml%3D1%3BfontSize%3D12%3BstrokeWidth%3D3%3B%22%20vertex%3D%221%22%20parent%3D%2214%22%3E%3CmxGeometry%20y%3D%22290%22%20width%3D%22250%22%20height%3D%2240%22%20as%3D%22geometry%22%2F%3E%3C%2FmxCell%3E%3CmxCell%20id%3D%2219%22%20value%3D%22ServiceController%22%20style%3D%22swimlane%3BfontStyle%3D1%3Balign%3Dcenter%3BverticalAlign%3Dtop%3BchildLayout%3DstackLayout%3Bhorizontal%3D1%3BstartSize%3D26%3BhorizontalStack%3D0%3BresizeParent%3D1%3BresizeParentMax%3D0%3BresizeLast%3D0%3Bcollapsible%3D1%3BmarginBottom%3D0%3BfillColor%3D%23d5e8d4%3BstrokeColor%3D%2382b366%3BfontSize%3D12%3BstrokeWidth%3D3%3B%22%20vertex%3D%221%22%20parent%3D%221%22%3E%3CmxGeometry%20x%3D%22-760%22%20y%3D%22660%22%20width%3D%22360%22%20height%3D%22480%22%20as%3D%22geometry%22%2F%3E%3C%2FmxCell%3E%3CmxCell%20id%3D%2220%22%20value%3D%22-%20service%20%3A%20Service%22%20style%3D%22text%3BstrokeColor%3Dnone%3BfillColor%3Dnone%3Balign%3Dleft%3BverticalAlign%3Dtop%3BspacingLeft%3D4%3BspacingRight%3D4%3Boverflow%3Dhidden%3Brotatable%3D0%3Bpoints%3D%5B%5B0%2C0.5%5D%2C%5B1%2C0.5%5D%5D%3BportConstraint%3Deastwest%3BfontSize%3D12%3BstrokeWidth%3D3%3B%22%20vertex%3D%221%22%20parent%3D%2219%22%3E%3CmxGeometry%20y%3D%2226%22%20width%3D%22360%22%20height%3D%2224%22%20as%3D%22geometry%22%2F%3E%3C%2FmxCell%3E%3CmxCell%20id%3D%2221%22%20value%3D%22%26lt%3Bspan%20style%3D%26quot%3Bcolor%3A%20rgb(0%2C%200%2C%200)%3B%20font-family%3A%20Helvetica%3B%20font-size%3A%2012px%3B%20font-style%3A%20normal%3B%20font-variant-ligatures%3A%20normal%3B%20font-variant-caps%3A%20normal%3B%20font-weight%3A%20400%3B%20letter-spacing%3A%20normal%3B%20orphans%3A%202%3B%20text-align%3A%20left%3B%20text-indent%3A%200px%3B%20text-transform%3A%20none%3B%20widows%3A%202%3B%20word-spacing%3A%200px%3B%20-webkit-text-stroke-width%3A%200px%3B%20background-color%3A%20rgb(255%2C%20255%2C%20255)%3B%20text-decoration-thickness%3A%20initial%3B%20text-decoration-style%3A%20initial%3B%20text-decoration-color%3A%20initial%3B%20float%3A%20none%3B%20display%3A%20inline%20!important%3B%26quot%3B%26gt%3B%26lt%3Bu%20style%3D%26quot%3Bfont-size%3A%2012px%3B%26quot%3B%26gt%3B-%20serviceController%20%3A%20ServiceController%26lt%3B%2Fu%26gt%3B%26lt%3B%2Fspan%26gt%3B%22%20style%3D%22text%3BwhiteSpace%3Dwrap%3Bhtml%3D1%3BfontSize%3D12%3BstrokeWidth%3D3%3B%22%20vertex%3D%221%22%20parent%3D%2219%22%3E%3CmxGeometry%20y%3D%2250%22%20width%3D%22360%22%20height%3D%2240%22%20as%3D%22geometry%22%2F%3E%3C%2FmxCell%3E%3CmxCell%20id%3D%2222%22%20value%3D%22%22%20style%3D%22line%3BstrokeWidth%3D3%3BfillColor%3Dnone%3Balign%3Dleft%3BverticalAlign%3Dmiddle%3BspacingTop%3D-1%3BspacingLeft%3D3%3BspacingRight%3D3%3Brotatable%3D0%3BlabelPosition%3Dright%3Bpoints%3D%5B%5D%3BportConstraint%3Deastwest%3BstrokeColor%3Dinherit%3BfontSize%3D12%3B%22%20vertex%3D%221%22%20parent%3D%2219%22%3E%3CmxGeometry%20y%3D%2290%22%20width%3D%22360%22%20height%3D%228%22%20as%3D%22geometry%22%2F%3E%3C%2FmxCell%3E%3CmxCell%20id%3D%2223%22%20value%3D%22-ServiceController()%26%2310%3B%2BsetService(Service%20service)%20%3A%20void%26%2310%3B%2BaddService(Service%20service)%20%3A%20void%26%2310%3B%2BgetFormFields()%20%3A%20HashMap%26lt%3BString%2C%20String%5B%5D%26gt%3B%26%2310%3B%2BsetFormDataField(String%20key%2C%20String%20value)%20%3A%20void%26%2310%3B%2BaddPaymentMethod(Payment%20payment)%20%3A%20void%26%2310%3B%2BaddCompany(String%20name)%20%3A%20void%26%2310%3B%2BchooseCompany(int%20index)%20%3A%20void%26%2310%3B%2BchoosePayment(int%20index)%20%3A%20void%26%2310%3B%2BshowPayments()%20%3A%20void%26%2310%3B%2BsetCost(double%20cost)%20%3A%20void%26%2310%3B%2BgetCurrentPayment()%20%3A%20Payment%26%2310%3B%2BsetPassword(String%20password)%20%3A%20void%26%2310%3B%2BshowServices(Vector%26lt%3BService%26gt%3B%20services)%20%3A%20void%26%2310%3B%2BchooseService(Vector%26lt%3BService%26gt%3B%20services%2C%20int%20index)%20%3A%20Service%26%2310%3B%2BgetFormData()%20%3A%20FormData%26%2310%3B%2BgetCost()%20%3A%20double%26%2310%3B%2Bpay()%20%3A%20bool%26%2310%3B%2B%20showCategories()%3A%20void%26%2310%3B%2B%20chooseCategory(int%20index)%3A%20Service%26%2310%3B%2B%20setDiscountData()%3A%20void%26%2310%3B%2B%20useDiscounts()%3A%20Vector%26lt%3BDiscount%26gt%3B%26%2310%3B%2B%C2%A0applyDiscounts(double%20before%2C%20Vector%26lt%3BDiscount%26gt%3B%20discounts)%26%2310%3B%2B%20returnDiscounts(Vector%26lt%3BDiscount%26gt%3Bdiscounts)%3A%20void%26%2310%3B%2B%20showDiscounts(Vector%26lt%3BDiscount%26gt%3Bdiscounts)%3A%20void%26%2310%3B%26%2310%3B%26%2310%3B%26%2310%3B%26%2310%3B%22%20style%3D%22text%3BstrokeColor%3Dnone%3BfillColor%3Dnone%3Balign%3Dleft%3BverticalAlign%3Dtop%3BspacingLeft%3D4%3BspacingRight%3D4%3Boverflow%3Dhidden%3Brotatable%3D0%3Bpoints%3D%5B%5B0%2C0.5%5D%2C%5B1%2C0.5%5D%5D%3BportConstraint%3Deastwest%3BfontSize%3D12%3BstrokeWidth%3D3%3B%22%20vertex%3D%221%22%20parent%3D%2219%22%3E%3CmxGeometry%20y%3D%2298%22%20width%3D%22360%22%20height%3D%22352%22%20as%3D%22geometry%22%2F%3E%3C%2FmxCell%3E%3CmxCell%20id%3D%2224%22%20value%3D%22%26lt%3Bspan%20style%3D%26quot%3Bcolor%3A%20rgb(0%2C%200%2C%200)%3B%20font-family%3A%20Helvetica%3B%20font-size%3A%2012px%3B%20font-style%3A%20normal%3B%20font-variant-ligatures%3A%20normal%3B%20font-variant-caps%3A%20normal%3B%20font-weight%3A%20400%3B%20letter-spacing%3A%20normal%3B%20orphans%3A%202%3B%20text-align%3A%20left%3B%20text-indent%3A%200px%3B%20text-transform%3A%20none%3B%20widows%3A%202%3B%20word-spacing%3A%200px%3B%20-webkit-text-stroke-width%3A%200px%3B%20background-color%3A%20rgb(255%2C%20255%2C%20255)%3B%20text-decoration-thickness%3A%20initial%3B%20text-decoration-style%3A%20initial%3B%20text-decoration-color%3A%20initial%3B%20float%3A%20none%3B%20display%3A%20inline%20!important%3B%26quot%3B%26gt%3B%26lt%3Bu%20style%3D%26quot%3Bfont-size%3A%2012px%3B%26quot%3B%26gt%3B%2BgetInstance()%20%3A%20ServiceController%26lt%3B%2Fu%26gt%3B%26lt%3B%2Fspan%26gt%3B%22%20style%3D%22text%3BwhiteSpace%3Dwrap%3Bhtml%3D1%3BfontSize%3D12%3BstrokeWidth%3D3%3B%22%20vertex%3D%221%22%20parent%3D%2219%22%3E%3CmxGeometry%20y%3D%22450%22%20width%3D%22360%22%20height%3D%2230%22%20as%3D%22geometry%22%2F%3E%3C%2FmxCell%3E%3CmxCell%20id%3D%2225%22%20value%3D%22DiscountController%22%20style%3D%22swimlane%3BfontStyle%3D1%3Balign%3Dcenter%3BverticalAlign%3Dtop%3BchildLayout%3DstackLayout%3Bhorizontal%3D1%3BstartSize%3D26%3BhorizontalStack%3D0%3BresizeParent%3D1%3BresizeParentMax%3D0%3BresizeLast%3D0%3Bcollapsible%3D1%3BmarginBottom%3D0%3BfillColor%3D%23d5e8d4%3BstrokeColor%3D%2382b366%3BfontSize%3D12%3BstrokeWidth%3D3%3B%22%20vertex%3D%221%22%20parent%3D%221%22%3E%3CmxGeometry%20x%3D%22-390%22%20y%3D%22440%22%20width%3D%22360%22%20height%3D%22260%22%20as%3D%22geometry%22%2F%3E%3C%2FmxCell%3E%3CmxCell%20id%3D%2226%22%20value%3D%22-%20discount%20%3A%20Discount%26%2310%3B-%20discountData%3A%20DiscountData%22%20style%3D%22text%3BstrokeColor%3Dnone%3BfillColor%3Dnone%3Balign%3Dleft%3BverticalAlign%3Dtop%3BspacingLeft%3D4%3BspacingRight%3D4%3Boverflow%3Dhidden%3Brotatable%3D0%3Bpoints%3D%5B%5B0%2C0.5%5D%2C%5B1%2C0.5%5D%5D%3BportConstraint%3Deastwest%3BfontSize%3D12%3BstrokeWidth%3D3%3B%22%20vertex%3D%221%22%20parent%3D%2225%22%3E%3CmxGeometry%20y%3D%2226%22%20width%3D%22360%22%20height%3D%2234%22%20as%3D%22geometry%22%2F%3E%3C%2FmxCell%3E%3CmxCell%20id%3D%2227%22%20value%3D%22%26lt%3Bdiv%20style%3D%26quot%3Bfont-size%3A%2012px%3B%26quot%3B%26gt%3B%26lt%3Bspan%20style%3D%26quot%3Bfont-size%3A%2012px%3B%20background-color%3A%20initial%3B%26quot%3B%26gt%3B%26lt%3Bu%20style%3D%26quot%3Bfont-size%3A%2012px%3B%26quot%3B%26gt%3B-discountController%3ADiscountController%26lt%3B%2Fu%26gt%3B%26lt%3B%2Fspan%26gt%3B%26lt%3B%2Fdiv%26gt%3B%22%20style%3D%22text%3Bhtml%3D1%3Balign%3Dleft%3BverticalAlign%3Dmiddle%3Bresizable%3D0%3Bpoints%3D%5B%5D%3Bautosize%3D1%3BstrokeColor%3Dnone%3BfillColor%3Dnone%3BfontSize%3D12%3BstrokeWidth%3D3%3B%22%20vertex%3D%221%22%20parent%3D%2225%22%3E%3CmxGeometry%20y%3D%2260%22%20width%3D%22360%22%20height%3D%2230%22%20as%3D%22geometry%22%2F%3E%3C%2FmxCell%3E%3CmxCell%20id%3D%2228%22%20value%3D%22%22%20style%3D%22line%3BstrokeWidth%3D3%3BfillColor%3Dnone%3Balign%3Dleft%3BverticalAlign%3Dmiddle%3BspacingTop%3D-1%3BspacingLeft%3D3%3BspacingRight%3D3%3Brotatable%3D0%3BlabelPosition%3Dright%3Bpoints%3D%5B%5D%3BportConstraint%3Deastwest%3BstrokeColor%3Dinherit%3BfontSize%3D12%3B%22%20vertex%3D%221%22%20parent%3D%2225%22%3E%3CmxGeometry%20y%3D%2290%22%20width%3D%22360%22%20height%3D%228%22%20as%3D%22geometry%22%2F%3E%3C%2FmxCell%3E%3CmxCell%20id%3D%2229%22%20value%3D%22-DiscountController()%26%2310%3B%2BsetDiscount(Discount%20discount)%20%3A%20void%26%2310%3B%2BaddCategory(Service%20service)%20%3A%20void%26%2310%3B%2BaddSpecificDiscount(Discount%20discount%2C%20Service%20service)%20%3A%20void%26%2310%3B%2BaddOverallDiscount(Discount%20discount)%20%3A%20void%26%2310%3B%2BshowAll()%3A%20void%26%2310%3B%2BshowList()%20%3A%20void%26%2310%3B%2BuseDiscounts(Service%20service)%20%3A%20Vector%26lt%3BDiscount%26gt%3B%26%2310%3B%2B%20setDiscountData(DiscountData%20discountData)%3A%20void%22%20style%3D%22text%3BstrokeColor%3Dnone%3BfillColor%3Dnone%3Balign%3Dleft%3BverticalAlign%3Dtop%3BspacingLeft%3D4%3BspacingRight%3D4%3Boverflow%3Dhidden%3Brotatable%3D0%3Bpoints%3D%5B%5B0%2C0.5%5D%2C%5B1%2C0.5%5D%5D%3BportConstraint%3Deastwest%3BfontSize%3D12%3BstrokeWidth%3D3%3B%22%20vertex%3D%221%22%20parent%3D%2225%22%3E%3CmxGeometry%20y%3D%2298%22%20width%3D%22360%22%20height%3D%22132%22%20as%3D%22geometry%22%2F%3E%3C%2FmxCell%3E%3CmxCell%20id%3D%2230%22%20value%3D%22%26lt%3Bspan%20style%3D%26quot%3Bcolor%3A%20rgb(0%2C%200%2C%200)%3B%20font-family%3A%20Helvetica%3B%20font-size%3A%2012px%3B%20font-style%3A%20normal%3B%20font-variant-ligatures%3A%20normal%3B%20font-variant-caps%3A%20normal%3B%20font-weight%3A%20400%3B%20letter-spacing%3A%20normal%3B%20orphans%3A%202%3B%20text-align%3A%20left%3B%20text-indent%3A%200px%3B%20text-transform%3A%20none%3B%20widows%3A%202%3B%20word-spacing%3A%200px%3B%20-webkit-text-stroke-width%3A%200px%3B%20background-color%3A%20rgb(255%2C%20255%2C%20255)%3B%20text-decoration-thickness%3A%20initial%3B%20text-decoration-style%3A%20initial%3B%20text-decoration-color%3A%20initial%3B%20float%3A%20none%3B%20display%3A%20inline%20!important%3B%26quot%3B%26gt%3B%26lt%3Bu%20style%3D%26quot%3Bfont-size%3A%2012px%3B%26quot%3B%26gt%3B%26amp%3Bnbsp%3B%2BgetInstance()%20%3A%26amp%3Bnbsp%3BDiscountController%26lt%3B%2Fu%26gt%3B%26lt%3B%2Fspan%26gt%3B%22%20style%3D%22text%3BwhiteSpace%3Dwrap%3Bhtml%3D1%3BfontSize%3D12%3BstrokeWidth%3D3%3B%22%20vertex%3D%221%22%20parent%3D%2225%22%3E%3CmxGeometry%20y%3D%22230%22%20width%3D%22360%22%20height%3D%2230%22%20as%3D%22geometry%22%2F%3E%3C%2FmxCell%3E%3CmxCell%20id%3D%2231%22%20value%3D%22PaymentController%22%20style%3D%22swimlane%3BfontStyle%3D1%3Balign%3Dcenter%3BverticalAlign%3Dtop%3BchildLayout%3DstackLayout%3Bhorizontal%3D1%3BstartSize%3D26%3BhorizontalStack%3D0%3BresizeParent%3D1%3BresizeParentMax%3D0%3BresizeLast%3D0%3Bcollapsible%3D1%3BmarginBottom%3D0%3BfillColor%3D%23d5e8d4%3BstrokeColor%3D%2382b366%3BfontSize%3D12%3BstrokeWidth%3D3%3B%22%20vertex%3D%221%22%20parent%3D%221%22%3E%3CmxGeometry%20x%3D%22-1470%22%20y%3D%22630%22%20width%3D%22300%22%20height%3D%22230%22%20as%3D%22geometry%22%3E%3CmxRectangle%20x%3D%22-630%22%20y%3D%221450%22%20width%3D%22150%22%20height%3D%2230%22%20as%3D%22alternateBounds%22%2F%3E%3C%2FmxGeometry%3E%3C%2FmxCell%3E%3CmxCell%20id%3D%2232%22%20value%3D%22-%20payment%3A%20Payment%22%20style%3D%22text%3BstrokeColor%3Dnone%3BfillColor%3Dnone%3Balign%3Dleft%3BverticalAlign%3Dtop%3BspacingLeft%3D4%3BspacingRight%3D4%3Boverflow%3Dhidden%3Brotatable%3D0%3Bpoints%3D%5B%5B0%2C0.5%5D%2C%5B1%2C0.5%5D%5D%3BportConstraint%3Deastwest%3BfontSize%3D12%3BstrokeWidth%3D3%3B%22%20vertex%3D%221%22%20parent%3D%2231%22%3E%3CmxGeometry%20y%3D%2226%22%20width%3D%22300%22%20height%3D%2224%22%20as%3D%22geometry%22%2F%3E%3C%2FmxCell%3E%3CmxCell%20id%3D%2233%22%20value%3D%22%26lt%3Bdiv%20style%3D%26quot%3Bfont-size%3A%2012px%3B%26quot%3B%26gt%3B%26lt%3Bspan%20style%3D%26quot%3Bfont-size%3A%2012px%3B%20background-color%3A%20initial%3B%26quot%3B%26gt%3B%26lt%3Bu%20style%3D%26quot%3Bfont-size%3A%2012px%3B%26quot%3B%26gt%3B-%20paymentController%3A%20PaymentController%26lt%3B%2Fu%26gt%3B%26lt%3B%2Fspan%26gt%3B%26lt%3B%2Fdiv%26gt%3B%22%20style%3D%22text%3Bhtml%3D1%3Balign%3Dleft%3BverticalAlign%3Dmiddle%3Bresizable%3D0%3Bpoints%3D%5B%5D%3Bautosize%3D1%3BstrokeColor%3Dnone%3BfillColor%3Dnone%3BfontSize%3D12%3BstrokeWidth%3D3%3B%22%20vertex%3D%221%22%20parent%3D%2231%22%3E%3CmxGeometry%20y%3D%2250%22%20width%3D%22300%22%20height%3D%2230%22%20as%3D%22geometry%22%2F%3E%3C%2FmxCell%3E%3CmxCell%20id%3D%2234%22%20value%3D%22%22%20style%3D%22line%3BstrokeWidth%3D3%3BfillColor%3Dnone%3Balign%3Dleft%3BverticalAlign%3Dmiddle%3BspacingTop%3D-1%3BspacingLeft%3D3%3BspacingRight%3D3%3Brotatable%3D0%3BlabelPosition%3Dright%3Bpoints%3D%5B%5D%3BportConstraint%3Deastwest%3BstrokeColor%3Dinherit%3BfontSize%3D12%3B%22%20vertex%3D%221%22%20parent%3D%2231%22%3E%3CmxGeometry%20y%3D%2280%22%20width%3D%22300%22%20height%3D%228%22%20as%3D%22geometry%22%2F%3E%3C%2FmxCell%3E%3CmxCell%20id%3D%2235%22%20value%3D%22-%20PaymentController()%26%2310%3B%2B%20setPayment(Payment%20payment)%3A%20void%26%2310%3B%2B%20addPayment(Payment%20payment)%3A%20void%26%2310%3B%2B%20setCost(double%20cost)%3A%20void%26%2310%3B%2B%20setPassword(String%20password)%3A%20void%26%2310%3B%2B%20showPayments(Vector%26lt%3BPayment%26gt%3Bpayments)%3A%20void%26%2310%3B%2B%20getPayment(int%20index)%3A%20Payment%22%20style%3D%22text%3BstrokeColor%3Dnone%3BfillColor%3Dnone%3Balign%3Dleft%3BverticalAlign%3Dtop%3BspacingLeft%3D4%3BspacingRight%3D4%3Boverflow%3Dhidden%3Brotatable%3D0%3Bpoints%3D%5B%5B0%2C0.5%5D%2C%5B1%2C0.5%5D%5D%3BportConstraint%3Deastwest%3BfontSize%3D12%3BstrokeWidth%3D3%3B%22%20vertex%3D%221%22%20parent%3D%2231%22%3E%3CmxGeometry%20y%3D%2288%22%20width%3D%22300%22%20height%3D%22112%22%20as%3D%22geometry%22%2F%3E%3C%2FmxCell%3E%3CmxCell%20id%3D%2236%22%20value%3D%22%26lt%3Bspan%20style%3D%26quot%3Bcolor%3A%20rgb(0%2C%200%2C%200)%3B%20font-family%3A%20Helvetica%3B%20font-size%3A%2012px%3B%20font-style%3A%20normal%3B%20font-variant-ligatures%3A%20normal%3B%20font-variant-caps%3A%20normal%3B%20font-weight%3A%20400%3B%20letter-spacing%3A%20normal%3B%20orphans%3A%202%3B%20text-align%3A%20left%3B%20text-indent%3A%200px%3B%20text-transform%3A%20none%3B%20widows%3A%202%3B%20word-spacing%3A%200px%3B%20-webkit-text-stroke-width%3A%200px%3B%20background-color%3A%20rgb(255%2C%20255%2C%20255)%3B%20text-decoration-thickness%3A%20initial%3B%20text-decoration-style%3A%20initial%3B%20text-decoration-color%3A%20initial%3B%20float%3A%20none%3B%20display%3A%20inline%20!important%3B%26quot%3B%26gt%3B%26lt%3Bu%20style%3D%26quot%3Bfont-size%3A%2012px%3B%26quot%3B%26gt%3B%26amp%3Bnbsp%3B%2B%20getInstance()%3A%20PaymentController%26lt%3B%2Fu%26gt%3B%26lt%3B%2Fspan%26gt%3B%22%20style%3D%22text%3BwhiteSpace%3Dwrap%3Bhtml%3D1%3BfontSize%3D12%3BstrokeWidth%3D3%3B%22%20vertex%3D%221%22%20parent%3D%2231%22%3E%3CmxGeometry%20y%3D%22200%22%20width%3D%22300%22%20height%3D%2230%22%20as%3D%22geometry%22%2F%3E%3C%2FmxCell%3E%3CmxCell%20id%3D%2237%22%20value%3D%22FormController%22%20style%3D%22swimlane%3BfontStyle%3D1%3Balign%3Dcenter%3BverticalAlign%3Dtop%3BchildLayout%3DstackLayout%3Bhorizontal%3D1%3BstartSize%3D26%3BhorizontalStack%3D0%3BresizeParent%3D1%3BresizeParentMax%3D0%3BresizeLast%3D0%3Bcollapsible%3D1%3BmarginBottom%3D0%3BfillColor%3D%23d5e8d4%3BstrokeColor%3D%2382b366%3BfontSize%3D12%3BstrokeWidth%3D3%3B%22%20vertex%3D%221%22%20parent%3D%221%22%3E%3CmxGeometry%20x%3D%22-1110%22%20y%3D%22270%22%20width%3D%22240%22%20height%3D%22180%22%20as%3D%22geometry%22%3E%3CmxRectangle%20x%3D%22-680%22%20y%3D%221410%22%20width%3D%22130%22%20height%3D%2230%22%20as%3D%22alternateBounds%22%2F%3E%3C%2FmxGeometry%3E%3C%2FmxCell%3E%3CmxCell%20id%3D%2238%22%20value%3D%22-%20form%20%3A%20Form%22%20style%3D%22text%3BstrokeColor%3Dnone%3BfillColor%3Dnone%3Balign%3Dleft%3BverticalAlign%3Dtop%3BspacingLeft%3D4%3BspacingRight%3D4%3Boverflow%3Dhidden%3Brotatable%3D0%3Bpoints%3D%5B%5B0%2C0.5%5D%2C%5B1%2C0.5%5D%5D%3BportConstraint%3Deastwest%3BfontSize%3D12%3BstrokeWidth%3D3%3B%22%20vertex%3D%221%22%20parent%3D%2237%22%3E%3CmxGeometry%20y%3D%2226%22%20width%3D%22240%22%20height%3D%2224%22%20as%3D%22geometry%22%2F%3E%3C%2FmxCell%3E%3CmxCell%20id%3D%2239%22%20value%3D%22%26lt%3Bspan%20style%3D%26quot%3Bfont-size%3A%2012px%3B%26quot%3B%26gt%3B%26lt%3Bu%20style%3D%26quot%3Bfont-size%3A%2012px%3B%26quot%3B%26gt%3B-%20formController%3A%20FormController%26lt%3B%2Fu%26gt%3B%26lt%3B%2Fspan%26gt%3B%22%20style%3D%22text%3Bhtml%3D1%3Balign%3Dleft%3BverticalAlign%3Dmiddle%3Bresizable%3D0%3Bpoints%3D%5B%5D%3Bautosize%3D1%3BstrokeColor%3Dnone%3BfillColor%3Dnone%3BfontSize%3D12%3BstrokeWidth%3D3%3B%22%20vertex%3D%221%22%20parent%3D%2237%22%3E%3CmxGeometry%20y%3D%2250%22%20width%3D%22240%22%20height%3D%2230%22%20as%3D%22geometry%22%2F%3E%3C%2FmxCell%3E%3CmxCell%20id%3D%2240%22%20value%3D%22%22%20style%3D%22line%3BstrokeWidth%3D3%3BfillColor%3Dnone%3Balign%3Dleft%3BverticalAlign%3Dmiddle%3BspacingTop%3D-1%3BspacingLeft%3D3%3BspacingRight%3D3%3Brotatable%3D0%3BlabelPosition%3Dright%3Bpoints%3D%5B%5D%3BportConstraint%3Deastwest%3BstrokeColor%3Dinherit%3BfontSize%3D12%3B%22%20vertex%3D%221%22%20parent%3D%2237%22%3E%3CmxGeometry%20y%3D%2280%22%20width%3D%22240%22%20height%3D%228%22%20as%3D%22geometry%22%2F%3E%3C%2FmxCell%3E%3CmxCell%20id%3D%2241%22%20value%3D%22-%20FormController()%26%2310%3B%2B%20setForm(Form%20form)%3A%20void%26%2310%3B%2B%20getFields()%3A%20HashMap%26lt%3BString%2C%20String%5B%5D%26gt%3B%26%2310%3B%2B%20addField(String%20key%2C%20String%5B%5D%20items)%3A%20void%22%20style%3D%22text%3BstrokeColor%3Dnone%3BfillColor%3Dnone%3Balign%3Dleft%3BverticalAlign%3Dtop%3BspacingLeft%3D4%3BspacingRight%3D4%3Boverflow%3Dhidden%3Brotatable%3D0%3Bpoints%3D%5B%5B0%2C0.5%5D%2C%5B1%2C0.5%5D%5D%3BportConstraint%3Deastwest%3BfontSize%3D12%3BstrokeWidth%3D3%3B%22%20vertex%3D%221%22%20parent%3D%2237%22%3E%3CmxGeometry%20y%3D%2288%22%20width%3D%22240%22%20height%3D%2262%22%20as%3D%22geometry%22%2F%3E%3C%2FmxCell%3E%3CmxCell%20id%3D%2242%22%20value%3D%22%26lt%3Bspan%20style%3D%26quot%3Bcolor%3A%20rgb(0%2C%200%2C%200)%3B%20font-family%3A%20Helvetica%3B%20font-size%3A%2012px%3B%20font-style%3A%20normal%3B%20font-variant-ligatures%3A%20normal%3B%20font-variant-caps%3A%20normal%3B%20font-weight%3A%20400%3B%20letter-spacing%3A%20normal%3B%20orphans%3A%202%3B%20text-align%3A%20left%3B%20text-indent%3A%200px%3B%20text-transform%3A%20none%3B%20widows%3A%202%3B%20word-spacing%3A%200px%3B%20-webkit-text-stroke-width%3A%200px%3B%20background-color%3A%20rgb(255%2C%20255%2C%20255)%3B%20text-decoration-thickness%3A%20initial%3B%20text-decoration-style%3A%20initial%3B%20text-decoration-color%3A%20initial%3B%20float%3A%20none%3B%20display%3A%20inline%20!important%3B%26quot%3B%26gt%3B%26lt%3Bu%20style%3D%26quot%3Bfont-size%3A%2012px%3B%26quot%3B%26gt%3B%26amp%3Bnbsp%3B%2B%20getInstance()%3A%20FormController%26lt%3B%2Fu%26gt%3B%26lt%3B%2Fspan%26gt%3B%22%20style%3D%22text%3BwhiteSpace%3Dwrap%3Bhtml%3D1%3BfontSize%3D12%3BstrokeWidth%3D3%3B%22%20vertex%3D%221%22%20parent%3D%2237%22%3E%3CmxGeometry%20y%3D%22150%22%20width%3D%22240%22%20height%3D%2230%22%20as%3D%22geometry%22%2F%3E%3C%2FmxCell%3E%3CmxCell%20id%3D%2243%22%20value%3D%22FormDataController%22%20style%3D%22swimlane%3BfontStyle%3D1%3Balign%3Dcenter%3BverticalAlign%3Dtop%3BchildLayout%3DstackLayout%3Bhorizontal%3D1%3BstartSize%3D26%3BhorizontalStack%3D0%3BresizeParent%3D1%3BresizeParentMax%3D0%3BresizeLast%3D0%3Bcollapsible%3D1%3BmarginBottom%3D0%3BfillColor%3D%23d5e8d4%3BstrokeColor%3D%2382b366%3BfontSize%3D12%3BstrokeWidth%3D3%3B%22%20vertex%3D%221%22%20parent%3D%221%22%3E%3CmxGeometry%20x%3D%22-1390%22%20y%3D%22390%22%20width%3D%22280%22%20height%3D%22190%22%20as%3D%22geometry%22%3E%3CmxRectangle%20x%3D%22-430%22%20y%3D%221410%22%20width%3D%22150%22%20height%3D%2230%22%20as%3D%22alternateBounds%22%2F%3E%3C%2FmxGeometry%3E%3C%2FmxCell%3E%3CmxCell%20id%3D%2244%22%20value%3D%22-%20formData%3A%20FormData%22%20style%3D%22text%3BstrokeColor%3Dnone%3BfillColor%3Dnone%3Balign%3Dleft%3BverticalAlign%3Dtop%3BspacingLeft%3D4%3BspacingRight%3D4%3Boverflow%3Dhidden%3Brotatable%3D0%3Bpoints%3D%5B%5B0%2C0.5%5D%2C%5B1%2C0.5%5D%5D%3BportConstraint%3Deastwest%3BfontSize%3D12%3BstrokeWidth%3D3%3B%22%20vertex%3D%221%22%20parent%3D%2243%22%3E%3CmxGeometry%20y%3D%2226%22%20width%3D%22280%22%20height%3D%2224%22%20as%3D%22geometry%22%2F%3E%3C%2FmxCell%3E%3CmxCell%20id%3D%2245%22%20value%3D%22%26lt%3Bdiv%20style%3D%26quot%3Bfont-size%3A%2012px%3B%26quot%3B%26gt%3B%26lt%3Bu%20style%3D%26quot%3Bfont-size%3A%2012px%3B%20background-color%3A%20initial%3B%26quot%3B%26gt%3B-%20formDataController%3A%20FormDataController%26lt%3B%2Fu%26gt%3B%26lt%3B%2Fdiv%26gt%3B%22%20style%3D%22text%3Bhtml%3D1%3Balign%3Dleft%3BverticalAlign%3Dmiddle%3Bresizable%3D0%3Bpoints%3D%5B%5D%3Bautosize%3D1%3BstrokeColor%3Dnone%3BfillColor%3Dnone%3BfontSize%3D12%3BstrokeWidth%3D3%3B%22%20vertex%3D%221%22%20parent%3D%2243%22%3E%3CmxGeometry%20y%3D%2250%22%20width%3D%22280%22%20height%3D%2230%22%20as%3D%22geometry%22%2F%3E%3C%2FmxCell%3E%3CmxCell%20id%3D%2246%22%20value%3D%22%22%20style%3D%22line%3BstrokeWidth%3D3%3BfillColor%3Dnone%3Balign%3Dleft%3BverticalAlign%3Dmiddle%3BspacingTop%3D-1%3BspacingLeft%3D3%3BspacingRight%3D3%3Brotatable%3D0%3BlabelPosition%3Dright%3Bpoints%3D%5B%5D%3BportConstraint%3Deastwest%3BstrokeColor%3Dinherit%3BfontSize%3D12%3B%22%20vertex%3D%221%22%20parent%3D%2243%22%3E%3CmxGeometry%20y%3D%2280%22%20width%3D%22280%22%20height%3D%228%22%20as%3D%22geometry%22%2F%3E%3C%2FmxCell%3E%3CmxCell%20id%3D%2247%22%20value%3D%22-FormDataController()%26%2310%3B%2B%20setFormData(FormData%20formData)%3A%20void%26%2310%3B%2B%20setData(String%20key%2C%20String%20value)%3A%20void%26%2310%3B%2B%20showFormData()%3A%20void%26%2310%3B%2B%20getData(String%20key)%3A%20String%22%20style%3D%22text%3BstrokeColor%3Dnone%3BfillColor%3Dnone%3Balign%3Dleft%3BverticalAlign%3Dtop%3BspacingLeft%3D4%3BspacingRight%3D4%3Boverflow%3Dhidden%3Brotatable%3D0%3Bpoints%3D%5B%5B0%2C0.5%5D%2C%5B1%2C0.5%5D%5D%3BportConstraint%3Deastwest%3BfontSize%3D12%3BstrokeWidth%3D3%3B%22%20vertex%3D%221%22%20parent%3D%2243%22%3E%3CmxGeometry%20y%3D%2288%22%20width%3D%22280%22%20height%3D%2272%22%20as%3D%22geometry%22%2F%3E%3C%2FmxCell%3E%3CmxCell%20id%3D%2248%22%20value%3D%22%26lt%3Bspan%20style%3D%26quot%3Bcolor%3A%20rgb(0%2C%200%2C%200)%3B%20font-family%3A%20Helvetica%3B%20font-size%3A%2012px%3B%20font-style%3A%20normal%3B%20font-variant-ligatures%3A%20normal%3B%20font-variant-caps%3A%20normal%3B%20font-weight%3A%20400%3B%20letter-spacing%3A%20normal%3B%20orphans%3A%202%3B%20text-align%3A%20left%3B%20text-indent%3A%200px%3B%20text-transform%3A%20none%3B%20widows%3A%202%3B%20word-spacing%3A%200px%3B%20-webkit-text-stroke-width%3A%200px%3B%20background-color%3A%20rgb(255%2C%20255%2C%20255)%3B%20text-decoration-thickness%3A%20initial%3B%20text-decoration-style%3A%20initial%3B%20text-decoration-color%3A%20initial%3B%20float%3A%20none%3B%20display%3A%20inline%20!important%3B%26quot%3B%26gt%3B%26lt%3Bu%20style%3D%26quot%3Bfont-size%3A%2012px%3B%26quot%3B%26gt%3B%26amp%3Bnbsp%3B%2B%20getInstance()%3A%20FormDataController%26lt%3B%2Fu%26gt%3B%26lt%3B%2Fspan%26gt%3B%22%20style%3D%22text%3BwhiteSpace%3Dwrap%3Bhtml%3D1%3BfontSize%3D12%3BstrokeWidth%3D3%3B%22%20vertex%3D%221%22%20parent%3D%2243%22%3E%3CmxGeometry%20y%3D%22160%22%20width%3D%22280%22%20height%3D%2230%22%20as%3D%22geometry%22%2F%3E%3C%2FmxCell%3E%3CmxCell%20id%3D%2249%22%20value%3D%22TransactionController%22%20style%3D%22swimlane%3BfontStyle%3D1%3Balign%3Dcenter%3BverticalAlign%3Dtop%3BchildLayout%3DstackLayout%3Bhorizontal%3D1%3BstartSize%3D26%3BhorizontalStack%3D0%3BresizeParent%3D1%3BresizeParentMax%3D0%3BresizeLast%3D0%3Bcollapsible%3D1%3BmarginBottom%3D0%3BfillColor%3D%23d5e8d4%3BstrokeColor%3D%2382b366%3BfontSize%3D12%3BstrokeWidth%3D3%3B%22%20vertex%3D%221%22%20parent%3D%221%22%3E%3CmxGeometry%20x%3D%22-650%22%20y%3D%22400%22%20width%3D%22260%22%20height%3D%22160%22%20as%3D%22geometry%22%2F%3E%3C%2FmxCell%3E%3CmxCell%20id%3D%2250%22%20value%3D%22-%20transactionController%3A%20TransactionController%26%2310%3B-%20transaction%3A%20Transaction%22%20style%3D%22text%3BstrokeColor%3Dnone%3BfillColor%3Dnone%3Balign%3Dleft%3BverticalAlign%3Dtop%3BspacingLeft%3D4%3BspacingRight%3D4%3Boverflow%3Dhidden%3Brotatable%3D0%3Bpoints%3D%5B%5B0%2C0.5%5D%2C%5B1%2C0.5%5D%5D%3BportConstraint%3Deastwest%3BfontSize%3D12%3BstrokeWidth%3D3%3B%22%20vertex%3D%221%22%20parent%3D%2249%22%3E%3CmxGeometry%20y%3D%2226%22%20width%3D%22260%22%20height%3D%2244%22%20as%3D%22geometry%22%2F%3E%3C%2FmxCell%3E%3CmxCell%20id%3D%2251%22%20value%3D%22%22%20style%3D%22line%3BstrokeWidth%3D3%3BfillColor%3Dnone%3Balign%3Dleft%3BverticalAlign%3Dmiddle%3BspacingTop%3D-1%3BspacingLeft%3D3%3BspacingRight%3D3%3Brotatable%3D0%3BlabelPosition%3Dright%3Bpoints%3D%5B%5D%3BportConstraint%3Deastwest%3BstrokeColor%3Dinherit%3BfontSize%3D12%3B%22%20vertex%3D%221%22%20parent%3D%2249%22%3E%3CmxGeometry%20y%3D%2270%22%20width%3D%22260%22%20height%3D%228%22%20as%3D%22geometry%22%2F%3E%3C%2FmxCell%3E%3CmxCell%20id%3D%2252%22%20value%3D%22-TransactionController()%26%2310%3B%2B%20setTransaction(Transaction%20transaction)%26%2310%3B%22%20style%3D%22text%3BstrokeColor%3Dnone%3BfillColor%3Dnone%3Balign%3Dleft%3BverticalAlign%3Dtop%3BspacingLeft%3D4%3BspacingRight%3D4%3Boverflow%3Dhidden%3Brotatable%3D0%3Bpoints%3D%5B%5B0%2C0.5%5D%2C%5B1%2C0.5%5D%5D%3BportConstraint%3Deastwest%3BfontSize%3D12%3BstrokeWidth%3D3%3B%22%20vertex%3D%221%22%20parent%3D%2249%22%3E%3CmxGeometry%20y%3D%2278%22%20width%3D%22260%22%20height%3D%2242%22%20as%3D%22geometry%22%2F%3E%3C%2FmxCell%3E%3CmxCell%20id%3D%2253%22%20value%3D%22%26lt%3Bspan%20style%3D%26quot%3Bcolor%3A%20rgb(0%2C%200%2C%200)%3B%20font-family%3A%20Helvetica%3B%20font-size%3A%2012px%3B%20font-style%3A%20normal%3B%20font-variant-ligatures%3A%20normal%3B%20font-variant-caps%3A%20normal%3B%20font-weight%3A%20400%3B%20letter-spacing%3A%20normal%3B%20orphans%3A%202%3B%20text-align%3A%20left%3B%20text-indent%3A%200px%3B%20text-transform%3A%20none%3B%20widows%3A%202%3B%20word-spacing%3A%200px%3B%20-webkit-text-stroke-width%3A%200px%3B%20background-color%3A%20rgb(255%2C%20255%2C%20255)%3B%20text-decoration-thickness%3A%20initial%3B%20text-decoration-style%3A%20initial%3B%20text-decoration-color%3A%20initial%3B%20float%3A%20none%3B%20display%3A%20inline%20!important%3B%26quot%3B%26gt%3B%26lt%3Bu%20style%3D%26quot%3Bfont-size%3A%2012px%3B%26quot%3B%26gt%3B%26amp%3Bnbsp%3B%2BgetInstance()%3A%20TransactionController%26lt%3B%2Fu%26gt%3B%26lt%3B%2Fspan%26gt%3B%22%20style%3D%22text%3BwhiteSpace%3Dwrap%3Bhtml%3D1%3BfontSize%3D12%3BstrokeWidth%3D3%3B%22%20vertex%3D%221%22%20parent%3D%2249%22%3E%3CmxGeometry%20y%3D%22120%22%20width%3D%22260%22%20height%3D%2240%22%20as%3D%22geometry%22%2F%3E%3C%2FmxCell%3E%3CmxCell%20id%3D%2254%22%20value%3D%22RefundController%22%20style%3D%22swimlane%3BfontStyle%3D1%3Balign%3Dcenter%3BverticalAlign%3Dtop%3BchildLayout%3DstackLayout%3Bhorizontal%3D1%3BstartSize%3D26%3BhorizontalStack%3D0%3BresizeParent%3D1%3BresizeParentMax%3D0%3BresizeLast%3D0%3Bcollapsible%3D1%3BmarginBottom%3D0%3BfillColor%3D%23d5e8d4%3BstrokeColor%3D%2382b366%3B%22%20vertex%3D%221%22%20parent%3D%221%22%3E%3CmxGeometry%20x%3D%22-620%22%20y%3D%22140%22%20width%3D%22220%22%20height%3D%22200%22%20as%3D%22geometry%22%2F%3E%3C%2FmxCell%3E%3CmxCell%20id%3D%2255%22%20value%3D%22-%C2%A0%20refundController%3A%20RefundController%26%2310%3B-%20refund%3A%20Refund%22%20style%3D%22text%3BstrokeColor%3Dnone%3BfillColor%3Dnone%3Balign%3Dleft%3BverticalAlign%3Dtop%3BspacingLeft%3D4%3BspacingRight%3D4%3Boverflow%3Dhidden%3Brotatable%3D0%3Bpoints%3D%5B%5B0%2C0.5%5D%2C%5B1%2C0.5%5D%5D%3BportConstraint%3Deastwest%3B%22%20vertex%3D%221%22%20parent%3D%2254%22%3E%3CmxGeometry%20y%3D%2226%22%20width%3D%22220%22%20height%3D%2234%22%20as%3D%22geometry%22%2F%3E%3C%2FmxCell%3E%3CmxCell%20id%3D%2256%22%20value%3D%22%22%20style%3D%22line%3BstrokeWidth%3D1%3BfillColor%3Dnone%3Balign%3Dleft%3BverticalAlign%3Dmiddle%3BspacingTop%3D-1%3BspacingLeft%3D3%3BspacingRight%3D3%3Brotatable%3D0%3BlabelPosition%3Dright%3Bpoints%3D%5B%5D%3BportConstraint%3Deastwest%3BstrokeColor%3Dinherit%3B%22%20vertex%3D%221%22%20parent%3D%2254%22%3E%3CmxGeometry%20y%3D%2260%22%20width%3D%22220%22%20height%3D%228%22%20as%3D%22geometry%22%2F%3E%3C%2FmxCell%3E%3CmxCell%20id%3D%2257%22%20value%3D%22-%20RefundController()%26%2310%3B%2B%20getRefundState()%3A%20RefundState%26%2310%3B%2BacceptRefund()%20%3A%20void%26%2310%3B%2BsetRefund(Refund%20refund)%20%3A%20void%26%2310%3B%2BrejectRefund()%20%3A%20void%26%2310%3B%2B%20getCuntomer()%3A%20Customer%26%2310%3B%22%20style%3D%22text%3BstrokeColor%3Dnone%3BfillColor%3Dnone%3Balign%3Dleft%3BverticalAlign%3Dtop%3BspacingLeft%3D4%3BspacingRight%3D4%3Boverflow%3Dhidden%3Brotatable%3D0%3Bpoints%3D%5B%5B0%2C0.5%5D%2C%5B1%2C0.5%5D%5D%3BportConstraint%3Deastwest%3B%22%20vertex%3D%221%22%20parent%3D%2254%22%3E%3CmxGeometry%20y%3D%2268%22%20width%3D%22220%22%20height%3D%2292%22%20as%3D%22geometry%22%2F%3E%3C%2FmxCell%3E%3CmxCell%20id%3D%2258%22%20value%3D%22%26lt%3Bspan%20style%3D%26quot%3Bcolor%3A%20rgb(0%2C%200%2C%200)%3B%20font-family%3A%20Helvetica%3B%20font-size%3A%2012px%3B%20font-style%3A%20normal%3B%20font-variant-ligatures%3A%20normal%3B%20font-variant-caps%3A%20normal%3B%20font-weight%3A%20400%3B%20letter-spacing%3A%20normal%3B%20orphans%3A%202%3B%20text-align%3A%20left%3B%20text-indent%3A%200px%3B%20text-transform%3A%20none%3B%20widows%3A%202%3B%20word-spacing%3A%200px%3B%20-webkit-text-stroke-width%3A%200px%3B%20background-color%3A%20rgb(255%2C%20255%2C%20255)%3B%20text-decoration-thickness%3A%20initial%3B%20text-decoration-style%3A%20initial%3B%20text-decoration-color%3A%20initial%3B%20float%3A%20none%3B%20display%3A%20inline%20!important%3B%26quot%3B%26gt%3B%26lt%3Bu%20style%3D%26quot%3Bfont-size%3A%2012px%3B%26quot%3B%26gt%3B%26amp%3Bnbsp%3B%2BgetInstance()%3A%20RefundController%26lt%3B%2Fu%26gt%3B%26lt%3B%2Fspan%26gt%3B%22%20style%3D%22text%3BwhiteSpace%3Dwrap%3Bhtml%3D1%3BfontSize%3D12%3BstrokeWidth%3D3%3B%22%20vertex%3D%221%22%20parent%3D%2254%22%3E%3CmxGeometry%20y%3D%22160%22%20width%3D%22220%22%20height%3D%2240%22%20as%3D%22geometry%22%2F%3E%3C%2FmxCell%3E%3C%2Froot%3E%3C%2FmxGraphModel%3E&lt;/span&gt;" style="shape=folder;fontStyle=1;spacingTop=10;tabWidth=90;tabHeight=30;tabPosition=left;html=1;fontSize=15;" vertex="1" parent="1">
          <mxGeometry x="30" y="930" width="1130" height="640" as="geometry" />
        </mxCell>
        <mxCell id="vxT1wsiQC9Di06yWpwA8-1" value="" style="shape=folder;fontStyle=1;spacingTop=10;tabWidth=90;tabHeight=30;tabPosition=left;html=1;" vertex="1" parent="1">
          <mxGeometry x="40" y="10" width="440" height="350" as="geometry" />
        </mxCell>
        <mxCell id="vxT1wsiQC9Di06yWpwA8-18" value="&lt;b&gt;&lt;font style=&quot;font-size: 15px;&quot;&gt;API&lt;/font&gt;&lt;/b&gt;" style="text;html=1;align=center;verticalAlign=middle;resizable=0;points=[];autosize=1;strokeColor=none;fillColor=none;" vertex="1" parent="1">
          <mxGeometry x="65" y="10" width="50" height="30" as="geometry" />
        </mxCell>
        <mxCell id="vxT1wsiQC9Di06yWpwA8-19" value="" style="shape=folder;fontStyle=1;spacingTop=10;tabWidth=90;tabHeight=30;tabPosition=left;html=1;" vertex="1" parent="1">
          <mxGeometry x="570" y="10" width="350" height="270" as="geometry" />
        </mxCell>
        <mxCell id="vxT1wsiQC9Di06yWpwA8-28" value="&lt;b&gt;Balance&lt;/b&gt;" style="text;html=1;align=center;verticalAlign=middle;resizable=0;points=[];autosize=1;strokeColor=none;fillColor=none;fontSize=15;" vertex="1" parent="1">
          <mxGeometry x="570" y="10" width="80" height="30" as="geometry" />
        </mxCell>
        <mxCell id="vxT1wsiQC9Di06yWpwA8-29" value="&lt;span style=&quot;color: rgba(0, 0, 0, 0); font-family: monospace; font-size: 0px; font-weight: 400; text-align: start;&quot;&gt;%3CmxGraphModel%3E%3Croot%3E%3CmxCell%20id%3D%220%22%2F%3E%3CmxCell%20id%3D%221%22%20parent%3D%220%22%2F%3E%3CmxCell%20id%3D%222%22%20value%3D%22AdminController%22%20style%3D%22swimlane%3BfontStyle%3D1%3Balign%3Dcenter%3BverticalAlign%3Dtop%3BchildLayout%3DstackLayout%3Bhorizontal%3D1%3BstartSize%3D26%3BhorizontalStack%3D0%3BresizeParent%3D1%3BresizeParentMax%3D0%3BresizeLast%3D0%3Bcollapsible%3D1%3BmarginBottom%3D0%3BfillColor%3D%23d5e8d4%3BstrokeColor%3D%2382b366%3BfontSize%3D12%3BstrokeWidth%3D3%3B%22%20vertex%3D%221%22%20parent%3D%221%22%3E%3CmxGeometry%20x%3D%22-1440%22%20y%3D%221135%22%20width%3D%22350%22%20height%3D%22270%22%20as%3D%22geometry%22%2F%3E%3C%2FmxCell%3E%3CmxCell%20id%3D%223%22%20value%3D%22-%20admin%3A%20Admin%26%2310%3B%22%20style%3D%22text%3BstrokeColor%3Dnone%3BfillColor%3Dnone%3Balign%3Dleft%3BverticalAlign%3Dtop%3BspacingLeft%3D4%3BspacingRight%3D4%3Boverflow%3Dhidden%3Brotatable%3D0%3Bpoints%3D%5B%5B0%2C0.5%5D%2C%5B1%2C0.5%5D%5D%3BportConstraint%3Deastwest%3BfontSize%3D12%3BstrokeWidth%3D3%3B%22%20vertex%3D%221%22%20parent%3D%222%22%3E%3CmxGeometry%20y%3D%2226%22%20width%3D%22350%22%20height%3D%2224%22%20as%3D%22geometry%22%2F%3E%3C%2FmxCell%3E%3CmxCell%20id%3D%224%22%20value%3D%22%26lt%3Bdiv%20style%3D%26quot%3Bfont-size%3A%2012px%3B%26quot%3B%26gt%3B%26lt%3Bu%20style%3D%26quot%3Bfont-size%3A%2012px%3B%20background-color%3A%20initial%3B%26quot%3B%26gt%3B-%20adminController%3A%20AdminController%26lt%3B%2Fu%26gt%3B%26lt%3B%2Fdiv%26gt%3B%22%20style%3D%22text%3Bhtml%3D1%3Balign%3Dleft%3BverticalAlign%3Dmiddle%3Bresizable%3D0%3Bpoints%3D%5B%5D%3Bautosize%3D1%3BstrokeColor%3Dnone%3BfillColor%3Dnone%3BfontSize%3D12%3BstrokeWidth%3D3%3B%22%20vertex%3D%221%22%20parent%3D%222%22%3E%3CmxGeometry%20y%3D%2250%22%20width%3D%22350%22%20height%3D%2230%22%20as%3D%22geometry%22%2F%3E%3C%2FmxCell%3E%3CmxCell%20id%3D%225%22%20value%3D%22%22%20style%3D%22line%3BstrokeWidth%3D3%3BfillColor%3Dnone%3Balign%3Dleft%3BverticalAlign%3Dmiddle%3BspacingTop%3D-1%3BspacingLeft%3D3%3BspacingRight%3D3%3Brotatable%3D0%3BlabelPosition%3Dright%3Bpoints%3D%5B%5D%3BportConstraint%3Deastwest%3BstrokeColor%3Dinherit%3BfontSize%3D12%3B%22%20vertex%3D%221%22%20parent%3D%222%22%3E%3CmxGeometry%20y%3D%2280%22%20width%3D%22350%22%20height%3D%228%22%20as%3D%22geometry%22%2F%3E%3C%2FmxCell%3E%3CmxCell%20id%3D%226%22%20value%3D%22%26lt%3Bspan%20style%3D%26quot%3Bcolor%3A%20rgb(0%2C%200%2C%200)%3B%20font-family%3A%20Helvetica%3B%20font-size%3A%2012px%3B%20font-variant-ligatures%3A%20normal%3B%20font-variant-caps%3A%20normal%3B%20font-weight%3A%20400%3B%20letter-spacing%3A%20normal%3B%20orphans%3A%202%3B%20text-align%3A%20left%3B%20text-indent%3A%200px%3B%20text-transform%3A%20none%3B%20widows%3A%202%3B%20word-spacing%3A%200px%3B%20-webkit-text-stroke-width%3A%200px%3B%20background-color%3A%20rgb(255%2C%20255%2C%20255)%3B%20text-decoration-thickness%3A%20initial%3B%20text-decoration-style%3A%20initial%3B%20text-decoration-color%3A%20initial%3B%20float%3A%20none%3B%20font-style%3A%20normal%3B%20display%3A%20inline%20!important%3B%26quot%3B%26gt%3B%26lt%3Bu%20style%3D%26quot%3Bfont-size%3A%2012px%3B%26quot%3B%26gt%3B%2B%20getInstance()%3A%20AdminController%26lt%3B%2Fu%26gt%3B%26lt%3B%2Fspan%26gt%3B%22%20style%3D%22text%3BwhiteSpace%3Dwrap%3Bhtml%3D1%3BfontSize%3D12%3BstrokeWidth%3D3%3B%22%20vertex%3D%221%22%20parent%3D%222%22%3E%3CmxGeometry%20y%3D%2288%22%20width%3D%22350%22%20height%3D%2222%22%20as%3D%22geometry%22%2F%3E%3C%2FmxCell%3E%3CmxCell%20id%3D%227%22%20value%3D%22-%20AdminController()%26%2310%3B%2B%20setAdmin(Admin%20admin)%3A%20void%26%2310%3B%2B%20addSpecificDiscount(Discount%20discount%2C%20Service%20service)%3Avoid%26%2310%3B%2B%20addOverallDiscount(Discount%20discount)%3A%20void%C2%A0%26%2310%3B%2B%20checkNotifications()%3A%20void%26%2310%3B%2B%20showPendingRefund()%3A%20Vector%26lt%3BRefund%26gt%3B%26%2310%3B-%20notifyOthers()%3A%20void%26%2310%3B%2B%20acceptRefund(Refund%20refund)%3A%20void%26%2310%3B%2B%20rejectRefund(Refund%20refund)%3A%20void%26%2310%3B%2B%20update(Refund%20refund)%3A%20void%22%20style%3D%22text%3BstrokeColor%3Dnone%3BfillColor%3Dnone%3Balign%3Dleft%3BverticalAlign%3Dtop%3BspacingLeft%3D4%3BspacingRight%3D4%3Boverflow%3Dhidden%3Brotatable%3D0%3Bpoints%3D%5B%5B0%2C0.5%5D%2C%5B1%2C0.5%5D%5D%3BportConstraint%3Deastwest%3BfontSize%3D12%3BstrokeWidth%3D3%3B%22%20vertex%3D%221%22%20parent%3D%222%22%3E%3CmxGeometry%20y%3D%22110%22%20width%3D%22350%22%20height%3D%22160%22%20as%3D%22geometry%22%2F%3E%3C%2FmxCell%3E%3CmxCell%20id%3D%228%22%20value%3D%22CustomerController%22%20style%3D%22swimlane%3BfontStyle%3D1%3Balign%3Dcenter%3BverticalAlign%3Dtop%3BchildLayout%3DstackLayout%3Bhorizontal%3D1%3BstartSize%3D26%3BhorizontalStack%3D0%3BresizeParent%3D1%3BresizeParentMax%3D0%3BresizeLast%3D0%3Bcollapsible%3D1%3BmarginBottom%3D0%3BstrokeColor%3D%2382b366%3BfillColor%3D%23d5e8d4%3Brounded%3D0%3BfontSize%3D12%3BstrokeWidth%3D3%3B%22%20vertex%3D%221%22%20parent%3D%221%22%3E%3CmxGeometry%20x%3D%22-830%22%20y%3D%221135%22%20width%3D%22410%22%20height%3D%22490%22%20as%3D%22geometry%22%3E%3CmxRectangle%20x%3D%22505%22%20y%3D%221140%22%20width%3D%22150%22%20height%3D%2230%22%20as%3D%22alternateBounds%22%2F%3E%3C%2FmxGeometry%3E%3C%2FmxCell%3E%3CmxCell%20id%3D%229%22%20value%3D%22-%20customer%20%3A%20Customer%22%20style%3D%22text%3BstrokeColor%3Dnone%3BfillColor%3Dnone%3Balign%3Dleft%3BverticalAlign%3Dtop%3BspacingLeft%3D4%3BspacingRight%3D4%3Boverflow%3Dhidden%3Brotatable%3D0%3Bpoints%3D%5B%5B0%2C0.5%5D%2C%5B1%2C0.5%5D%5D%3BportConstraint%3Deastwest%3BfontColor%3D%2346495D%3Brounded%3D0%3BfontSize%3D12%3BstrokeWidth%3D3%3B%22%20vertex%3D%221%22%20parent%3D%228%22%3E%3CmxGeometry%20y%3D%2226%22%20width%3D%22410%22%20height%3D%2224%22%20as%3D%22geometry%22%2F%3E%3C%2FmxCell%3E%3CmxCell%20id%3D%2210%22%20value%3D%22%26lt%3Bdiv%20style%3D%26quot%3Bfont-size%3A%2012px%3B%26quot%3B%26gt%3B%26lt%3Bu%20style%3D%26quot%3Bcolor%3A%20rgb(70%2C%2073%2C%2093)%3B%20font-size%3A%2012px%3B%20background-color%3A%20initial%3B%26quot%3B%26gt%3B%26amp%3Bnbsp%3B-customerController%20%3A%20CustomerController%26lt%3B%2Fu%26gt%3B%26lt%3B%2Fdiv%26gt%3B%22%20style%3D%22text%3Bhtml%3D1%3Balign%3Dleft%3BverticalAlign%3Dmiddle%3Bresizable%3D0%3Bpoints%3D%5B%5D%3Bautosize%3D1%3BstrokeColor%3Dnone%3BfillColor%3Dnone%3BfontSize%3D12%3BstrokeWidth%3D3%3B%22%20vertex%3D%221%22%20parent%3D%228%22%3E%3CmxGeometry%20y%3D%2250%22%20width%3D%22410%22%20height%3D%2230%22%20as%3D%22geometry%22%2F%3E%3C%2FmxCell%3E%3CmxCell%20id%3D%2211%22%20value%3D%22%22%20style%3D%22line%3BstrokeWidth%3D3%3BfillColor%3Dnone%3Balign%3Dleft%3BverticalAlign%3Dmiddle%3BspacingTop%3D-1%3BspacingLeft%3D3%3BspacingRight%3D3%3Brotatable%3D0%3BlabelPosition%3Dright%3Bpoints%3D%5B%5D%3BportConstraint%3Deastwest%3BfontColor%3D%2346495D%3Brounded%3D0%3BstrokeColor%3D%23788AA3%3BfontSize%3D12%3B%22%20vertex%3D%221%22%20parent%3D%228%22%3E%3CmxGeometry%20y%3D%2280%22%20width%3D%22410%22%20height%3D%228%22%20as%3D%22geometry%22%2F%3E%3C%2FmxCell%3E%3CmxCell%20id%3D%2212%22%20value%3D%22-%C2%A0CustomerController()%26%2310%3B%2B%20setCustomer(Customer%20customer)%3Avoid%26%2310%3B%2B%20addCard(CreditCard%20card)%3Avoid%26%2310%3B%2B%20showCards()%3Avoid%26%2310%3B%2B%20getCard(int%20index)%3ACreditCard%26%2310%3B%2B%20getWallet()%3A%20Wallet%26%2310%3B%2B%20chargeWallet(CreditCard%20card%2C%20double%20cost%2C%20String%20password)%3Avoid%26%2310%3B%2B%20showServices()%3A%20Vector%26lt%3BServices%26gt%3B%26%2310%3B%2B%20searchServices(String%20sub)%3A%20Vector%26lt%3BServices%26gt%3B%26%2310%3B%2B%20chooseService(Vector%26lt%3BService%26gt%3B%20Services%2C%20int%20index)%3A%20Service%26%2310%3B%2B%C2%A0%20showCustomers(Vector%26lt%3BCustomer%26gt%3Bcustomers)%3A%20void%26%2310%3B%2B%20setFormDataField(String%20key%2C%20String%20value)%26%2310%3B%2B%20getFields()%3A%20HashMap%26lt%3BString%2C%20String%5B%5D%26gt%3B%26%2310%3B%2BchargeWallet(CreditCard%20card%2C%20double%20cost%2C%20String%20password)%20%3A%20void%C2%A0%26%2310%3B%2BgetWallet()%3AWallet%26%2310%3B%2BshowAllDiscounts()%3Avoid%26%2310%3B%2B%C2%A0addTransaction(Transaction%20transaction)%3Avoid%26%2310%3B%2BaddRefund(Transaction%20transaction)%20%3A%20void%26%2310%3B%2BcheckNotifications()%3A%20void%26%2310%3B%2Brefund(Refund%20refund)%3A%20void%26%2310%3B%2BnotifyAdmins(Refund%20refund)%3Avoid%26%2310%3B%2BshowRefunds()%3Avoid%26%2310%3B%2B%C2%A0showRefundableTransactions()%3AVector%26lt%3BTransaction%26gt%3B%26%2310%3B%2BshowAllTransactions()%3Avoid%26%2310%3B%2Bupdate()%3Avoid%26%2310%3B%2B%20getDiscountData()%3A%20DiscountData%26%2310%3B%26%2310%3B%22%20style%3D%22text%3BstrokeColor%3Dnone%3BfillColor%3Dnone%3Balign%3Dleft%3BverticalAlign%3Dtop%3BspacingLeft%3D4%3BspacingRight%3D4%3Boverflow%3Dhidden%3Brotatable%3D0%3Bpoints%3D%5B%5B0%2C0.5%5D%2C%5B1%2C0.5%5D%5D%3BportConstraint%3Deastwest%3BfontColor%3D%2346495D%3Brounded%3D0%3BfontSize%3D12%3BstrokeWidth%3D3%3B%22%20vertex%3D%221%22%20parent%3D%228%22%3E%3CmxGeometry%20y%3D%2288%22%20width%3D%22410%22%20height%3D%22372%22%20as%3D%22geometry%22%2F%3E%3C%2FmxCell%3E%3CmxCell%20id%3D%2213%22%20value%3D%22%26lt%3Bspan%20style%3D%26quot%3Bcolor%3A%20rgb(70%2C%2073%2C%2093)%3B%20font-family%3A%20Helvetica%3B%20font-size%3A%2012px%3B%20font-style%3A%20normal%3B%20font-variant-ligatures%3A%20normal%3B%20font-variant-caps%3A%20normal%3B%20font-weight%3A%20400%3B%20letter-spacing%3A%20normal%3B%20orphans%3A%202%3B%20text-align%3A%20left%3B%20text-indent%3A%200px%3B%20text-transform%3A%20none%3B%20widows%3A%202%3B%20word-spacing%3A%200px%3B%20-webkit-text-stroke-width%3A%200px%3B%20background-color%3A%20rgb(255%2C%20255%2C%20255)%3B%20text-decoration-thickness%3A%20initial%3B%20text-decoration-style%3A%20initial%3B%20text-decoration-color%3A%20initial%3B%20float%3A%20none%3B%20display%3A%20inline%20!important%3B%26quot%3B%26gt%3B%26lt%3Bu%20style%3D%26quot%3Bfont-size%3A%2012px%3B%26quot%3B%26gt%3B%26amp%3Bnbsp%3B%2B%20getInstance()%3ACustomerController%26lt%3B%2Fu%26gt%3B%26lt%3B%2Fspan%26gt%3B%22%20style%3D%22text%3BwhiteSpace%3Dwrap%3Bhtml%3D1%3BfontSize%3D12%3BstrokeWidth%3D3%3B%22%20vertex%3D%221%22%20parent%3D%228%22%3E%3CmxGeometry%20y%3D%22460%22%20width%3D%22410%22%20height%3D%2230%22%20as%3D%22geometry%22%2F%3E%3C%2FmxCell%3E%3CmxCell%20id%3D%2214%22%20value%3D%22UserController%22%20style%3D%22swimlane%3BfontStyle%3D1%3Balign%3Dcenter%3BverticalAlign%3Dtop%3BchildLayout%3DstackLayout%3Bhorizontal%3D1%3BstartSize%3D26%3BhorizontalStack%3D0%3BresizeParent%3D1%3BresizeParentMax%3D0%3BresizeLast%3D0%3Bcollapsible%3D1%3BmarginBottom%3D0%3BfillColor%3D%23d5e8d4%3BstrokeColor%3D%2382b366%3BfontSize%3D12%3BstrokeWidth%3D3%3B%22%20vertex%3D%221%22%20parent%3D%221%22%3E%3CmxGeometry%20x%3D%22-1090%22%20y%3D%22770%22%20width%3D%22250%22%20height%3D%22330%22%20as%3D%22geometry%22%2F%3E%3C%2FmxCell%3E%3CmxCell%20id%3D%2215%22%20value%3D%22-%20userController%3A%20UserController%26%2310%3B-%20user%3A%20User%26%2310%3B%22%20style%3D%22text%3BstrokeColor%3Dnone%3BfillColor%3Dnone%3Balign%3Dleft%3BverticalAlign%3Dtop%3BspacingLeft%3D4%3BspacingRight%3D4%3Boverflow%3Dhidden%3Brotatable%3D0%3Bpoints%3D%5B%5B0%2C0.5%5D%2C%5B1%2C0.5%5D%5D%3BportConstraint%3Deastwest%3BfontSize%3D12%3BstrokeWidth%3D3%3B%22%20vertex%3D%221%22%20parent%3D%2214%22%3E%3CmxGeometry%20y%3D%2226%22%20width%3D%22250%22%20height%3D%2234%22%20as%3D%22geometry%22%2F%3E%3C%2FmxCell%3E%3CmxCell%20id%3D%2216%22%20value%3D%22%22%20style%3D%22line%3BstrokeWidth%3D3%3BfillColor%3Dnone%3Balign%3Dleft%3BverticalAlign%3Dmiddle%3BspacingTop%3D-1%3BspacingLeft%3D3%3BspacingRight%3D3%3Brotatable%3D0%3BlabelPosition%3Dright%3Bpoints%3D%5B%5D%3BportConstraint%3Deastwest%3BstrokeColor%3Dinherit%3BfontSize%3D12%3B%22%20vertex%3D%221%22%20parent%3D%2214%22%3E%3CmxGeometry%20y%3D%2260%22%20width%3D%22250%22%20height%3D%228%22%20as%3D%22geometry%22%2F%3E%3C%2FmxCell%3E%3CmxCell%20id%3D%2217%22%20value%3D%22-%20UserController()%26%2310%3B%2B%C2%A0addUser(User%20user)%20%3A%20void%26%2310%3B%2B%C2%A0checkExistEmail(User%20user)%20%3A%20boolean%26%2310%3B%2BcheckExistUsername(User%20user)%20%3A%20boolean%26%2310%3B%2BcheckPassword(User%20user)%20%3A%20User%26%2310%3B%2BsignIn(User%20user)%20%3A%20User%26%2310%3B%2B%C2%A0signUp(User%20user)%20%3A%20void%26%2310%3B%2BsignOut()%20%3A%20User%26%2310%3B%2B%20getUsername()%3A%20String%26%2310%3B%2BsetUser(User%20user)%3Avoid%26%2310%3B%2B%20isSigned()%3A%20boolean%26%2310%3B%2B%20getUser()%3A%20User%26%2310%3B%2B%20isAdmin()%3A%20boolean%26%2310%3B%2B%20isCustomer()%3A%20boolean%26%2310%3B%2B%20getCustomers()%3A%20Vector%26lt%3BCustomer%26gt%3B%26%2310%3B%22%20style%3D%22text%3BstrokeColor%3Dnone%3BfillColor%3Dnone%3Balign%3Dleft%3BverticalAlign%3Dtop%3BspacingLeft%3D4%3BspacingRight%3D4%3Boverflow%3Dhidden%3Brotatable%3D0%3Bpoints%3D%5B%5B0%2C0.5%5D%2C%5B1%2C0.5%5D%5D%3BportConstraint%3Deastwest%3BfontSize%3D12%3BstrokeWidth%3D3%3B%22%20vertex%3D%221%22%20parent%3D%2214%22%3E%3CmxGeometry%20y%3D%2268%22%20width%3D%22250%22%20height%3D%22222%22%20as%3D%22geometry%22%2F%3E%3C%2FmxCell%3E%3CmxCell%20id%3D%2218%22%20value%3D%22%26lt%3Bspan%20style%3D%26quot%3Bcolor%3A%20rgb(0%2C%200%2C%200)%3B%20font-family%3A%20Helvetica%3B%20font-size%3A%2012px%3B%20font-variant-ligatures%3A%20normal%3B%20font-variant-caps%3A%20normal%3B%20font-weight%3A%20400%3B%20letter-spacing%3A%20normal%3B%20orphans%3A%202%3B%20text-align%3A%20left%3B%20text-indent%3A%200px%3B%20text-transform%3A%20none%3B%20widows%3A%202%3B%20word-spacing%3A%200px%3B%20-webkit-text-stroke-width%3A%200px%3B%20background-color%3A%20rgb(255%2C%20255%2C%20255)%3B%20text-decoration-thickness%3A%20initial%3B%20text-decoration-style%3A%20initial%3B%20text-decoration-color%3A%20initial%3B%20float%3A%20none%3B%20display%3A%20inline%20!important%3B%26quot%3B%26gt%3B%26lt%3Bu%20style%3D%26quot%3Bfont-size%3A%2012px%3B%26quot%3B%26gt%3B%2B%20getInstance()%3A%20UserController%26lt%3B%2Fu%26gt%3B%26lt%3B%2Fspan%26gt%3B%22%20style%3D%22text%3BwhiteSpace%3Dwrap%3Bhtml%3D1%3BfontSize%3D12%3BstrokeWidth%3D3%3B%22%20vertex%3D%221%22%20parent%3D%2214%22%3E%3CmxGeometry%20y%3D%22290%22%20width%3D%22250%22%20height%3D%2240%22%20as%3D%22geometry%22%2F%3E%3C%2FmxCell%3E%3CmxCell%20id%3D%2219%22%20value%3D%22ServiceController%22%20style%3D%22swimlane%3BfontStyle%3D1%3Balign%3Dcenter%3BverticalAlign%3Dtop%3BchildLayout%3DstackLayout%3Bhorizontal%3D1%3BstartSize%3D26%3BhorizontalStack%3D0%3BresizeParent%3D1%3BresizeParentMax%3D0%3BresizeLast%3D0%3Bcollapsible%3D1%3BmarginBottom%3D0%3BfillColor%3D%23d5e8d4%3BstrokeColor%3D%2382b366%3BfontSize%3D12%3BstrokeWidth%3D3%3B%22%20vertex%3D%221%22%20parent%3D%221%22%3E%3CmxGeometry%20x%3D%22-760%22%20y%3D%22660%22%20width%3D%22360%22%20height%3D%22480%22%20as%3D%22geometry%22%2F%3E%3C%2FmxCell%3E%3CmxCell%20id%3D%2220%22%20value%3D%22-%20service%20%3A%20Service%22%20style%3D%22text%3BstrokeColor%3Dnone%3BfillColor%3Dnone%3Balign%3Dleft%3BverticalAlign%3Dtop%3BspacingLeft%3D4%3BspacingRight%3D4%3Boverflow%3Dhidden%3Brotatable%3D0%3Bpoints%3D%5B%5B0%2C0.5%5D%2C%5B1%2C0.5%5D%5D%3BportConstraint%3Deastwest%3BfontSize%3D12%3BstrokeWidth%3D3%3B%22%20vertex%3D%221%22%20parent%3D%2219%22%3E%3CmxGeometry%20y%3D%2226%22%20width%3D%22360%22%20height%3D%2224%22%20as%3D%22geometry%22%2F%3E%3C%2FmxCell%3E%3CmxCell%20id%3D%2221%22%20value%3D%22%26lt%3Bspan%20style%3D%26quot%3Bcolor%3A%20rgb(0%2C%200%2C%200)%3B%20font-family%3A%20Helvetica%3B%20font-size%3A%2012px%3B%20font-style%3A%20normal%3B%20font-variant-ligatures%3A%20normal%3B%20font-variant-caps%3A%20normal%3B%20font-weight%3A%20400%3B%20letter-spacing%3A%20normal%3B%20orphans%3A%202%3B%20text-align%3A%20left%3B%20text-indent%3A%200px%3B%20text-transform%3A%20none%3B%20widows%3A%202%3B%20word-spacing%3A%200px%3B%20-webkit-text-stroke-width%3A%200px%3B%20background-color%3A%20rgb(255%2C%20255%2C%20255)%3B%20text-decoration-thickness%3A%20initial%3B%20text-decoration-style%3A%20initial%3B%20text-decoration-color%3A%20initial%3B%20float%3A%20none%3B%20display%3A%20inline%20!important%3B%26quot%3B%26gt%3B%26lt%3Bu%20style%3D%26quot%3Bfont-size%3A%2012px%3B%26quot%3B%26gt%3B-%20serviceController%20%3A%20ServiceController%26lt%3B%2Fu%26gt%3B%26lt%3B%2Fspan%26gt%3B%22%20style%3D%22text%3BwhiteSpace%3Dwrap%3Bhtml%3D1%3BfontSize%3D12%3BstrokeWidth%3D3%3B%22%20vertex%3D%221%22%20parent%3D%2219%22%3E%3CmxGeometry%20y%3D%2250%22%20width%3D%22360%22%20height%3D%2240%22%20as%3D%22geometry%22%2F%3E%3C%2FmxCell%3E%3CmxCell%20id%3D%2222%22%20value%3D%22%22%20style%3D%22line%3BstrokeWidth%3D3%3BfillColor%3Dnone%3Balign%3Dleft%3BverticalAlign%3Dmiddle%3BspacingTop%3D-1%3BspacingLeft%3D3%3BspacingRight%3D3%3Brotatable%3D0%3BlabelPosition%3Dright%3Bpoints%3D%5B%5D%3BportConstraint%3Deastwest%3BstrokeColor%3Dinherit%3BfontSize%3D12%3B%22%20vertex%3D%221%22%20parent%3D%2219%22%3E%3CmxGeometry%20y%3D%2290%22%20width%3D%22360%22%20height%3D%228%22%20as%3D%22geometry%22%2F%3E%3C%2FmxCell%3E%3CmxCell%20id%3D%2223%22%20value%3D%22-ServiceController()%26%2310%3B%2BsetService(Service%20service)%20%3A%20void%26%2310%3B%2BaddService(Service%20service)%20%3A%20void%26%2310%3B%2BgetFormFields()%20%3A%20HashMap%26lt%3BString%2C%20String%5B%5D%26gt%3B%26%2310%3B%2BsetFormDataField(String%20key%2C%20String%20value)%20%3A%20void%26%2310%3B%2BaddPaymentMethod(Payment%20payment)%20%3A%20void%26%2310%3B%2BaddCompany(String%20name)%20%3A%20void%26%2310%3B%2BchooseCompany(int%20index)%20%3A%20void%26%2310%3B%2BchoosePayment(int%20index)%20%3A%20void%26%2310%3B%2BshowPayments()%20%3A%20void%26%2310%3B%2BsetCost(double%20cost)%20%3A%20void%26%2310%3B%2BgetCurrentPayment()%20%3A%20Payment%26%2310%3B%2BsetPassword(String%20password)%20%3A%20void%26%2310%3B%2BshowServices(Vector%26lt%3BService%26gt%3B%20services)%20%3A%20void%26%2310%3B%2BchooseService(Vector%26lt%3BService%26gt%3B%20services%2C%20int%20index)%20%3A%20Service%26%2310%3B%2BgetFormData()%20%3A%20FormData%26%2310%3B%2BgetCost()%20%3A%20double%26%2310%3B%2Bpay()%20%3A%20bool%26%2310%3B%2B%20showCategories()%3A%20void%26%2310%3B%2B%20chooseCategory(int%20index)%3A%20Service%26%2310%3B%2B%20setDiscountData()%3A%20void%26%2310%3B%2B%20useDiscounts()%3A%20Vector%26lt%3BDiscount%26gt%3B%26%2310%3B%2B%C2%A0applyDiscounts(double%20before%2C%20Vector%26lt%3BDiscount%26gt%3B%20discounts)%26%2310%3B%2B%20returnDiscounts(Vector%26lt%3BDiscount%26gt%3Bdiscounts)%3A%20void%26%2310%3B%2B%20showDiscounts(Vector%26lt%3BDiscount%26gt%3Bdiscounts)%3A%20void%26%2310%3B%26%2310%3B%26%2310%3B%26%2310%3B%26%2310%3B%22%20style%3D%22text%3BstrokeColor%3Dnone%3BfillColor%3Dnone%3Balign%3Dleft%3BverticalAlign%3Dtop%3BspacingLeft%3D4%3BspacingRight%3D4%3Boverflow%3Dhidden%3Brotatable%3D0%3Bpoints%3D%5B%5B0%2C0.5%5D%2C%5B1%2C0.5%5D%5D%3BportConstraint%3Deastwest%3BfontSize%3D12%3BstrokeWidth%3D3%3B%22%20vertex%3D%221%22%20parent%3D%2219%22%3E%3CmxGeometry%20y%3D%2298%22%20width%3D%22360%22%20height%3D%22352%22%20as%3D%22geometry%22%2F%3E%3C%2FmxCell%3E%3CmxCell%20id%3D%2224%22%20value%3D%22%26lt%3Bspan%20style%3D%26quot%3Bcolor%3A%20rgb(0%2C%200%2C%200)%3B%20font-family%3A%20Helvetica%3B%20font-size%3A%2012px%3B%20font-style%3A%20normal%3B%20font-variant-ligatures%3A%20normal%3B%20font-variant-caps%3A%20normal%3B%20font-weight%3A%20400%3B%20letter-spacing%3A%20normal%3B%20orphans%3A%202%3B%20text-align%3A%20left%3B%20text-indent%3A%200px%3B%20text-transform%3A%20none%3B%20widows%3A%202%3B%20word-spacing%3A%200px%3B%20-webkit-text-stroke-width%3A%200px%3B%20background-color%3A%20rgb(255%2C%20255%2C%20255)%3B%20text-decoration-thickness%3A%20initial%3B%20text-decoration-style%3A%20initial%3B%20text-decoration-color%3A%20initial%3B%20float%3A%20none%3B%20display%3A%20inline%20!important%3B%26quot%3B%26gt%3B%26lt%3Bu%20style%3D%26quot%3Bfont-size%3A%2012px%3B%26quot%3B%26gt%3B%2BgetInstance()%20%3A%20ServiceController%26lt%3B%2Fu%26gt%3B%26lt%3B%2Fspan%26gt%3B%22%20style%3D%22text%3BwhiteSpace%3Dwrap%3Bhtml%3D1%3BfontSize%3D12%3BstrokeWidth%3D3%3B%22%20vertex%3D%221%22%20parent%3D%2219%22%3E%3CmxGeometry%20y%3D%22450%22%20width%3D%22360%22%20height%3D%2230%22%20as%3D%22geometry%22%2F%3E%3C%2FmxCell%3E%3CmxCell%20id%3D%2225%22%20value%3D%22DiscountController%22%20style%3D%22swimlane%3BfontStyle%3D1%3Balign%3Dcenter%3BverticalAlign%3Dtop%3BchildLayout%3DstackLayout%3Bhorizontal%3D1%3BstartSize%3D26%3BhorizontalStack%3D0%3BresizeParent%3D1%3BresizeParentMax%3D0%3BresizeLast%3D0%3Bcollapsible%3D1%3BmarginBottom%3D0%3BfillColor%3D%23d5e8d4%3BstrokeColor%3D%2382b366%3BfontSize%3D12%3BstrokeWidth%3D3%3B%22%20vertex%3D%221%22%20parent%3D%221%22%3E%3CmxGeometry%20x%3D%22-390%22%20y%3D%22440%22%20width%3D%22360%22%20height%3D%22260%22%20as%3D%22geometry%22%2F%3E%3C%2FmxCell%3E%3CmxCell%20id%3D%2226%22%20value%3D%22-%20discount%20%3A%20Discount%26%2310%3B-%20discountData%3A%20DiscountData%22%20style%3D%22text%3BstrokeColor%3Dnone%3BfillColor%3Dnone%3Balign%3Dleft%3BverticalAlign%3Dtop%3BspacingLeft%3D4%3BspacingRight%3D4%3Boverflow%3Dhidden%3Brotatable%3D0%3Bpoints%3D%5B%5B0%2C0.5%5D%2C%5B1%2C0.5%5D%5D%3BportConstraint%3Deastwest%3BfontSize%3D12%3BstrokeWidth%3D3%3B%22%20vertex%3D%221%22%20parent%3D%2225%22%3E%3CmxGeometry%20y%3D%2226%22%20width%3D%22360%22%20height%3D%2234%22%20as%3D%22geometry%22%2F%3E%3C%2FmxCell%3E%3CmxCell%20id%3D%2227%22%20value%3D%22%26lt%3Bdiv%20style%3D%26quot%3Bfont-size%3A%2012px%3B%26quot%3B%26gt%3B%26lt%3Bspan%20style%3D%26quot%3Bfont-size%3A%2012px%3B%20background-color%3A%20initial%3B%26quot%3B%26gt%3B%26lt%3Bu%20style%3D%26quot%3Bfont-size%3A%2012px%3B%26quot%3B%26gt%3B-discountController%3ADiscountController%26lt%3B%2Fu%26gt%3B%26lt%3B%2Fspan%26gt%3B%26lt%3B%2Fdiv%26gt%3B%22%20style%3D%22text%3Bhtml%3D1%3Balign%3Dleft%3BverticalAlign%3Dmiddle%3Bresizable%3D0%3Bpoints%3D%5B%5D%3Bautosize%3D1%3BstrokeColor%3Dnone%3BfillColor%3Dnone%3BfontSize%3D12%3BstrokeWidth%3D3%3B%22%20vertex%3D%221%22%20parent%3D%2225%22%3E%3CmxGeometry%20y%3D%2260%22%20width%3D%22360%22%20height%3D%2230%22%20as%3D%22geometry%22%2F%3E%3C%2FmxCell%3E%3CmxCell%20id%3D%2228%22%20value%3D%22%22%20style%3D%22line%3BstrokeWidth%3D3%3BfillColor%3Dnone%3Balign%3Dleft%3BverticalAlign%3Dmiddle%3BspacingTop%3D-1%3BspacingLeft%3D3%3BspacingRight%3D3%3Brotatable%3D0%3BlabelPosition%3Dright%3Bpoints%3D%5B%5D%3BportConstraint%3Deastwest%3BstrokeColor%3Dinherit%3BfontSize%3D12%3B%22%20vertex%3D%221%22%20parent%3D%2225%22%3E%3CmxGeometry%20y%3D%2290%22%20width%3D%22360%22%20height%3D%228%22%20as%3D%22geometry%22%2F%3E%3C%2FmxCell%3E%3CmxCell%20id%3D%2229%22%20value%3D%22-DiscountController()%26%2310%3B%2BsetDiscount(Discount%20discount)%20%3A%20void%26%2310%3B%2BaddCategory(Service%20service)%20%3A%20void%26%2310%3B%2BaddSpecificDiscount(Discount%20discount%2C%20Service%20service)%20%3A%20void%26%2310%3B%2BaddOverallDiscount(Discount%20discount)%20%3A%20void%26%2310%3B%2BshowAll()%3A%20void%26%2310%3B%2BshowList()%20%3A%20void%26%2310%3B%2BuseDiscounts(Service%20service)%20%3A%20Vector%26lt%3BDiscount%26gt%3B%26%2310%3B%2B%20setDiscountData(DiscountData%20discountData)%3A%20void%22%20style%3D%22text%3BstrokeColor%3Dnone%3BfillColor%3Dnone%3Balign%3Dleft%3BverticalAlign%3Dtop%3BspacingLeft%3D4%3BspacingRight%3D4%3Boverflow%3Dhidden%3Brotatable%3D0%3Bpoints%3D%5B%5B0%2C0.5%5D%2C%5B1%2C0.5%5D%5D%3BportConstraint%3Deastwest%3BfontSize%3D12%3BstrokeWidth%3D3%3B%22%20vertex%3D%221%22%20parent%3D%2225%22%3E%3CmxGeometry%20y%3D%2298%22%20width%3D%22360%22%20height%3D%22132%22%20as%3D%22geometry%22%2F%3E%3C%2FmxCell%3E%3CmxCell%20id%3D%2230%22%20value%3D%22%26lt%3Bspan%20style%3D%26quot%3Bcolor%3A%20rgb(0%2C%200%2C%200)%3B%20font-family%3A%20Helvetica%3B%20font-size%3A%2012px%3B%20font-style%3A%20normal%3B%20font-variant-ligatures%3A%20normal%3B%20font-variant-caps%3A%20normal%3B%20font-weight%3A%20400%3B%20letter-spacing%3A%20normal%3B%20orphans%3A%202%3B%20text-align%3A%20left%3B%20text-indent%3A%200px%3B%20text-transform%3A%20none%3B%20widows%3A%202%3B%20word-spacing%3A%200px%3B%20-webkit-text-stroke-width%3A%200px%3B%20background-color%3A%20rgb(255%2C%20255%2C%20255)%3B%20text-decoration-thickness%3A%20initial%3B%20text-decoration-style%3A%20initial%3B%20text-decoration-color%3A%20initial%3B%20float%3A%20none%3B%20display%3A%20inline%20!important%3B%26quot%3B%26gt%3B%26lt%3Bu%20style%3D%26quot%3Bfont-size%3A%2012px%3B%26quot%3B%26gt%3B%26amp%3Bnbsp%3B%2BgetInstance()%20%3A%26amp%3Bnbsp%3BDiscountController%26lt%3B%2Fu%26gt%3B%26lt%3B%2Fspan%26gt%3B%22%20style%3D%22text%3BwhiteSpace%3Dwrap%3Bhtml%3D1%3BfontSize%3D12%3BstrokeWidth%3D3%3B%22%20vertex%3D%221%22%20parent%3D%2225%22%3E%3CmxGeometry%20y%3D%22230%22%20width%3D%22360%22%20height%3D%2230%22%20as%3D%22geometry%22%2F%3E%3C%2FmxCell%3E%3CmxCell%20id%3D%2231%22%20value%3D%22PaymentController%22%20style%3D%22swimlane%3BfontStyle%3D1%3Balign%3Dcenter%3BverticalAlign%3Dtop%3BchildLayout%3DstackLayout%3Bhorizontal%3D1%3BstartSize%3D26%3BhorizontalStack%3D0%3BresizeParent%3D1%3BresizeParentMax%3D0%3BresizeLast%3D0%3Bcollapsible%3D1%3BmarginBottom%3D0%3BfillColor%3D%23d5e8d4%3BstrokeColor%3D%2382b366%3BfontSize%3D12%3BstrokeWidth%3D3%3B%22%20vertex%3D%221%22%20parent%3D%221%22%3E%3CmxGeometry%20x%3D%22-1470%22%20y%3D%22630%22%20width%3D%22300%22%20height%3D%22230%22%20as%3D%22geometry%22%3E%3CmxRectangle%20x%3D%22-630%22%20y%3D%221450%22%20width%3D%22150%22%20height%3D%2230%22%20as%3D%22alternateBounds%22%2F%3E%3C%2FmxGeometry%3E%3C%2FmxCell%3E%3CmxCell%20id%3D%2232%22%20value%3D%22-%20payment%3A%20Payment%22%20style%3D%22text%3BstrokeColor%3Dnone%3BfillColor%3Dnone%3Balign%3Dleft%3BverticalAlign%3Dtop%3BspacingLeft%3D4%3BspacingRight%3D4%3Boverflow%3Dhidden%3Brotatable%3D0%3Bpoints%3D%5B%5B0%2C0.5%5D%2C%5B1%2C0.5%5D%5D%3BportConstraint%3Deastwest%3BfontSize%3D12%3BstrokeWidth%3D3%3B%22%20vertex%3D%221%22%20parent%3D%2231%22%3E%3CmxGeometry%20y%3D%2226%22%20width%3D%22300%22%20height%3D%2224%22%20as%3D%22geometry%22%2F%3E%3C%2FmxCell%3E%3CmxCell%20id%3D%2233%22%20value%3D%22%26lt%3Bdiv%20style%3D%26quot%3Bfont-size%3A%2012px%3B%26quot%3B%26gt%3B%26lt%3Bspan%20style%3D%26quot%3Bfont-size%3A%2012px%3B%20background-color%3A%20initial%3B%26quot%3B%26gt%3B%26lt%3Bu%20style%3D%26quot%3Bfont-size%3A%2012px%3B%26quot%3B%26gt%3B-%20paymentController%3A%20PaymentController%26lt%3B%2Fu%26gt%3B%26lt%3B%2Fspan%26gt%3B%26lt%3B%2Fdiv%26gt%3B%22%20style%3D%22text%3Bhtml%3D1%3Balign%3Dleft%3BverticalAlign%3Dmiddle%3Bresizable%3D0%3Bpoints%3D%5B%5D%3Bautosize%3D1%3BstrokeColor%3Dnone%3BfillColor%3Dnone%3BfontSize%3D12%3BstrokeWidth%3D3%3B%22%20vertex%3D%221%22%20parent%3D%2231%22%3E%3CmxGeometry%20y%3D%2250%22%20width%3D%22300%22%20height%3D%2230%22%20as%3D%22geometry%22%2F%3E%3C%2FmxCell%3E%3CmxCell%20id%3D%2234%22%20value%3D%22%22%20style%3D%22line%3BstrokeWidth%3D3%3BfillColor%3Dnone%3Balign%3Dleft%3BverticalAlign%3Dmiddle%3BspacingTop%3D-1%3BspacingLeft%3D3%3BspacingRight%3D3%3Brotatable%3D0%3BlabelPosition%3Dright%3Bpoints%3D%5B%5D%3BportConstraint%3Deastwest%3BstrokeColor%3Dinherit%3BfontSize%3D12%3B%22%20vertex%3D%221%22%20parent%3D%2231%22%3E%3CmxGeometry%20y%3D%2280%22%20width%3D%22300%22%20height%3D%228%22%20as%3D%22geometry%22%2F%3E%3C%2FmxCell%3E%3CmxCell%20id%3D%2235%22%20value%3D%22-%20PaymentController()%26%2310%3B%2B%20setPayment(Payment%20payment)%3A%20void%26%2310%3B%2B%20addPayment(Payment%20payment)%3A%20void%26%2310%3B%2B%20setCost(double%20cost)%3A%20void%26%2310%3B%2B%20setPassword(String%20password)%3A%20void%26%2310%3B%2B%20showPayments(Vector%26lt%3BPayment%26gt%3Bpayments)%3A%20void%26%2310%3B%2B%20getPayment(int%20index)%3A%20Payment%22%20style%3D%22text%3BstrokeColor%3Dnone%3BfillColor%3Dnone%3Balign%3Dleft%3BverticalAlign%3Dtop%3BspacingLeft%3D4%3BspacingRight%3D4%3Boverflow%3Dhidden%3Brotatable%3D0%3Bpoints%3D%5B%5B0%2C0.5%5D%2C%5B1%2C0.5%5D%5D%3BportConstraint%3Deastwest%3BfontSize%3D12%3BstrokeWidth%3D3%3B%22%20vertex%3D%221%22%20parent%3D%2231%22%3E%3CmxGeometry%20y%3D%2288%22%20width%3D%22300%22%20height%3D%22112%22%20as%3D%22geometry%22%2F%3E%3C%2FmxCell%3E%3CmxCell%20id%3D%2236%22%20value%3D%22%26lt%3Bspan%20style%3D%26quot%3Bcolor%3A%20rgb(0%2C%200%2C%200)%3B%20font-family%3A%20Helvetica%3B%20font-size%3A%2012px%3B%20font-style%3A%20normal%3B%20font-variant-ligatures%3A%20normal%3B%20font-variant-caps%3A%20normal%3B%20font-weight%3A%20400%3B%20letter-spacing%3A%20normal%3B%20orphans%3A%202%3B%20text-align%3A%20left%3B%20text-indent%3A%200px%3B%20text-transform%3A%20none%3B%20widows%3A%202%3B%20word-spacing%3A%200px%3B%20-webkit-text-stroke-width%3A%200px%3B%20background-color%3A%20rgb(255%2C%20255%2C%20255)%3B%20text-decoration-thickness%3A%20initial%3B%20text-decoration-style%3A%20initial%3B%20text-decoration-color%3A%20initial%3B%20float%3A%20none%3B%20display%3A%20inline%20!important%3B%26quot%3B%26gt%3B%26lt%3Bu%20style%3D%26quot%3Bfont-size%3A%2012px%3B%26quot%3B%26gt%3B%26amp%3Bnbsp%3B%2B%20getInstance()%3A%20PaymentController%26lt%3B%2Fu%26gt%3B%26lt%3B%2Fspan%26gt%3B%22%20style%3D%22text%3BwhiteSpace%3Dwrap%3Bhtml%3D1%3BfontSize%3D12%3BstrokeWidth%3D3%3B%22%20vertex%3D%221%22%20parent%3D%2231%22%3E%3CmxGeometry%20y%3D%22200%22%20width%3D%22300%22%20height%3D%2230%22%20as%3D%22geometry%22%2F%3E%3C%2FmxCell%3E%3CmxCell%20id%3D%2237%22%20value%3D%22FormController%22%20style%3D%22swimlane%3BfontStyle%3D1%3Balign%3Dcenter%3BverticalAlign%3Dtop%3BchildLayout%3DstackLayout%3Bhorizontal%3D1%3BstartSize%3D26%3BhorizontalStack%3D0%3BresizeParent%3D1%3BresizeParentMax%3D0%3BresizeLast%3D0%3Bcollapsible%3D1%3BmarginBottom%3D0%3BfillColor%3D%23d5e8d4%3BstrokeColor%3D%2382b366%3BfontSize%3D12%3BstrokeWidth%3D3%3B%22%20vertex%3D%221%22%20parent%3D%221%22%3E%3CmxGeometry%20x%3D%22-1110%22%20y%3D%22270%22%20width%3D%22240%22%20height%3D%22180%22%20as%3D%22geometry%22%3E%3CmxRectangle%20x%3D%22-680%22%20y%3D%221410%22%20width%3D%22130%22%20height%3D%2230%22%20as%3D%22alternateBounds%22%2F%3E%3C%2FmxGeometry%3E%3C%2FmxCell%3E%3CmxCell%20id%3D%2238%22%20value%3D%22-%20form%20%3A%20Form%22%20style%3D%22text%3BstrokeColor%3Dnone%3BfillColor%3Dnone%3Balign%3Dleft%3BverticalAlign%3Dtop%3BspacingLeft%3D4%3BspacingRight%3D4%3Boverflow%3Dhidden%3Brotatable%3D0%3Bpoints%3D%5B%5B0%2C0.5%5D%2C%5B1%2C0.5%5D%5D%3BportConstraint%3Deastwest%3BfontSize%3D12%3BstrokeWidth%3D3%3B%22%20vertex%3D%221%22%20parent%3D%2237%22%3E%3CmxGeometry%20y%3D%2226%22%20width%3D%22240%22%20height%3D%2224%22%20as%3D%22geometry%22%2F%3E%3C%2FmxCell%3E%3CmxCell%20id%3D%2239%22%20value%3D%22%26lt%3Bspan%20style%3D%26quot%3Bfont-size%3A%2012px%3B%26quot%3B%26gt%3B%26lt%3Bu%20style%3D%26quot%3Bfont-size%3A%2012px%3B%26quot%3B%26gt%3B-%20formController%3A%20FormController%26lt%3B%2Fu%26gt%3B%26lt%3B%2Fspan%26gt%3B%22%20style%3D%22text%3Bhtml%3D1%3Balign%3Dleft%3BverticalAlign%3Dmiddle%3Bresizable%3D0%3Bpoints%3D%5B%5D%3Bautosize%3D1%3BstrokeColor%3Dnone%3BfillColor%3Dnone%3BfontSize%3D12%3BstrokeWidth%3D3%3B%22%20vertex%3D%221%22%20parent%3D%2237%22%3E%3CmxGeometry%20y%3D%2250%22%20width%3D%22240%22%20height%3D%2230%22%20as%3D%22geometry%22%2F%3E%3C%2FmxCell%3E%3CmxCell%20id%3D%2240%22%20value%3D%22%22%20style%3D%22line%3BstrokeWidth%3D3%3BfillColor%3Dnone%3Balign%3Dleft%3BverticalAlign%3Dmiddle%3BspacingTop%3D-1%3BspacingLeft%3D3%3BspacingRight%3D3%3Brotatable%3D0%3BlabelPosition%3Dright%3Bpoints%3D%5B%5D%3BportConstraint%3Deastwest%3BstrokeColor%3Dinherit%3BfontSize%3D12%3B%22%20vertex%3D%221%22%20parent%3D%2237%22%3E%3CmxGeometry%20y%3D%2280%22%20width%3D%22240%22%20height%3D%228%22%20as%3D%22geometry%22%2F%3E%3C%2FmxCell%3E%3CmxCell%20id%3D%2241%22%20value%3D%22-%20FormController()%26%2310%3B%2B%20setForm(Form%20form)%3A%20void%26%2310%3B%2B%20getFields()%3A%20HashMap%26lt%3BString%2C%20String%5B%5D%26gt%3B%26%2310%3B%2B%20addField(String%20key%2C%20String%5B%5D%20items)%3A%20void%22%20style%3D%22text%3BstrokeColor%3Dnone%3BfillColor%3Dnone%3Balign%3Dleft%3BverticalAlign%3Dtop%3BspacingLeft%3D4%3BspacingRight%3D4%3Boverflow%3Dhidden%3Brotatable%3D0%3Bpoints%3D%5B%5B0%2C0.5%5D%2C%5B1%2C0.5%5D%5D%3BportConstraint%3Deastwest%3BfontSize%3D12%3BstrokeWidth%3D3%3B%22%20vertex%3D%221%22%20parent%3D%2237%22%3E%3CmxGeometry%20y%3D%2288%22%20width%3D%22240%22%20height%3D%2262%22%20as%3D%22geometry%22%2F%3E%3C%2FmxCell%3E%3CmxCell%20id%3D%2242%22%20value%3D%22%26lt%3Bspan%20style%3D%26quot%3Bcolor%3A%20rgb(0%2C%200%2C%200)%3B%20font-family%3A%20Helvetica%3B%20font-size%3A%2012px%3B%20font-style%3A%20normal%3B%20font-variant-ligatures%3A%20normal%3B%20font-variant-caps%3A%20normal%3B%20font-weight%3A%20400%3B%20letter-spacing%3A%20normal%3B%20orphans%3A%202%3B%20text-align%3A%20left%3B%20text-indent%3A%200px%3B%20text-transform%3A%20none%3B%20widows%3A%202%3B%20word-spacing%3A%200px%3B%20-webkit-text-stroke-width%3A%200px%3B%20background-color%3A%20rgb(255%2C%20255%2C%20255)%3B%20text-decoration-thickness%3A%20initial%3B%20text-decoration-style%3A%20initial%3B%20text-decoration-color%3A%20initial%3B%20float%3A%20none%3B%20display%3A%20inline%20!important%3B%26quot%3B%26gt%3B%26lt%3Bu%20style%3D%26quot%3Bfont-size%3A%2012px%3B%26quot%3B%26gt%3B%26amp%3Bnbsp%3B%2B%20getInstance()%3A%20FormController%26lt%3B%2Fu%26gt%3B%26lt%3B%2Fspan%26gt%3B%22%20style%3D%22text%3BwhiteSpace%3Dwrap%3Bhtml%3D1%3BfontSize%3D12%3BstrokeWidth%3D3%3B%22%20vertex%3D%221%22%20parent%3D%2237%22%3E%3CmxGeometry%20y%3D%22150%22%20width%3D%22240%22%20height%3D%2230%22%20as%3D%22geometry%22%2F%3E%3C%2FmxCell%3E%3CmxCell%20id%3D%2243%22%20value%3D%22FormDataController%22%20style%3D%22swimlane%3BfontStyle%3D1%3Balign%3Dcenter%3BverticalAlign%3Dtop%3BchildLayout%3DstackLayout%3Bhorizontal%3D1%3BstartSize%3D26%3BhorizontalStack%3D0%3BresizeParent%3D1%3BresizeParentMax%3D0%3BresizeLast%3D0%3Bcollapsible%3D1%3BmarginBottom%3D0%3BfillColor%3D%23d5e8d4%3BstrokeColor%3D%2382b366%3BfontSize%3D12%3BstrokeWidth%3D3%3B%22%20vertex%3D%221%22%20parent%3D%221%22%3E%3CmxGeometry%20x%3D%22-1390%22%20y%3D%22390%22%20width%3D%22280%22%20height%3D%22190%22%20as%3D%22geometry%22%3E%3CmxRectangle%20x%3D%22-430%22%20y%3D%221410%22%20width%3D%22150%22%20height%3D%2230%22%20as%3D%22alternateBounds%22%2F%3E%3C%2FmxGeometry%3E%3C%2FmxCell%3E%3CmxCell%20id%3D%2244%22%20value%3D%22-%20formData%3A%20FormData%22%20style%3D%22text%3BstrokeColor%3Dnone%3BfillColor%3Dnone%3Balign%3Dleft%3BverticalAlign%3Dtop%3BspacingLeft%3D4%3BspacingRight%3D4%3Boverflow%3Dhidden%3Brotatable%3D0%3Bpoints%3D%5B%5B0%2C0.5%5D%2C%5B1%2C0.5%5D%5D%3BportConstraint%3Deastwest%3BfontSize%3D12%3BstrokeWidth%3D3%3B%22%20vertex%3D%221%22%20parent%3D%2243%22%3E%3CmxGeometry%20y%3D%2226%22%20width%3D%22280%22%20height%3D%2224%22%20as%3D%22geometry%22%2F%3E%3C%2FmxCell%3E%3CmxCell%20id%3D%2245%22%20value%3D%22%26lt%3Bdiv%20style%3D%26quot%3Bfont-size%3A%2012px%3B%26quot%3B%26gt%3B%26lt%3Bu%20style%3D%26quot%3Bfont-size%3A%2012px%3B%20background-color%3A%20initial%3B%26quot%3B%26gt%3B-%20formDataController%3A%20FormDataController%26lt%3B%2Fu%26gt%3B%26lt%3B%2Fdiv%26gt%3B%22%20style%3D%22text%3Bhtml%3D1%3Balign%3Dleft%3BverticalAlign%3Dmiddle%3Bresizable%3D0%3Bpoints%3D%5B%5D%3Bautosize%3D1%3BstrokeColor%3Dnone%3BfillColor%3Dnone%3BfontSize%3D12%3BstrokeWidth%3D3%3B%22%20vertex%3D%221%22%20parent%3D%2243%22%3E%3CmxGeometry%20y%3D%2250%22%20width%3D%22280%22%20height%3D%2230%22%20as%3D%22geometry%22%2F%3E%3C%2FmxCell%3E%3CmxCell%20id%3D%2246%22%20value%3D%22%22%20style%3D%22line%3BstrokeWidth%3D3%3BfillColor%3Dnone%3Balign%3Dleft%3BverticalAlign%3Dmiddle%3BspacingTop%3D-1%3BspacingLeft%3D3%3BspacingRight%3D3%3Brotatable%3D0%3BlabelPosition%3Dright%3Bpoints%3D%5B%5D%3BportConstraint%3Deastwest%3BstrokeColor%3Dinherit%3BfontSize%3D12%3B%22%20vertex%3D%221%22%20parent%3D%2243%22%3E%3CmxGeometry%20y%3D%2280%22%20width%3D%22280%22%20height%3D%228%22%20as%3D%22geometry%22%2F%3E%3C%2FmxCell%3E%3CmxCell%20id%3D%2247%22%20value%3D%22-FormDataController()%26%2310%3B%2B%20setFormData(FormData%20formData)%3A%20void%26%2310%3B%2B%20setData(String%20key%2C%20String%20value)%3A%20void%26%2310%3B%2B%20showFormData()%3A%20void%26%2310%3B%2B%20getData(String%20key)%3A%20String%22%20style%3D%22text%3BstrokeColor%3Dnone%3BfillColor%3Dnone%3Balign%3Dleft%3BverticalAlign%3Dtop%3BspacingLeft%3D4%3BspacingRight%3D4%3Boverflow%3Dhidden%3Brotatable%3D0%3Bpoints%3D%5B%5B0%2C0.5%5D%2C%5B1%2C0.5%5D%5D%3BportConstraint%3Deastwest%3BfontSize%3D12%3BstrokeWidth%3D3%3B%22%20vertex%3D%221%22%20parent%3D%2243%22%3E%3CmxGeometry%20y%3D%2288%22%20width%3D%22280%22%20height%3D%2272%22%20as%3D%22geometry%22%2F%3E%3C%2FmxCell%3E%3CmxCell%20id%3D%2248%22%20value%3D%22%26lt%3Bspan%20style%3D%26quot%3Bcolor%3A%20rgb(0%2C%200%2C%200)%3B%20font-family%3A%20Helvetica%3B%20font-size%3A%2012px%3B%20font-style%3A%20normal%3B%20font-variant-ligatures%3A%20normal%3B%20font-variant-caps%3A%20normal%3B%20font-weight%3A%20400%3B%20letter-spacing%3A%20normal%3B%20orphans%3A%202%3B%20text-align%3A%20left%3B%20text-indent%3A%200px%3B%20text-transform%3A%20none%3B%20widows%3A%202%3B%20word-spacing%3A%200px%3B%20-webkit-text-stroke-width%3A%200px%3B%20background-color%3A%20rgb(255%2C%20255%2C%20255)%3B%20text-decoration-thickness%3A%20initial%3B%20text-decoration-style%3A%20initial%3B%20text-decoration-color%3A%20initial%3B%20float%3A%20none%3B%20display%3A%20inline%20!important%3B%26quot%3B%26gt%3B%26lt%3Bu%20style%3D%26quot%3Bfont-size%3A%2012px%3B%26quot%3B%26gt%3B%26amp%3Bnbsp%3B%2B%20getInstance()%3A%20FormDataController%26lt%3B%2Fu%26gt%3B%26lt%3B%2Fspan%26gt%3B%22%20style%3D%22text%3BwhiteSpace%3Dwrap%3Bhtml%3D1%3BfontSize%3D12%3BstrokeWidth%3D3%3B%22%20vertex%3D%221%22%20parent%3D%2243%22%3E%3CmxGeometry%20y%3D%22160%22%20width%3D%22280%22%20height%3D%2230%22%20as%3D%22geometry%22%2F%3E%3C%2FmxCell%3E%3CmxCell%20id%3D%2249%22%20value%3D%22TransactionController%22%20style%3D%22swimlane%3BfontStyle%3D1%3Balign%3Dcenter%3BverticalAlign%3Dtop%3BchildLayout%3DstackLayout%3Bhorizontal%3D1%3BstartSize%3D26%3BhorizontalStack%3D0%3BresizeParent%3D1%3BresizeParentMax%3D0%3BresizeLast%3D0%3Bcollapsible%3D1%3BmarginBottom%3D0%3BfillColor%3D%23d5e8d4%3BstrokeColor%3D%2382b366%3BfontSize%3D12%3BstrokeWidth%3D3%3B%22%20vertex%3D%221%22%20parent%3D%221%22%3E%3CmxGeometry%20x%3D%22-650%22%20y%3D%22400%22%20width%3D%22260%22%20height%3D%22160%22%20as%3D%22geometry%22%2F%3E%3C%2FmxCell%3E%3CmxCell%20id%3D%2250%22%20value%3D%22-%20transactionController%3A%20TransactionController%26%2310%3B-%20transaction%3A%20Transaction%22%20style%3D%22text%3BstrokeColor%3Dnone%3BfillColor%3Dnone%3Balign%3Dleft%3BverticalAlign%3Dtop%3BspacingLeft%3D4%3BspacingRight%3D4%3Boverflow%3Dhidden%3Brotatable%3D0%3Bpoints%3D%5B%5B0%2C0.5%5D%2C%5B1%2C0.5%5D%5D%3BportConstraint%3Deastwest%3BfontSize%3D12%3BstrokeWidth%3D3%3B%22%20vertex%3D%221%22%20parent%3D%2249%22%3E%3CmxGeometry%20y%3D%2226%22%20width%3D%22260%22%20height%3D%2244%22%20as%3D%22geometry%22%2F%3E%3C%2FmxCell%3E%3CmxCell%20id%3D%2251%22%20value%3D%22%22%20style%3D%22line%3BstrokeWidth%3D3%3BfillColor%3Dnone%3Balign%3Dleft%3BverticalAlign%3Dmiddle%3BspacingTop%3D-1%3BspacingLeft%3D3%3BspacingRight%3D3%3Brotatable%3D0%3BlabelPosition%3Dright%3Bpoints%3D%5B%5D%3BportConstraint%3Deastwest%3BstrokeColor%3Dinherit%3BfontSize%3D12%3B%22%20vertex%3D%221%22%20parent%3D%2249%22%3E%3CmxGeometry%20y%3D%2270%22%20width%3D%22260%22%20height%3D%228%22%20as%3D%22geometry%22%2F%3E%3C%2FmxCell%3E%3CmxCell%20id%3D%2252%22%20value%3D%22-TransactionController()%26%2310%3B%2B%20setTransaction(Transaction%20transaction)%26%2310%3B%22%20style%3D%22text%3BstrokeColor%3Dnone%3BfillColor%3Dnone%3Balign%3Dleft%3BverticalAlign%3Dtop%3BspacingLeft%3D4%3BspacingRight%3D4%3Boverflow%3Dhidden%3Brotatable%3D0%3Bpoints%3D%5B%5B0%2C0.5%5D%2C%5B1%2C0.5%5D%5D%3BportConstraint%3Deastwest%3BfontSize%3D12%3BstrokeWidth%3D3%3B%22%20vertex%3D%221%22%20parent%3D%2249%22%3E%3CmxGeometry%20y%3D%2278%22%20width%3D%22260%22%20height%3D%2242%22%20as%3D%22geometry%22%2F%3E%3C%2FmxCell%3E%3CmxCell%20id%3D%2253%22%20value%3D%22%26lt%3Bspan%20style%3D%26quot%3Bcolor%3A%20rgb(0%2C%200%2C%200)%3B%20font-family%3A%20Helvetica%3B%20font-size%3A%2012px%3B%20font-style%3A%20normal%3B%20font-variant-ligatures%3A%20normal%3B%20font-variant-caps%3A%20normal%3B%20font-weight%3A%20400%3B%20letter-spacing%3A%20normal%3B%20orphans%3A%202%3B%20text-align%3A%20left%3B%20text-indent%3A%200px%3B%20text-transform%3A%20none%3B%20widows%3A%202%3B%20word-spacing%3A%200px%3B%20-webkit-text-stroke-width%3A%200px%3B%20background-color%3A%20rgb(255%2C%20255%2C%20255)%3B%20text-decoration-thickness%3A%20initial%3B%20text-decoration-style%3A%20initial%3B%20text-decoration-color%3A%20initial%3B%20float%3A%20none%3B%20display%3A%20inline%20!important%3B%26quot%3B%26gt%3B%26lt%3Bu%20style%3D%26quot%3Bfont-size%3A%2012px%3B%26quot%3B%26gt%3B%26amp%3Bnbsp%3B%2BgetInstance()%3A%20TransactionController%26lt%3B%2Fu%26gt%3B%26lt%3B%2Fspan%26gt%3B%22%20style%3D%22text%3BwhiteSpace%3Dwrap%3Bhtml%3D1%3BfontSize%3D12%3BstrokeWidth%3D3%3B%22%20vertex%3D%221%22%20parent%3D%2249%22%3E%3CmxGeometry%20y%3D%22120%22%20width%3D%22260%22%20height%3D%2240%22%20as%3D%22geometry%22%2F%3E%3C%2FmxCell%3E%3CmxCell%20id%3D%2254%22%20value%3D%22RefundController%22%20style%3D%22swimlane%3BfontStyle%3D1%3Balign%3Dcenter%3BverticalAlign%3Dtop%3BchildLayout%3DstackLayout%3Bhorizontal%3D1%3BstartSize%3D26%3BhorizontalStack%3D0%3BresizeParent%3D1%3BresizeParentMax%3D0%3BresizeLast%3D0%3Bcollapsible%3D1%3BmarginBottom%3D0%3BfillColor%3D%23d5e8d4%3BstrokeColor%3D%2382b366%3B%22%20vertex%3D%221%22%20parent%3D%221%22%3E%3CmxGeometry%20x%3D%22-620%22%20y%3D%22140%22%20width%3D%22220%22%20height%3D%22200%22%20as%3D%22geometry%22%2F%3E%3C%2FmxCell%3E%3CmxCell%20id%3D%2255%22%20value%3D%22-%C2%A0%20refundController%3A%20RefundController%26%2310%3B-%20refund%3A%20Refund%22%20style%3D%22text%3BstrokeColor%3Dnone%3BfillColor%3Dnone%3Balign%3Dleft%3BverticalAlign%3Dtop%3BspacingLeft%3D4%3BspacingRight%3D4%3Boverflow%3Dhidden%3Brotatable%3D0%3Bpoints%3D%5B%5B0%2C0.5%5D%2C%5B1%2C0.5%5D%5D%3BportConstraint%3Deastwest%3B%22%20vertex%3D%221%22%20parent%3D%2254%22%3E%3CmxGeometry%20y%3D%2226%22%20width%3D%22220%22%20height%3D%2234%22%20as%3D%22geometry%22%2F%3E%3C%2FmxCell%3E%3CmxCell%20id%3D%2256%22%20value%3D%22%22%20style%3D%22line%3BstrokeWidth%3D1%3BfillColor%3Dnone%3Balign%3Dleft%3BverticalAlign%3Dmiddle%3BspacingTop%3D-1%3BspacingLeft%3D3%3BspacingRight%3D3%3Brotatable%3D0%3BlabelPosition%3Dright%3Bpoints%3D%5B%5D%3BportConstraint%3Deastwest%3BstrokeColor%3Dinherit%3B%22%20vertex%3D%221%22%20parent%3D%2254%22%3E%3CmxGeometry%20y%3D%2260%22%20width%3D%22220%22%20height%3D%228%22%20as%3D%22geometry%22%2F%3E%3C%2FmxCell%3E%3CmxCell%20id%3D%2257%22%20value%3D%22-%20RefundController()%26%2310%3B%2B%20getRefundState()%3A%20RefundState%26%2310%3B%2BacceptRefund()%20%3A%20void%26%2310%3B%2BsetRefund(Refund%20refund)%20%3A%20void%26%2310%3B%2BrejectRefund()%20%3A%20void%26%2310%3B%2B%20getCuntomer()%3A%20Customer%26%2310%3B%22%20style%3D%22text%3BstrokeColor%3Dnone%3BfillColor%3Dnone%3Balign%3Dleft%3BverticalAlign%3Dtop%3BspacingLeft%3D4%3BspacingRight%3D4%3Boverflow%3Dhidden%3Brotatable%3D0%3Bpoints%3D%5B%5B0%2C0.5%5D%2C%5B1%2C0.5%5D%5D%3BportConstraint%3Deastwest%3B%22%20vertex%3D%221%22%20parent%3D%2254%22%3E%3CmxGeometry%20y%3D%2268%22%20width%3D%22220%22%20height%3D%2292%22%20as%3D%22geometry%22%2F%3E%3C%2FmxCell%3E%3CmxCell%20id%3D%2258%22%20value%3D%22%26lt%3Bspan%20style%3D%26quot%3Bcolor%3A%20rgb(0%2C%200%2C%200)%3B%20font-family%3A%20Helvetica%3B%20font-size%3A%2012px%3B%20font-style%3A%20normal%3B%20font-variant-ligatures%3A%20normal%3B%20font-variant-caps%3A%20normal%3B%20font-weight%3A%20400%3B%20letter-spacing%3A%20normal%3B%20orphans%3A%202%3B%20text-align%3A%20left%3B%20text-indent%3A%200px%3B%20text-transform%3A%20none%3B%20widows%3A%202%3B%20word-spacing%3A%200px%3B%20-webkit-text-stroke-width%3A%200px%3B%20background-color%3A%20rgb(255%2C%20255%2C%20255)%3B%20text-decoration-thickness%3A%20initial%3B%20text-decoration-style%3A%20initial%3B%20text-decoration-color%3A%20initial%3B%20float%3A%20none%3B%20display%3A%20inline%20!important%3B%26quot%3B%26gt%3B%26lt%3Bu%20style%3D%26quot%3Bfont-size%3A%2012px%3B%26quot%3B%26gt%3B%26amp%3Bnbsp%3B%2BgetInstance()%3A%20RefundController%26lt%3B%2Fu%26gt%3B%26lt%3B%2Fspan%26gt%3B%22%20style%3D%22text%3BwhiteSpace%3Dwrap%3Bhtml%3D1%3BfontSize%3D12%3BstrokeWidth%3D3%3B%22%20vertex%3D%221%22%20parent%3D%2254%22%3E%3CmxGeometry%20y%3D%22160%22%20width%3D%22220%22%20height%3D%2240%22%20as%3D%22geometry%22%2F%3E%3C%2FmxCell%3E%3C%2Froot%3E%3C%2FmxGraphModel%3E&lt;/span&gt;" style="shape=folder;fontStyle=1;spacingTop=10;tabWidth=110;tabHeight=40;tabPosition=left;html=1;fontSize=15;" vertex="1" parent="1">
          <mxGeometry x="1075" y="120" width="1130" height="680" as="geometry" />
        </mxCell>
        <mxCell id="vxT1wsiQC9Di06yWpwA8-88" value="&lt;b&gt;Controller&lt;/b&gt;" style="text;html=1;align=center;verticalAlign=middle;resizable=0;points=[];autosize=1;strokeColor=none;fillColor=none;fontSize=15;" vertex="1" parent="1">
          <mxGeometry x="1075" y="120" width="100" height="30" as="geometry" />
        </mxCell>
        <mxCell id="vxT1wsiQC9Di06yWpwA8-89" value="&lt;span style=&quot;color: rgba(0, 0, 0, 0); font-family: monospace; font-size: 0px; font-weight: 400; text-align: start;&quot;&gt;%3CmxGraphModel%3E%3Croot%3E%3CmxCell%20id%3D%220%22%2F%3E%3CmxCell%20id%3D%221%22%20parent%3D%220%22%2F%3E%3CmxCell%20id%3D%222%22%20value%3D%22PaymentData%22%20style%3D%22swimlane%3BfontStyle%3D1%3Balign%3Dcenter%3BverticalAlign%3Dtop%3BchildLayout%3DstackLayout%3Bhorizontal%3D1%3BstartSize%3D26%3BhorizontalStack%3D0%3BresizeParent%3D1%3BresizeParentMax%3D0%3BresizeLast%3D0%3Bcollapsible%3D1%3BmarginBottom%3D0%3BfillColor%3D%23d5e8d4%3BstrokeColor%3D%2382b366%3BfontSize%3D12%3BstrokeWidth%3D3%3B%22%20vertex%3D%221%22%20parent%3D%221%22%3E%3CmxGeometry%20x%3D%22970%22%20y%3D%22-20%22%20width%3D%22210%22%20height%3D%22150%22%20as%3D%22geometry%22%3E%3CmxRectangle%20x%3D%22-470%22%20y%3D%221450%22%20width%3D%22120%22%20height%3D%2230%22%20as%3D%22alternateBounds%22%2F%3E%3C%2FmxGeometry%3E%3C%2FmxCell%3E%3CmxCell%20id%3D%223%22%20value%3D%22-%20payments%3A%20Vector%26lt%3BPayment%26gt%3B%22%20style%3D%22text%3BstrokeColor%3Dnone%3BfillColor%3Dnone%3Balign%3Dleft%3BverticalAlign%3Dtop%3BspacingLeft%3D4%3BspacingRight%3D4%3Boverflow%3Dhidden%3Brotatable%3D0%3Bpoints%3D%5B%5B0%2C0.5%5D%2C%5B1%2C0.5%5D%5D%3BportConstraint%3Deastwest%3BfontSize%3D12%3BstrokeWidth%3D3%3B%22%20vertex%3D%221%22%20parent%3D%222%22%3E%3CmxGeometry%20y%3D%2226%22%20width%3D%22210%22%20height%3D%2224%22%20as%3D%22geometry%22%2F%3E%3C%2FmxCell%3E%3CmxCell%20id%3D%224%22%20value%3D%22%26lt%3Bdiv%20style%3D%26quot%3Bfont-size%3A%2012px%3B%26quot%3B%26gt%3B%26lt%3Bu%20style%3D%26quot%3Bfont-size%3A%2012px%3B%20background-color%3A%20initial%3B%26quot%3B%26gt%3B-%20paymentData%3A%20PaymentData%26lt%3B%2Fu%26gt%3B%26lt%3B%2Fdiv%26gt%3B%22%20style%3D%22text%3Bhtml%3D1%3Balign%3Dleft%3BverticalAlign%3Dmiddle%3Bresizable%3D0%3Bpoints%3D%5B%5D%3Bautosize%3D1%3BstrokeColor%3Dnone%3BfillColor%3Dnone%3BfontSize%3D12%3BstrokeWidth%3D3%3B%22%20vertex%3D%221%22%20parent%3D%222%22%3E%3CmxGeometry%20y%3D%2250%22%20width%3D%22210%22%20height%3D%2230%22%20as%3D%22geometry%22%2F%3E%3C%2FmxCell%3E%3CmxCell%20id%3D%225%22%20value%3D%22%22%20style%3D%22line%3BstrokeWidth%3D3%3BfillColor%3Dnone%3Balign%3Dleft%3BverticalAlign%3Dmiddle%3BspacingTop%3D-1%3BspacingLeft%3D3%3BspacingRight%3D3%3Brotatable%3D0%3BlabelPosition%3Dright%3Bpoints%3D%5B%5D%3BportConstraint%3Deastwest%3BstrokeColor%3Dinherit%3BfontSize%3D12%3B%22%20vertex%3D%221%22%20parent%3D%222%22%3E%3CmxGeometry%20y%3D%2280%22%20width%3D%22210%22%20height%3D%228%22%20as%3D%22geometry%22%2F%3E%3C%2FmxCell%3E%3CmxCell%20id%3D%226%22%20value%3D%22-PaymentData()%26%2310%3B%2B%20getPayments()%3A%20Vector%26lt%3BPayment%26gt%3B%22%20style%3D%22text%3BstrokeColor%3Dnone%3BfillColor%3Dnone%3Balign%3Dleft%3BverticalAlign%3Dtop%3BspacingLeft%3D4%3BspacingRight%3D4%3Boverflow%3Dhidden%3Brotatable%3D0%3Bpoints%3D%5B%5B0%2C0.5%5D%2C%5B1%2C0.5%5D%5D%3BportConstraint%3Deastwest%3BfontSize%3D12%3BstrokeWidth%3D3%3B%22%20vertex%3D%221%22%20parent%3D%222%22%3E%3CmxGeometry%20y%3D%2288%22%20width%3D%22210%22%20height%3D%2232%22%20as%3D%22geometry%22%2F%3E%3C%2FmxCell%3E%3CmxCell%20id%3D%227%22%20value%3D%22%26lt%3Bspan%20style%3D%26quot%3Bcolor%3A%20rgb(0%2C%200%2C%200)%3B%20font-family%3A%20Helvetica%3B%20font-size%3A%2012px%3B%20font-style%3A%20normal%3B%20font-variant-ligatures%3A%20normal%3B%20font-variant-caps%3A%20normal%3B%20font-weight%3A%20400%3B%20letter-spacing%3A%20normal%3B%20orphans%3A%202%3B%20text-align%3A%20left%3B%20text-indent%3A%200px%3B%20text-transform%3A%20none%3B%20widows%3A%202%3B%20word-spacing%3A%200px%3B%20-webkit-text-stroke-width%3A%200px%3B%20background-color%3A%20rgb(255%2C%20255%2C%20255)%3B%20text-decoration-thickness%3A%20initial%3B%20text-decoration-style%3A%20initial%3B%20text-decoration-color%3A%20initial%3B%20float%3A%20none%3B%20display%3A%20inline%20!important%3B%26quot%3B%26gt%3B%26lt%3Bu%20style%3D%26quot%3Bfont-size%3A%2012px%3B%26quot%3B%26gt%3B%26amp%3Bnbsp%3B%2B%20getInstance()%3A%20PaymentData%26lt%3B%2Fu%26gt%3B%26lt%3B%2Fspan%26gt%3B%22%20style%3D%22text%3BwhiteSpace%3Dwrap%3Bhtml%3D1%3BfontSize%3D12%3BstrokeWidth%3D3%3B%22%20vertex%3D%221%22%20parent%3D%222%22%3E%3CmxGeometry%20y%3D%22120%22%20width%3D%22210%22%20height%3D%2230%22%20as%3D%22geometry%22%2F%3E%3C%2FmxCell%3E%3CmxCell%20id%3D%228%22%20value%3D%22ServiceData%22%20style%3D%22swimlane%3BfontStyle%3D1%3Balign%3Dcenter%3BverticalAlign%3Dtop%3BchildLayout%3DstackLayout%3Bhorizontal%3D1%3BstartSize%3D26%3BhorizontalStack%3D0%3BresizeParent%3D1%3BresizeParentMax%3D0%3BresizeLast%3D0%3Bcollapsible%3D1%3BmarginBottom%3D0%3BfillColor%3D%23d5e8d4%3BstrokeColor%3D%2382b366%3BfontSize%3D12%3BstrokeWidth%3D3%3B%22%20vertex%3D%221%22%20parent%3D%221%22%3E%3CmxGeometry%20x%3D%22720%22%20y%3D%22-130%22%20width%3D%22200%22%20height%3D%22150%22%20as%3D%22geometry%22%2F%3E%3C%2FmxCell%3E%3CmxCell%20id%3D%229%22%20value%3D%22-%20services%20%3A%20Vector%26lt%3BServices%26gt%3B%22%20style%3D%22text%3BstrokeColor%3Dnone%3BfillColor%3Dnone%3Balign%3Dleft%3BverticalAlign%3Dtop%3BspacingLeft%3D4%3BspacingRight%3D4%3Boverflow%3Dhidden%3Brotatable%3D0%3Bpoints%3D%5B%5B0%2C0.5%5D%2C%5B1%2C0.5%5D%5D%3BportConstraint%3Deastwest%3BfontSize%3D12%3BstrokeWidth%3D3%3B%22%20vertex%3D%221%22%20parent%3D%228%22%3E%3CmxGeometry%20y%3D%2226%22%20width%3D%22200%22%20height%3D%2224%22%20as%3D%22geometry%22%2F%3E%3C%2FmxCell%3E%3CmxCell%20id%3D%2210%22%20value%3D%22%26lt%3Bdiv%20style%3D%26quot%3Bfont-size%3A%2012px%3B%26quot%3B%26gt%3B%26lt%3Bspan%20style%3D%26quot%3Bfont-size%3A%2012px%3B%20background-color%3A%20initial%3B%26quot%3B%26gt%3B%26lt%3Bu%20style%3D%26quot%3Bfont-size%3A%2012px%3B%26quot%3B%26gt%3B%26amp%3Bnbsp%3B-serviceData%20%3A%20ServiceData%26lt%3B%2Fu%26gt%3B%26lt%3B%2Fspan%26gt%3B%26lt%3B%2Fdiv%26gt%3B%22%20style%3D%22text%3Bhtml%3D1%3Balign%3Dleft%3BverticalAlign%3Dmiddle%3Bresizable%3D0%3Bpoints%3D%5B%5D%3Bautosize%3D1%3BstrokeColor%3Dnone%3BfillColor%3Dnone%3BfontSize%3D12%3BstrokeWidth%3D3%3B%22%20vertex%3D%221%22%20parent%3D%228%22%3E%3CmxGeometry%20y%3D%2250%22%20width%3D%22200%22%20height%3D%2230%22%20as%3D%22geometry%22%2F%3E%3C%2FmxCell%3E%3CmxCell%20id%3D%2211%22%20value%3D%22%22%20style%3D%22line%3BstrokeWidth%3D3%3BfillColor%3Dnone%3Balign%3Dleft%3BverticalAlign%3Dmiddle%3BspacingTop%3D-1%3BspacingLeft%3D3%3BspacingRight%3D3%3Brotatable%3D0%3BlabelPosition%3Dright%3Bpoints%3D%5B%5D%3BportConstraint%3Deastwest%3BstrokeColor%3Dinherit%3BfontSize%3D12%3B%22%20vertex%3D%221%22%20parent%3D%228%22%3E%3CmxGeometry%20y%3D%2280%22%20width%3D%22200%22%20height%3D%228%22%20as%3D%22geometry%22%2F%3E%3C%2FmxCell%3E%3CmxCell%20id%3D%2212%22%20value%3D%22-ServiceData()%26%2310%3B%2BgetServices()%20%3A%20Vectro%26lt%3BServices%26gt%3B%22%20style%3D%22text%3BstrokeColor%3Dnone%3BfillColor%3Dnone%3Balign%3Dleft%3BverticalAlign%3Dtop%3BspacingLeft%3D4%3BspacingRight%3D4%3Boverflow%3Dhidden%3Brotatable%3D0%3Bpoints%3D%5B%5B0%2C0.5%5D%2C%5B1%2C0.5%5D%5D%3BportConstraint%3Deastwest%3BfontSize%3D12%3BstrokeWidth%3D3%3B%22%20vertex%3D%221%22%20parent%3D%228%22%3E%3CmxGeometry%20y%3D%2288%22%20width%3D%22200%22%20height%3D%2232%22%20as%3D%22geometry%22%2F%3E%3C%2FmxCell%3E%3CmxCell%20id%3D%2213%22%20value%3D%22%26lt%3Bspan%20style%3D%26quot%3Bcolor%3A%20rgb(0%2C%200%2C%200)%3B%20font-family%3A%20Helvetica%3B%20font-size%3A%2012px%3B%20font-style%3A%20normal%3B%20font-variant-ligatures%3A%20normal%3B%20font-variant-caps%3A%20normal%3B%20font-weight%3A%20400%3B%20letter-spacing%3A%20normal%3B%20orphans%3A%202%3B%20text-align%3A%20left%3B%20text-indent%3A%200px%3B%20text-transform%3A%20none%3B%20widows%3A%202%3B%20word-spacing%3A%200px%3B%20-webkit-text-stroke-width%3A%200px%3B%20background-color%3A%20rgb(255%2C%20255%2C%20255)%3B%20text-decoration-thickness%3A%20initial%3B%20text-decoration-style%3A%20initial%3B%20text-decoration-color%3A%20initial%3B%20float%3A%20none%3B%20display%3A%20inline%20!important%3B%26quot%3B%26gt%3B%26lt%3Bu%20style%3D%26quot%3Bfont-size%3A%2012px%3B%26quot%3B%26gt%3B%26amp%3Bnbsp%3B%2BgetInstance()%20%3A%20ServeceData%26lt%3B%2Fu%26gt%3B%26lt%3B%2Fspan%26gt%3B%22%20style%3D%22text%3BwhiteSpace%3Dwrap%3Bhtml%3D1%3BfontSize%3D12%3BstrokeWidth%3D3%3B%22%20vertex%3D%221%22%20parent%3D%228%22%3E%3CmxGeometry%20y%3D%22120%22%20width%3D%22200%22%20height%3D%2230%22%20as%3D%22geometry%22%2F%3E%3C%2FmxCell%3E%3C%2Froot%3E%3C%2FmxGraphModel%3E&lt;/span&gt;" style="shape=folder;fontStyle=1;spacingTop=10;tabWidth=85;tabHeight=35;tabPosition=left;html=1;fontSize=15;" vertex="1" parent="1">
          <mxGeometry x="40" y="520" width="280" height="280" as="geometry" />
        </mxCell>
        <mxCell id="vxT1wsiQC9Di06yWpwA8-102" value="&lt;b&gt;DataSet&amp;nbsp;&lt;/b&gt;" style="text;html=1;align=center;verticalAlign=middle;resizable=0;points=[];autosize=1;strokeColor=none;fillColor=none;fontSize=15;" vertex="1" parent="1">
          <mxGeometry x="40" y="525" width="80" height="30" as="geometry" />
        </mxCell>
        <mxCell id="vxT1wsiQC9Di06yWpwA8-103" value="" style="shape=folder;fontStyle=1;spacingTop=10;tabWidth=90;tabHeight=30;tabPosition=left;html=1;" vertex="1" parent="1">
          <mxGeometry x="430" y="520" width="320" height="240" as="geometry" />
        </mxCell>
        <mxCell id="vxT1wsiQC9Di06yWpwA8-113" value="&lt;b&gt;Discount&lt;/b&gt;" style="text;html=1;align=center;verticalAlign=middle;resizable=0;points=[];autosize=1;strokeColor=none;fillColor=none;fontSize=15;" vertex="1" parent="1">
          <mxGeometry x="430" y="520" width="90" height="30" as="geometry" />
        </mxCell>
        <mxCell id="vxT1wsiQC9Di06yWpwA8-175" value="&lt;b&gt;Models&lt;/b&gt;" style="text;html=1;align=center;verticalAlign=middle;resizable=0;points=[];autosize=1;strokeColor=none;fillColor=none;fontSize=15;" vertex="1" parent="1">
          <mxGeometry x="40" y="930" width="80" height="30" as="geometry" />
        </mxCell>
        <mxCell id="vxT1wsiQC9Di06yWpwA8-176" value="" style="shape=folder;fontStyle=1;spacingTop=10;tabWidth=90;tabHeight=30;tabPosition=left;html=1;" vertex="1" parent="1">
          <mxGeometry x="1280" y="1040" width="680" height="220" as="geometry" />
        </mxCell>
        <mxCell id="vxT1wsiQC9Di06yWpwA8-189" value="&lt;b&gt;Payment&lt;/b&gt;" style="text;html=1;align=center;verticalAlign=middle;resizable=0;points=[];autosize=1;strokeColor=none;fillColor=none;fontSize=15;" vertex="1" parent="1">
          <mxGeometry x="1280" y="1040" width="90" height="30" as="geometry" />
        </mxCell>
        <mxCell id="vxT1wsiQC9Di06yWpwA8-190" value="" style="shape=folder;fontStyle=1;spacingTop=10;tabWidth=110;tabHeight=30;tabPosition=left;html=1;" vertex="1" parent="1">
          <mxGeometry x="2160" y="1000" width="540" height="270" as="geometry" />
        </mxCell>
        <mxCell id="vxT1wsiQC9Di06yWpwA8-191" value="&lt;b&gt;Registration&lt;/b&gt;" style="text;html=1;align=center;verticalAlign=middle;resizable=0;points=[];autosize=1;strokeColor=none;fillColor=none;fontSize=15;" vertex="1" parent="1">
          <mxGeometry x="2160" y="1000" width="110" height="30" as="geometry" />
        </mxCell>
        <mxCell id="vxT1wsiQC9Di06yWpwA8-200" value="&lt;p style=&quot;margin: 4px 0px 0px; text-align: center; font-size: 12px;&quot;&gt;&lt;i style=&quot;font-size: 12px;&quot;&gt;&amp;lt;&amp;lt;Interface&amp;gt;&amp;gt;&lt;/i&gt;&lt;br style=&quot;font-size: 12px;&quot;&gt;&lt;b style=&quot;font-size: 12px;&quot;&gt;SignIn&lt;/b&gt;&lt;/p&gt;&lt;p style=&quot;margin: 0px 0px 0px 4px; font-size: 12px;&quot;&gt;&lt;br&gt;&lt;/p&gt;" style="verticalAlign=top;align=left;overflow=fill;fontSize=12;fontFamily=Helvetica;html=1;fillColor=#d5e8d4;strokeColor=#82b366;strokeWidth=3;" vertex="1" parent="1">
          <mxGeometry x="2450" y="1060" width="190" height="60" as="geometry" />
        </mxCell>
        <mxCell id="vxT1wsiQC9Di06yWpwA8-202" value="&lt;p style=&quot;margin: 4px 0px 0px; text-align: center; font-size: 12px;&quot;&gt;&lt;i style=&quot;font-size: 12px;&quot;&gt;&amp;lt;&amp;lt;Interface&amp;gt;&amp;gt;&lt;/i&gt;&lt;br style=&quot;font-size: 12px;&quot;&gt;&lt;/p&gt;&lt;p style=&quot;margin: 4px 0px 0px; text-align: center; font-size: 12px;&quot;&gt;&lt;b style=&quot;font-size: 12px;&quot;&gt;SignUp&lt;/b&gt;&lt;/p&gt;&lt;p style=&quot;margin: 0px 0px 0px 4px; font-size: 12px;&quot;&gt;&lt;br&gt;&lt;/p&gt;" style="verticalAlign=top;align=left;overflow=fill;fontSize=12;fontFamily=Helvetica;html=1;fillColor=#d5e8d4;strokeColor=#82b366;strokeWidth=3;" vertex="1" parent="1">
          <mxGeometry x="2220" y="1060" width="190" height="60" as="geometry" />
        </mxCell>
        <mxCell id="vxT1wsiQC9Di06yWpwA8-204" value="" style="shape=folder;fontStyle=1;spacingTop=10;tabWidth=90;tabHeight=30;tabPosition=left;html=1;" vertex="1" parent="1">
          <mxGeometry x="1300" y="1385" width="290" height="230" as="geometry" />
        </mxCell>
        <mxCell id="vxT1wsiQC9Di06yWpwA8-205" value="&lt;b&gt;Search&lt;/b&gt;" style="text;html=1;align=center;verticalAlign=middle;resizable=0;points=[];autosize=1;strokeColor=none;fillColor=none;fontSize=15;" vertex="1" parent="1">
          <mxGeometry x="1310" y="1385" width="70" height="30" as="geometry" />
        </mxCell>
        <mxCell id="vxT1wsiQC9Di06yWpwA8-206" value="&lt;p style=&quot;margin: 4px 0px 0px; text-align: center; font-size: 12px;&quot;&gt;&lt;i style=&quot;font-size: 12px;&quot;&gt;&amp;lt;&amp;lt;Interface&amp;gt;&amp;gt;&lt;/i&gt;&lt;br style=&quot;font-size: 12px;&quot;&gt;&lt;b style=&quot;font-size: 12px;&quot;&gt;Search&lt;/b&gt;&lt;/p&gt;&lt;p style=&quot;margin: 0px 0px 0px 4px; font-size: 12px;&quot;&gt;&lt;br&gt;&lt;/p&gt;" style="verticalAlign=top;align=left;overflow=fill;fontSize=12;fontFamily=Helvetica;html=1;fillColor=#d5e8d4;strokeColor=#82b366;strokeWidth=3;" vertex="1" parent="1">
          <mxGeometry x="1320" y="1435" width="200" height="50" as="geometry" />
        </mxCell>
        <mxCell id="vxT1wsiQC9Di06yWpwA8-229" value="&lt;b&gt;Service&lt;/b&gt;" style="text;html=1;align=center;verticalAlign=middle;resizable=0;points=[];autosize=1;strokeColor=none;fillColor=none;fontSize=15;" vertex="1" parent="1">
          <mxGeometry x="1860" y="1375" width="80" height="30" as="geometry" />
        </mxCell>
        <mxCell id="vxT1wsiQC9Di06yWpwA8-235" value="&lt;b&gt;Time&lt;/b&gt;" style="text;html=1;align=center;verticalAlign=middle;resizable=0;points=[];autosize=1;strokeColor=none;fillColor=none;fontSize=15;" vertex="1" parent="1">
          <mxGeometry x="1320" y="1735" width="60" height="30" as="geometry" />
        </mxCell>
        <mxCell id="vxT1wsiQC9Di06yWpwA8-236" value="" style="shape=folder;fontStyle=1;spacingTop=10;tabWidth=120;tabHeight=30;tabPosition=left;html=1;" vertex="1" parent="1">
          <mxGeometry x="80" y="1735" width="520" height="305" as="geometry" />
        </mxCell>
        <mxCell id="vxT1wsiQC9Di06yWpwA8-250" value="&lt;b&gt;Transaction&lt;/b&gt;" style="text;html=1;align=center;verticalAlign=middle;resizable=0;points=[];autosize=1;strokeColor=none;fillColor=none;fontSize=15;" vertex="1" parent="1">
          <mxGeometry x="80" y="1735" width="110" height="30" as="geometry" />
        </mxCell>
        <mxCell id="vxT1wsiQC9Di06yWpwA8-251" value="" style="shape=folder;fontStyle=1;spacingTop=10;tabWidth=60;tabHeight=30;tabPosition=left;html=1;" vertex="1" parent="1">
          <mxGeometry x="860" y="1735" width="210" height="150" as="geometry" />
        </mxCell>
        <mxCell id="vxT1wsiQC9Di06yWpwA8-256" value="&lt;b&gt;View&lt;/b&gt;" style="text;html=1;align=center;verticalAlign=middle;resizable=0;points=[];autosize=1;strokeColor=none;fillColor=none;fontSize=15;" vertex="1" parent="1">
          <mxGeometry x="860" y="1735" width="60" height="30" as="geometry" />
        </mxCell>
        <mxCell id="vxT1wsiQC9Di06yWpwA8-257" value="&lt;p style=&quot;margin:0px;margin-top:4px;text-align:center;&quot;&gt;&lt;br&gt;&lt;span style=&quot;font-weight: 700;&quot;&gt;ServiceController&lt;/span&gt;&lt;br&gt;&lt;/p&gt;" style="verticalAlign=top;align=left;overflow=fill;fontSize=12;fontFamily=Helvetica;html=1;strokeWidth=3;fillColor=#d5e8d4;strokeColor=#82b366;" vertex="1" parent="1">
          <mxGeometry x="1180" y="210" width="140" height="60" as="geometry" />
        </mxCell>
        <mxCell id="vxT1wsiQC9Di06yWpwA8-258" value="&lt;p style=&quot;margin:0px;margin-top:4px;text-align:center;&quot;&gt;&lt;br&gt;&lt;span style=&quot;font-weight: 700;&quot;&gt;TransactionController&lt;/span&gt;&lt;br&gt;&lt;/p&gt;" style="verticalAlign=top;align=left;overflow=fill;fontSize=12;fontFamily=Helvetica;html=1;strokeWidth=3;fillColor=#d5e8d4;strokeColor=#82b366;" vertex="1" parent="1">
          <mxGeometry x="1905" y="215" width="140" height="60" as="geometry" />
        </mxCell>
        <mxCell id="vxT1wsiQC9Di06yWpwA8-259" value="&lt;p style=&quot;margin:0px;margin-top:4px;text-align:center;&quot;&gt;&lt;br&gt;&lt;span style=&quot;font-weight: 700;&quot;&gt;UserController&lt;/span&gt;&lt;br&gt;&lt;/p&gt;" style="verticalAlign=top;align=left;overflow=fill;fontSize=12;fontFamily=Helvetica;html=1;strokeWidth=3;fillColor=#d5e8d4;strokeColor=#82b366;" vertex="1" parent="1">
          <mxGeometry x="1125" y="545" width="140" height="60" as="geometry" />
        </mxCell>
        <mxCell id="vxT1wsiQC9Di06yWpwA8-260" value="&lt;p style=&quot;text-align: center; margin: 4px 0px 0px;&quot;&gt;&lt;br&gt;&lt;/p&gt;&lt;p style=&quot;text-align: center; margin: 4px 0px 0px;&quot;&gt;&lt;span style=&quot;font-weight: 700;&quot;&gt;PaymentController&lt;/span&gt;&lt;br&gt;&lt;/p&gt;" style="verticalAlign=top;align=left;overflow=fill;fontSize=12;fontFamily=Helvetica;html=1;strokeWidth=3;fillColor=#d5e8d4;strokeColor=#82b366;" vertex="1" parent="1">
          <mxGeometry x="1485" y="230" width="140" height="60" as="geometry" />
        </mxCell>
        <mxCell id="vxT1wsiQC9Di06yWpwA8-261" value="&lt;p style=&quot;margin:0px;margin-top:4px;text-align:center;&quot;&gt;&lt;br&gt;&lt;span style=&quot;font-weight: 700;&quot;&gt;RefundController&lt;/span&gt;&lt;br&gt;&lt;/p&gt;" style="verticalAlign=top;align=left;overflow=fill;fontSize=12;fontFamily=Helvetica;html=1;strokeWidth=3;fillColor=#d5e8d4;strokeColor=#82b366;" vertex="1" parent="1">
          <mxGeometry x="1985" y="440" width="140" height="60" as="geometry" />
        </mxCell>
        <mxCell id="vxT1wsiQC9Di06yWpwA8-262" value="&lt;p style=&quot;margin:0px;margin-top:4px;text-align:center;&quot;&gt;&lt;br&gt;&lt;span style=&quot;font-weight: 700;&quot;&gt;FormDataController&lt;/span&gt;&lt;br&gt;&lt;/p&gt;" style="verticalAlign=top;align=left;overflow=fill;fontSize=12;fontFamily=Helvetica;html=1;strokeWidth=3;fillColor=#d5e8d4;strokeColor=#82b366;" vertex="1" parent="1">
          <mxGeometry x="1705" y="370" width="140" height="60" as="geometry" />
        </mxCell>
        <mxCell id="vxT1wsiQC9Di06yWpwA8-263" value="&lt;p style=&quot;margin:0px;margin-top:4px;text-align:center;&quot;&gt;&lt;br&gt;&lt;span style=&quot;font-weight: 700;&quot;&gt;CustomerController&lt;/span&gt;&lt;br&gt;&lt;/p&gt;" style="verticalAlign=top;align=left;overflow=fill;fontSize=12;fontFamily=Helvetica;html=1;strokeWidth=3;fillColor=#d5e8d4;strokeColor=#82b366;" vertex="1" parent="1">
          <mxGeometry x="1525" y="470" width="140" height="60" as="geometry" />
        </mxCell>
        <mxCell id="vxT1wsiQC9Di06yWpwA8-264" value="&lt;p style=&quot;margin:0px;margin-top:4px;text-align:center;&quot;&gt;&lt;br&gt;&lt;span style=&quot;font-weight: 700;&quot;&gt;FormController&lt;/span&gt;&lt;br&gt;&lt;/p&gt;" style="verticalAlign=top;align=left;overflow=fill;fontSize=12;fontFamily=Helvetica;html=1;strokeWidth=3;fillColor=#d5e8d4;strokeColor=#82b366;" vertex="1" parent="1">
          <mxGeometry x="1135" y="380" width="140" height="60" as="geometry" />
        </mxCell>
        <mxCell id="vxT1wsiQC9Di06yWpwA8-265" value="&lt;p style=&quot;margin:0px;margin-top:4px;text-align:center;&quot;&gt;&lt;br&gt;&lt;span style=&quot;font-weight: 700;&quot;&gt;AdminController&lt;/span&gt;&lt;br&gt;&lt;/p&gt;" style="verticalAlign=top;align=left;overflow=fill;fontSize=12;fontFamily=Helvetica;html=1;strokeWidth=3;fillColor=#d5e8d4;strokeColor=#82b366;" vertex="1" parent="1">
          <mxGeometry x="1765" y="595" width="140" height="60" as="geometry" />
        </mxCell>
        <mxCell id="vxT1wsiQC9Di06yWpwA8-266" value="&lt;p style=&quot;margin:0px;margin-top:4px;text-align:center;&quot;&gt;&lt;br&gt;&lt;span style=&quot;font-weight: 700;&quot;&gt;DiscountController&lt;/span&gt;&lt;br&gt;&lt;/p&gt;" style="verticalAlign=top;align=left;overflow=fill;fontSize=12;fontFamily=Helvetica;html=1;strokeWidth=3;fillColor=#d5e8d4;strokeColor=#82b366;" vertex="1" parent="1">
          <mxGeometry x="1385" y="630" width="140" height="60" as="geometry" />
        </mxCell>
        <mxCell id="vxT1wsiQC9Di06yWpwA8-267" value="&lt;p style=&quot;text-align: center; margin: 4px 0px 0px;&quot;&gt;&lt;span style=&quot;font-weight: 700;&quot;&gt;&lt;br&gt;&lt;/span&gt;&lt;/p&gt;&lt;p style=&quot;text-align: center; margin: 4px 0px 0px;&quot;&gt;&lt;span style=&quot;font-weight: 700;&quot;&gt;Wallet&lt;/span&gt;&lt;br&gt;&lt;/p&gt;" style="verticalAlign=top;align=left;overflow=fill;fontSize=12;fontFamily=Helvetica;html=1;strokeWidth=3;fillColor=#d5e8d4;strokeColor=#82b366;" vertex="1" parent="1">
          <mxGeometry x="610" y="80" width="140" height="60" as="geometry" />
        </mxCell>
        <mxCell id="vxT1wsiQC9Di06yWpwA8-268" value="&lt;p style=&quot;text-align: center; margin: 4px 0px 0px;&quot;&gt;&lt;br&gt;&lt;/p&gt;&lt;p style=&quot;text-align: center; margin: 4px 0px 0px;&quot;&gt;&lt;span style=&quot;font-weight: 700;&quot;&gt;CreditCard&lt;/span&gt;&lt;br&gt;&lt;/p&gt;" style="verticalAlign=top;align=left;overflow=fill;fontSize=12;fontFamily=Helvetica;html=1;strokeWidth=3;fillColor=#d5e8d4;strokeColor=#82b366;" vertex="1" parent="1">
          <mxGeometry x="720" y="180" width="140" height="60" as="geometry" />
        </mxCell>
        <mxCell id="vxT1wsiQC9Di06yWpwA8-270" value="&lt;p style=&quot;text-align: center; margin: 4px 0px 0px;&quot;&gt;&lt;b&gt;&lt;br&gt;&lt;/b&gt;&lt;/p&gt;&lt;p style=&quot;text-align: center; margin: 4px 0px 0px;&quot;&gt;&lt;b&gt;AdminAPI&lt;/b&gt;&lt;/p&gt;&lt;div style=&quot;padding: 0px; margin: 0px;&quot;&gt;&lt;br style=&quot;padding: 0px; margin: 0px; font-weight: 700; text-align: center;&quot;&gt;&lt;/div&gt;" style="verticalAlign=top;align=left;overflow=fill;fontSize=12;fontFamily=Helvetica;html=1;strokeWidth=3;fillColor=#d5e8d4;strokeColor=#82b366;" vertex="1" parent="1">
          <mxGeometry x="80" y="100" width="140" height="60" as="geometry" />
        </mxCell>
        <mxCell id="vxT1wsiQC9Di06yWpwA8-271" value="&lt;p style=&quot;text-align: center; margin: 4px 0px 0px;&quot;&gt;&lt;br&gt;&lt;/p&gt;&lt;p style=&quot;text-align: center; margin: 4px 0px 0px;&quot;&gt;&lt;span style=&quot;font-weight: 700;&quot;&gt;OverallDiscount&lt;/span&gt;&lt;br&gt;&lt;/p&gt;" style="verticalAlign=top;align=left;overflow=fill;fontSize=12;fontFamily=Helvetica;html=1;strokeWidth=3;fillColor=#d5e8d4;strokeColor=#82b366;" vertex="1" parent="1">
          <mxGeometry x="550" y="680" width="140" height="60" as="geometry" />
        </mxCell>
        <mxCell id="vxT1wsiQC9Di06yWpwA8-272" value="&lt;p style=&quot;text-align: center; margin: 4px 0px 0px;&quot;&gt;&lt;span style=&quot;font-weight: 700;&quot;&gt;&lt;br&gt;&lt;/span&gt;&lt;/p&gt;&lt;p style=&quot;text-align: center; margin: 4px 0px 0px;&quot;&gt;&lt;span style=&quot;font-weight: 700;&quot;&gt;Intializer&lt;/span&gt;&lt;br&gt;&lt;/p&gt;" style="verticalAlign=top;align=left;overflow=fill;fontSize=12;fontFamily=Helvetica;html=1;strokeWidth=3;fillColor=#d5e8d4;strokeColor=#82b366;" vertex="1" parent="1">
          <mxGeometry x="85" y="240" width="140" height="60" as="geometry" />
        </mxCell>
        <mxCell id="vxT1wsiQC9Di06yWpwA8-273" value="&lt;p style=&quot;text-align: center; margin: 4px 0px 0px;&quot;&gt;&lt;span style=&quot;font-weight: 700;&quot;&gt;&lt;br&gt;&lt;/span&gt;&lt;/p&gt;&lt;p style=&quot;text-align: center; margin: 4px 0px 0px;&quot;&gt;&lt;span style=&quot;font-weight: 700;&quot;&gt;UserAPI&lt;/span&gt;&lt;br&gt;&lt;/p&gt;" style="verticalAlign=top;align=left;overflow=fill;fontSize=12;fontFamily=Helvetica;html=1;strokeWidth=3;fillColor=#d5e8d4;strokeColor=#82b366;" vertex="1" parent="1">
          <mxGeometry x="280" y="240" width="140" height="60" as="geometry" />
        </mxCell>
        <mxCell id="vxT1wsiQC9Di06yWpwA8-274" value="&lt;p style=&quot;text-align: center; margin: 4px 0px 0px;&quot;&gt;&lt;br&gt;&lt;/p&gt;&lt;p style=&quot;text-align: center; margin: 4px 0px 0px;&quot;&gt;&lt;span style=&quot;font-weight: 700;&quot;&gt;CustomerAPI&lt;/span&gt;&lt;br&gt;&lt;/p&gt;" style="verticalAlign=top;align=left;overflow=fill;fontSize=12;fontFamily=Helvetica;html=1;strokeWidth=3;fillColor=#d5e8d4;strokeColor=#82b366;" vertex="1" parent="1">
          <mxGeometry x="280" y="100" width="140" height="60" as="geometry" />
        </mxCell>
        <mxCell id="vxT1wsiQC9Di06yWpwA8-275" value="&lt;p style=&quot;text-align: center; margin: 4px 0px 0px;&quot;&gt;&lt;br&gt;&lt;/p&gt;&lt;p style=&quot;text-align: center; margin: 4px 0px 0px;&quot;&gt;&lt;span style=&quot;font-weight: 700;&quot;&gt;SpecificDiscount&lt;/span&gt;&lt;br&gt;&lt;/p&gt;" style="verticalAlign=top;align=left;overflow=fill;fontSize=12;fontFamily=Helvetica;html=1;strokeWidth=3;fillColor=#d5e8d4;strokeColor=#82b366;" vertex="1" parent="1">
          <mxGeometry x="470" y="580" width="140" height="60" as="geometry" />
        </mxCell>
        <mxCell id="vxT1wsiQC9Di06yWpwA8-276" value="&lt;p style=&quot;text-align: center; margin: 4px 0px 0px;&quot;&gt;&lt;br&gt;&lt;/p&gt;&lt;p style=&quot;text-align: center; margin: 4px 0px 0px;&quot;&gt;&lt;span style=&quot;font-weight: 700;&quot;&gt;PaymentData&lt;/span&gt;&lt;br&gt;&lt;/p&gt;" style="verticalAlign=top;align=left;overflow=fill;fontSize=12;fontFamily=Helvetica;html=1;strokeWidth=3;fillColor=#d5e8d4;strokeColor=#82b366;" vertex="1" parent="1">
          <mxGeometry x="140" y="695" width="140" height="60" as="geometry" />
        </mxCell>
        <mxCell id="vxT1wsiQC9Di06yWpwA8-277" value="&lt;p style=&quot;text-align: center; margin: 4px 0px 0px;&quot;&gt;&lt;br&gt;&lt;/p&gt;&lt;p style=&quot;text-align: center; margin: 4px 0px 0px;&quot;&gt;&lt;span style=&quot;font-weight: 700;&quot;&gt;ServiceData&lt;/span&gt;&lt;br&gt;&lt;/p&gt;" style="verticalAlign=top;align=left;overflow=fill;fontSize=12;fontFamily=Helvetica;html=1;strokeWidth=3;fillColor=#d5e8d4;strokeColor=#82b366;" vertex="1" parent="1">
          <mxGeometry x="70" y="595" width="140" height="60" as="geometry" />
        </mxCell>
        <mxCell id="vxT1wsiQC9Di06yWpwA8-278" value="&lt;p style=&quot;text-align: center; margin: 4px 0px 0px;&quot;&gt;&lt;br&gt;&lt;/p&gt;&lt;p style=&quot;text-align: center; margin: 4px 0px 0px;&quot;&gt;&lt;span style=&quot;font-weight: 700;&quot;&gt;User&lt;/span&gt;&lt;br&gt;&lt;/p&gt;" style="verticalAlign=top;align=left;overflow=fill;fontSize=12;fontFamily=Helvetica;html=1;strokeWidth=3;fillColor=#d5e8d4;strokeColor=#82b366;" vertex="1" parent="1">
          <mxGeometry x="100" y="1306" width="140" height="60" as="geometry" />
        </mxCell>
        <mxCell id="vxT1wsiQC9Di06yWpwA8-279" value="&lt;p style=&quot;text-align: center; margin: 4px 0px 0px;&quot;&gt;&lt;br&gt;&lt;/p&gt;&lt;p style=&quot;text-align: center; margin: 4px 0px 0px;&quot;&gt;&lt;span style=&quot;font-weight: 700;&quot;&gt;Response&lt;/span&gt;&lt;br&gt;&lt;/p&gt;" style="verticalAlign=top;align=left;overflow=fill;fontSize=12;fontFamily=Helvetica;html=1;strokeWidth=3;fillColor=#d5e8d4;strokeColor=#82b366;" vertex="1" parent="1">
          <mxGeometry x="565" y="1180" width="140" height="60" as="geometry" />
        </mxCell>
        <mxCell id="vxT1wsiQC9Di06yWpwA8-280" value="&lt;p style=&quot;text-align: center; margin: 4px 0px 0px;&quot;&gt;&lt;br&gt;&lt;/p&gt;&lt;p style=&quot;text-align: center; margin: 4px 0px 0px;&quot;&gt;&lt;span style=&quot;font-weight: 700;&quot;&gt;Admin&lt;/span&gt;&lt;br&gt;&lt;/p&gt;" style="verticalAlign=top;align=left;overflow=fill;fontSize=12;fontFamily=Helvetica;html=1;strokeWidth=3;fillColor=#d5e8d4;strokeColor=#82b366;" vertex="1" parent="1">
          <mxGeometry x="340" y="1180" width="140" height="60" as="geometry" />
        </mxCell>
        <mxCell id="vxT1wsiQC9Di06yWpwA8-281" value="&lt;p style=&quot;text-align: center; margin: 4px 0px 0px;&quot;&gt;&lt;br&gt;&lt;/p&gt;&lt;p style=&quot;text-align: center; margin: 4px 0px 0px;&quot;&gt;&lt;span style=&quot;font-weight: 700;&quot;&gt;FormData&lt;/span&gt;&lt;br&gt;&lt;/p&gt;" style="verticalAlign=top;align=left;overflow=fill;fontSize=12;fontFamily=Helvetica;html=1;strokeWidth=3;fillColor=#d5e8d4;strokeColor=#82b366;" vertex="1" parent="1">
          <mxGeometry x="90" y="1180" width="140" height="60" as="geometry" />
        </mxCell>
        <mxCell id="vxT1wsiQC9Di06yWpwA8-282" value="&lt;p style=&quot;text-align: center; margin: 4px 0px 0px;&quot;&gt;&lt;span style=&quot;font-weight: 700;&quot;&gt;&lt;i&gt;&lt;br&gt;&lt;/i&gt;&lt;/span&gt;&lt;/p&gt;&lt;p style=&quot;text-align: center; margin: 4px 0px 0px;&quot;&gt;&lt;span style=&quot;font-weight: 700;&quot;&gt;&lt;i&gt;Transaction&lt;/i&gt;&lt;/span&gt;&lt;br&gt;&lt;/p&gt;" style="verticalAlign=top;align=left;overflow=fill;fontSize=12;fontFamily=Helvetica;html=1;strokeWidth=3;fillColor=#d5e8d4;strokeColor=#82b366;" vertex="1" parent="1">
          <mxGeometry x="850" y="1040" width="140" height="60" as="geometry" />
        </mxCell>
        <mxCell id="vxT1wsiQC9Di06yWpwA8-283" value="&lt;p style=&quot;text-align: center; margin: 4px 0px 0px;&quot;&gt;&lt;span style=&quot;font-weight: 700;&quot;&gt;&lt;br&gt;&lt;/span&gt;&lt;/p&gt;&lt;p style=&quot;text-align: center; margin: 4px 0px 0px;&quot;&gt;&lt;span style=&quot;font-weight: 700;&quot;&gt;DiscountData&lt;/span&gt;&lt;br&gt;&lt;/p&gt;" style="verticalAlign=top;align=left;overflow=fill;fontSize=12;fontFamily=Helvetica;html=1;strokeWidth=3;fillColor=#d5e8d4;strokeColor=#82b366;" vertex="1" parent="1">
          <mxGeometry x="565" y="1040" width="140" height="60" as="geometry" />
        </mxCell>
        <mxCell id="vxT1wsiQC9Di06yWpwA8-284" value="&lt;p style=&quot;text-align: center; margin: 4px 0px 0px;&quot;&gt;&lt;br&gt;&lt;/p&gt;&lt;p style=&quot;text-align: center; margin: 4px 0px 0px;&quot;&gt;&lt;span style=&quot;font-weight: 700;&quot;&gt;Form&lt;/span&gt;&lt;br&gt;&lt;/p&gt;" style="verticalAlign=top;align=left;overflow=fill;fontSize=12;fontFamily=Helvetica;html=1;strokeWidth=3;fillColor=#d5e8d4;strokeColor=#82b366;" vertex="1" parent="1">
          <mxGeometry x="330" y="1040" width="140" height="60" as="geometry" />
        </mxCell>
        <mxCell id="vxT1wsiQC9Di06yWpwA8-285" value="&lt;p style=&quot;text-align: center; margin: 4px 0px 0px;&quot;&gt;&lt;span style=&quot;font-style: italic; font-weight: 700;&quot;&gt;&lt;br&gt;&lt;/span&gt;&lt;/p&gt;&lt;p style=&quot;text-align: center; margin: 4px 0px 0px;&quot;&gt;&lt;span style=&quot;font-style: italic; font-weight: 700;&quot;&gt;Service&lt;/span&gt;&lt;br&gt;&lt;/p&gt;" style="verticalAlign=top;align=left;overflow=fill;fontSize=12;fontFamily=Helvetica;html=1;strokeWidth=3;fillColor=#d5e8d4;strokeColor=#82b366;" vertex="1" parent="1">
          <mxGeometry x="80" y="1040" width="140" height="60" as="geometry" />
        </mxCell>
        <mxCell id="vxT1wsiQC9Di06yWpwA8-286" value="&lt;p style=&quot;text-align: center; margin: 4px 0px 0px;&quot;&gt;&lt;span style=&quot;font-weight: 700;&quot;&gt;&lt;br&gt;&lt;/span&gt;&lt;/p&gt;&lt;p style=&quot;text-align: center; margin: 4px 0px 0px;&quot;&gt;&lt;span style=&quot;font-weight: 700;&quot;&gt;CreditCardPayment&lt;/span&gt;&lt;br&gt;&lt;/p&gt;" style="verticalAlign=top;align=left;overflow=fill;fontSize=12;fontFamily=Helvetica;html=1;strokeWidth=3;fillColor=#d5e8d4;strokeColor=#82b366;" vertex="1" parent="1">
          <mxGeometry x="1740" y="1130" width="140" height="60" as="geometry" />
        </mxCell>
        <mxCell id="vxT1wsiQC9Di06yWpwA8-287" value="&lt;p style=&quot;text-align: center; margin: 4px 0px 0px;&quot;&gt;&lt;span style=&quot;font-weight: 700;&quot;&gt;&lt;br&gt;&lt;/span&gt;&lt;/p&gt;&lt;p style=&quot;text-align: center; margin: 4px 0px 0px;&quot;&gt;&lt;span style=&quot;font-weight: 700;&quot;&gt;CashPayment&lt;/span&gt;&lt;br&gt;&lt;/p&gt;" style="verticalAlign=top;align=left;overflow=fill;fontSize=12;fontFamily=Helvetica;html=1;strokeWidth=3;fillColor=#d5e8d4;strokeColor=#82b366;" vertex="1" parent="1">
          <mxGeometry x="1540" y="1130" width="140" height="60" as="geometry" />
        </mxCell>
        <mxCell id="vxT1wsiQC9Di06yWpwA8-288" value="&lt;p style=&quot;text-align: center; margin: 4px 0px 0px;&quot;&gt;&lt;span style=&quot;font-weight: 700;&quot;&gt;&lt;br&gt;&lt;/span&gt;&lt;/p&gt;&lt;p style=&quot;text-align: center; margin: 4px 0px 0px;&quot;&gt;&lt;span style=&quot;font-weight: 700;&quot;&gt;WalletPayment&lt;/span&gt;&lt;br&gt;&lt;/p&gt;" style="verticalAlign=top;align=left;overflow=fill;fontSize=12;fontFamily=Helvetica;html=1;strokeWidth=3;fillColor=#d5e8d4;strokeColor=#82b366;" vertex="1" parent="1">
          <mxGeometry x="1330" y="1130" width="140" height="60" as="geometry" />
        </mxCell>
        <mxCell id="vxT1wsiQC9Di06yWpwA8-289" value="&lt;p style=&quot;text-align: center; margin: 4px 0px 0px;&quot;&gt;&lt;br&gt;&lt;/p&gt;&lt;p style=&quot;text-align: center; margin: 4px 0px 0px;&quot;&gt;&lt;span style=&quot;font-weight: 700;&quot;&gt;Balance&lt;/span&gt;&lt;br&gt;&lt;/p&gt;" style="verticalAlign=top;align=left;overflow=fill;fontSize=12;fontFamily=Helvetica;html=1;strokeWidth=3;fillColor=#d5e8d4;strokeColor=#82b366;" vertex="1" parent="1">
          <mxGeometry x="340" y="1450" width="140" height="60" as="geometry" />
        </mxCell>
        <mxCell id="vxT1wsiQC9Di06yWpwA8-290" value="&lt;p style=&quot;text-align: center; margin: 4px 0px 0px;&quot;&gt;&lt;br&gt;&lt;/p&gt;&lt;p style=&quot;text-align: center; margin: 4px 0px 0px;&quot;&gt;&lt;span style=&quot;font-style: italic; font-weight: 700;&quot;&gt;Payment&lt;/span&gt;&lt;br&gt;&lt;/p&gt;" style="verticalAlign=top;align=left;overflow=fill;fontSize=12;fontFamily=Helvetica;html=1;strokeWidth=3;fillColor=#d5e8d4;strokeColor=#82b366;" vertex="1" parent="1">
          <mxGeometry x="110" y="1450" width="140" height="60" as="geometry" />
        </mxCell>
        <mxCell id="vxT1wsiQC9Di06yWpwA8-291" value="&lt;p style=&quot;text-align: center; margin: 4px 0px 0px;&quot;&gt;&lt;br&gt;&lt;/p&gt;&lt;p style=&quot;text-align: center; margin: 4px 0px 0px;&quot;&gt;&lt;span style=&quot;font-weight: 700;&quot;&gt;Customer&lt;/span&gt;&lt;br&gt;&lt;/p&gt;" style="verticalAlign=top;align=left;overflow=fill;fontSize=12;fontFamily=Helvetica;html=1;strokeWidth=3;fillColor=#d5e8d4;strokeColor=#82b366;" vertex="1" parent="1">
          <mxGeometry x="870" y="1300" width="140" height="60" as="geometry" />
        </mxCell>
        <mxCell id="vxT1wsiQC9Di06yWpwA8-292" value="&lt;p style=&quot;text-align: center; margin: 4px 0px 0px;&quot;&gt;&lt;br&gt;&lt;/p&gt;&lt;p style=&quot;text-align: center; margin: 4px 0px 0px;&quot;&gt;&lt;span style=&quot;font-weight: 700;&quot;&gt;PaymentDetails&lt;/span&gt;&lt;br&gt;&lt;/p&gt;" style="verticalAlign=top;align=left;overflow=fill;fontSize=12;fontFamily=Helvetica;html=1;strokeWidth=3;fillColor=#d5e8d4;strokeColor=#82b366;" vertex="1" parent="1">
          <mxGeometry x="580" y="1306" width="140" height="60" as="geometry" />
        </mxCell>
        <mxCell id="vxT1wsiQC9Di06yWpwA8-293" value="&lt;p style=&quot;text-align: center; margin: 4px 0px 0px;&quot;&gt;&lt;br&gt;&lt;/p&gt;&lt;p style=&quot;text-align: center; margin: 4px 0px 0px;&quot;&gt;&lt;span style=&quot;font-weight: 700;&quot;&gt;Refund&lt;/span&gt;&lt;br&gt;&lt;/p&gt;" style="verticalAlign=top;align=left;overflow=fill;fontSize=12;fontFamily=Helvetica;html=1;strokeWidth=3;fillColor=#d5e8d4;strokeColor=#82b366;" vertex="1" parent="1">
          <mxGeometry x="860" y="1180" width="140" height="60" as="geometry" />
        </mxCell>
        <mxCell id="vxT1wsiQC9Di06yWpwA8-294" value="&lt;p style=&quot;text-align: center; margin: 4px 0px 0px;&quot;&gt;&lt;br&gt;&lt;/p&gt;&lt;p style=&quot;text-align: center; margin: 4px 0px 0px;&quot;&gt;&lt;span style=&quot;font-weight: 700;&quot;&gt;Discount&lt;/span&gt;&lt;br&gt;&lt;/p&gt;" style="verticalAlign=top;align=left;overflow=fill;fontSize=12;fontFamily=Helvetica;html=1;strokeWidth=3;fillColor=#d5e8d4;strokeColor=#82b366;" vertex="1" parent="1">
          <mxGeometry x="340" y="1300" width="140" height="60" as="geometry" />
        </mxCell>
        <mxCell id="vxT1wsiQC9Di06yWpwA8-295" value="&lt;p style=&quot;text-align: center; margin: 4px 0px 0px;&quot;&gt;&lt;span style=&quot;font-weight: 700;&quot;&gt;&lt;br&gt;&lt;/span&gt;&lt;/p&gt;&lt;p style=&quot;text-align: center; margin: 4px 0px 0px;&quot;&gt;&lt;span style=&quot;font-weight: 700;&quot;&gt;InternetPaymentService&lt;/span&gt;&lt;br&gt;&lt;/p&gt;" style="verticalAlign=top;align=left;overflow=fill;fontSize=12;fontFamily=Helvetica;html=1;strokeWidth=3;fillColor=#d5e8d4;strokeColor=#82b366;" vertex="1" parent="1">
          <mxGeometry x="1910" y="1625" width="140" height="60" as="geometry" />
        </mxCell>
        <mxCell id="vxT1wsiQC9Di06yWpwA8-296" value="&lt;p style=&quot;text-align: center; margin: 4px 0px 0px;&quot;&gt;&lt;span style=&quot;font-weight: 700;&quot;&gt;&lt;br&gt;&lt;/span&gt;&lt;/p&gt;&lt;p style=&quot;text-align: center; margin: 4px 0px 0px;&quot;&gt;&lt;span style=&quot;font-weight: 700;&quot;&gt;LandlineService&lt;/span&gt;&lt;br&gt;&lt;/p&gt;" style="verticalAlign=top;align=left;overflow=fill;fontSize=12;fontFamily=Helvetica;html=1;strokeWidth=3;fillColor=#d5e8d4;strokeColor=#82b366;" vertex="1" parent="1">
          <mxGeometry x="2130" y="1465" width="140" height="60" as="geometry" />
        </mxCell>
        <mxCell id="vxT1wsiQC9Di06yWpwA8-297" value="&lt;p style=&quot;text-align: center; margin: 4px 0px 0px;&quot;&gt;&lt;span style=&quot;font-weight: 700;&quot;&gt;&lt;br&gt;&lt;/span&gt;&lt;/p&gt;&lt;p style=&quot;text-align: center; margin: 4px 0px 0px;&quot;&gt;&lt;span style=&quot;font-weight: 700;&quot;&gt;MobileRechargeService&lt;/span&gt;&lt;br&gt;&lt;/p&gt;" style="verticalAlign=top;align=left;overflow=fill;fontSize=12;fontFamily=Helvetica;html=1;strokeWidth=3;fillColor=#d5e8d4;strokeColor=#82b366;" vertex="1" parent="1">
          <mxGeometry x="1900" y="1465" width="140" height="60" as="geometry" />
        </mxCell>
        <mxCell id="vxT1wsiQC9Di06yWpwA8-298" value="&lt;p style=&quot;text-align: center; margin: 4px 0px 0px;&quot;&gt;&lt;span style=&quot;font-weight: 700;&quot;&gt;&lt;br&gt;&lt;/span&gt;&lt;/p&gt;&lt;p style=&quot;text-align: center; margin: 4px 0px 0px;&quot;&gt;&lt;span style=&quot;font-weight: 700;&quot;&gt;ConcreteSearch&lt;/span&gt;&lt;br&gt;&lt;/p&gt;" style="verticalAlign=top;align=left;overflow=fill;fontSize=12;fontFamily=Helvetica;html=1;strokeWidth=3;fillColor=#d5e8d4;strokeColor=#82b366;" vertex="1" parent="1">
          <mxGeometry x="1405" y="1530" width="140" height="60" as="geometry" />
        </mxCell>
        <mxCell id="vxT1wsiQC9Di06yWpwA8-299" value="&lt;p style=&quot;text-align: center; margin: 4px 0px 0px;&quot;&gt;&lt;span style=&quot;font-weight: 700;&quot;&gt;&lt;br&gt;&lt;/span&gt;&lt;/p&gt;&lt;p style=&quot;text-align: center; margin: 4px 0px 0px;&quot;&gt;&lt;span style=&quot;font-weight: 700;&quot;&gt;EmailSignIn&lt;/span&gt;&lt;br&gt;&lt;/p&gt;" style="verticalAlign=top;align=left;overflow=fill;fontSize=12;fontFamily=Helvetica;html=1;strokeWidth=3;fillColor=#d5e8d4;strokeColor=#82b366;" vertex="1" parent="1">
          <mxGeometry x="2480" y="1176" width="140" height="60" as="geometry" />
        </mxCell>
        <mxCell id="vxT1wsiQC9Di06yWpwA8-300" value="&lt;p style=&quot;text-align: center; margin: 4px 0px 0px;&quot;&gt;&lt;span style=&quot;font-weight: 700;&quot;&gt;&lt;br&gt;&lt;/span&gt;&lt;/p&gt;&lt;p style=&quot;text-align: center; margin: 4px 0px 0px;&quot;&gt;&lt;span style=&quot;font-weight: 700;&quot;&gt;EmailSignUp&lt;/span&gt;&lt;br&gt;&lt;/p&gt;" style="verticalAlign=top;align=left;overflow=fill;fontSize=12;fontFamily=Helvetica;html=1;strokeWidth=3;fillColor=#d5e8d4;strokeColor=#82b366;" vertex="1" parent="1">
          <mxGeometry x="2245" y="1185" width="140" height="60" as="geometry" />
        </mxCell>
        <mxCell id="vxT1wsiQC9Di06yWpwA8-301" value="&lt;p style=&quot;text-align: center; margin: 4px 0px 0px;&quot;&gt;&lt;span style=&quot;font-weight: 700;&quot;&gt;&lt;br&gt;&lt;/span&gt;&lt;/p&gt;&lt;p style=&quot;text-align: center; margin: 4px 0px 0px;&quot;&gt;&lt;span style=&quot;font-weight: 700;&quot;&gt;EPaymentApplication&lt;/span&gt;&lt;br&gt;&lt;/p&gt;" style="verticalAlign=top;align=left;overflow=fill;fontSize=12;fontFamily=Helvetica;html=1;strokeWidth=3;fillColor=#d5e8d4;strokeColor=#82b366;" vertex="1" parent="1">
          <mxGeometry x="895" y="1795" width="140" height="60" as="geometry" />
        </mxCell>
        <mxCell id="vxT1wsiQC9Di06yWpwA8-302" value="&lt;p style=&quot;text-align: center; margin: 4px 0px 0px;&quot;&gt;&lt;span style=&quot;font-weight: 700;&quot;&gt;&lt;br&gt;&lt;/span&gt;&lt;/p&gt;&lt;p style=&quot;text-align: center; margin: 4px 0px 0px;&quot;&gt;&lt;span style=&quot;font-weight: 700;&quot;&gt;TimeManager&lt;/span&gt;&lt;br&gt;&lt;/p&gt;" style="verticalAlign=top;align=left;overflow=fill;fontSize=12;fontFamily=Helvetica;html=1;strokeWidth=3;fillColor=#d5e8d4;strokeColor=#82b366;" vertex="1" parent="1">
          <mxGeometry x="1340" y="1795" width="140" height="60" as="geometry" />
        </mxCell>
        <mxCell id="vxT1wsiQC9Di06yWpwA8-303" value="&lt;p style=&quot;text-align: center; margin: 4px 0px 0px;&quot;&gt;&lt;span style=&quot;font-weight: 700;&quot;&gt;&lt;br&gt;&lt;/span&gt;&lt;/p&gt;&lt;p style=&quot;text-align: center; margin: 4px 0px 0px;&quot;&gt;&lt;span style=&quot;font-weight: 700;&quot;&gt;DonationsService&lt;/span&gt;&lt;br&gt;&lt;/p&gt;" style="verticalAlign=top;align=left;overflow=fill;fontSize=12;fontFamily=Helvetica;html=1;strokeWidth=3;fillColor=#d5e8d4;strokeColor=#82b366;" vertex="1" parent="1">
          <mxGeometry x="2130" y="1625" width="140" height="60" as="geometry" />
        </mxCell>
        <mxCell id="vxT1wsiQC9Di06yWpwA8-304" value="&lt;p style=&quot;text-align: center; margin: 4px 0px 0px;&quot;&gt;&lt;span style=&quot;font-weight: 700;&quot;&gt;&lt;br&gt;&lt;/span&gt;&lt;/p&gt;&lt;p style=&quot;text-align: center; margin: 4px 0px 0px;&quot;&gt;&lt;span style=&quot;font-weight: 700;&quot;&gt;RefundTransaction&lt;/span&gt;&lt;br&gt;&lt;/p&gt;" style="verticalAlign=top;align=left;overflow=fill;fontSize=12;fontFamily=Helvetica;html=1;strokeWidth=3;fillColor=#d5e8d4;strokeColor=#82b366;" vertex="1" parent="1">
          <mxGeometry x="410" y="1820" width="140" height="60" as="geometry" />
        </mxCell>
        <mxCell id="vxT1wsiQC9Di06yWpwA8-305" value="&lt;p style=&quot;text-align: center; margin: 4px 0px 0px;&quot;&gt;&lt;span style=&quot;font-weight: 700;&quot;&gt;&lt;br&gt;&lt;/span&gt;&lt;/p&gt;&lt;p style=&quot;text-align: center; margin: 4px 0px 0px;&quot;&gt;&lt;span style=&quot;font-weight: 700;&quot;&gt;PaymentTransaction&lt;/span&gt;&lt;br&gt;&lt;/p&gt;" style="verticalAlign=top;align=left;overflow=fill;fontSize=12;fontFamily=Helvetica;html=1;strokeWidth=3;fillColor=#d5e8d4;strokeColor=#82b366;" vertex="1" parent="1">
          <mxGeometry x="140" y="1820" width="140" height="60" as="geometry" />
        </mxCell>
        <mxCell id="vxT1wsiQC9Di06yWpwA8-306" value="&lt;p style=&quot;text-align: center; margin: 4px 0px 0px;&quot;&gt;&lt;span style=&quot;font-weight: 700;&quot;&gt;&lt;br&gt;&lt;/span&gt;&lt;/p&gt;&lt;p style=&quot;text-align: center; margin: 4px 0px 0px;&quot;&gt;&lt;span style=&quot;font-weight: 700;&quot;&gt;ChargeTransaction&lt;/span&gt;&lt;br&gt;&lt;/p&gt;" style="verticalAlign=top;align=left;overflow=fill;fontSize=12;fontFamily=Helvetica;html=1;strokeWidth=3;fillColor=#d5e8d4;strokeColor=#82b366;" vertex="1" parent="1">
          <mxGeometry x="250" y="1945" width="140" height="60" as="geometry" />
        </mxCell>
      </root>
    </mxGraphModel>
  </diagram>
</mxfile>
